<?xml version="1.0" standalone="no"?>
<!DOCTYPE svg PUBLIC "-//W3C//DTD SVG 1.1//EN" "http://www.w3.org/Graphics/SVG/1.1/DTD/svg11.dtd" >
<svg>
<metadata>
Created by FontForge 20090914 at Tue May 19 09:59:32 2020
 By www-data
Copyright (c) 2015 Indian Type Foundry (info@indiantypefoundry.com)
</metadata>
<defs>
<font id="HindSiliguri-Bold" horiz-adv-x="0" >
  <font-face 
    font-family="Hind Siliguri"
    font-weight="700"
    font-stretch="normal"
    units-per-em="1000"
    panose-1="2 0 0 0 0 0 0 0 0 0"
    ascent="800"
    descent="-200"
    x-height="507"
    cap-height="674"
    bbox="-671.999 -492.998 1652 1115.05"
    underline-thickness="50"
    underline-position="-100"
    unicode-range="U+0020-U+FB02"
  />
<missing-glyph horiz-adv-x="756" 
d="M596 0h-436v701h436v-701zM241 625v-549h275v549h-275z" />
    <glyph glyph-name=".notdef" horiz-adv-x="756" 
d="M596 0h-436v701h436v-701zM241 625v-549h275v549h-275z" />
    <glyph glyph-name="space" unicode=" " horiz-adv-x="250" 
 />
    <glyph glyph-name="exclam" unicode="!" horiz-adv-x="289" 
d="M214 236h-139v438h139v-438zM234 83c0 -25.333 -8.83301 -46.833 -26.5 -64.5s-39.167 -26.5 -64.5 -26.5s-46.833 8.83301 -64.5 26.5s-26.5 39.167 -26.5 64.5s8.83301 46.833 26.5 64.5s39.167 26.5 64.5 26.5s46.833 -8.83301 64.5 -26.5s26.5 -39.167 26.5 -64.5z
" />
    <glyph glyph-name="quotedbl" unicode="&#x22;" horiz-adv-x="387" 
d="M347 420h-122v261h122v-261zM162 420h-122v261h122v-261z" />
    <glyph glyph-name="numbersign" unicode="#" horiz-adv-x="757" 
d="M496 0h-123l32 154h-136l-33 -154h-123l32 154h-100v111h124l28 135h-118v116h143l33 157h124l-33 -157h136l33 157h124l-33 -157h106v-116h-131l-29 -135h126v-111h-149zM429 265l28 135h-136l-29 -135h137z" />
    <glyph glyph-name="dollar" unicode="$" horiz-adv-x="514" 
d="M299 -118l-121.002 0.00292969v113c-55.333 5.33301 -101.333 18.333 -138 39v155c60.667 -44 125.334 -66 194.001 -66c23.333 0 42.666 6.16699 57.999 18.5s23 28.5 23 48.5c0 6.66699 -1 13 -3 19s-5.66699 11.667 -11 17s-10.5 9.83301 -15.5 13.5s-12.333 8 -22 13
l-24.5 12.5c-6.66699 3.33301 -16.5 8 -29.5 14s-23.5 10.667 -31.5 14c-43.333 20 -78.166 44.667 -104.499 74s-39.5 68.333 -39.5 117c0 51.333 17 94.166 51 128.499s81.333 55.166 142 62.499v115h122v-117c35.333 -5.33301 68.666 -15 99.999 -29v-144
c-54 31.333 -110 47 -168 47c-26 0 -45.833 -5.33301 -59.5 -16s-20.5 -24.334 -20.5 -41.001s8.33301 -31.5 25 -44.5s41.667 -26.833 75 -41.5c20.667 -9.33301 37.834 -17.5 51.501 -24.5s29.334 -16.667 47.001 -29s31.667 -25.333 42 -39s19.166 -30.5 26.499 -50.5
s11 -41.667 11 -65c0 -50.667 -16.167 -93.667 -48.5 -129s-76.166 -58.333 -131.499 -69v-116z" />
    <glyph glyph-name="percent" unicode="%" horiz-adv-x="973" 
d="M358 -1h-131l379 708h132zM425 532c0 -52.667 -18.5 -97.5 -55.5 -134.5s-81.833 -55.5 -134.5 -55.5s-97.5 18.5 -134.5 55.5s-55.5 81.833 -55.5 134.5s18.5 97.5 55.5 134.5s81.833 55.5 134.5 55.5s97.5 -18.5 134.5 -55.5s55.5 -81.833 55.5 -134.5zM162 532
c0 -20 7.16699 -37.167 21.5 -51.5s31.5 -21.5 51.5 -21.5s37.167 7.16699 51.5 21.5s21.5 31.5 21.5 51.5s-7.16699 37.167 -21.5 51.5s-31.5 21.5 -51.5 21.5s-37.167 -7.16699 -51.5 -21.5s-21.5 -31.5 -21.5 -51.5zM928 182c0 -52.667 -18.5 -97.5 -55.5 -134.5
s-81.833 -55.5 -134.5 -55.5s-97.5 18.5 -134.5 55.5s-55.5 81.833 -55.5 134.5s18.5 97.5 55.5 134.5s81.833 55.5 134.5 55.5s97.5 -18.5 134.5 -55.5s55.5 -81.833 55.5 -134.5zM665 182c0 -20 7.16699 -37.167 21.5 -51.5s31.5 -21.5 51.5 -21.5
s37.167 7.16699 51.5 21.5s21.5 31.5 21.5 51.5s-7.16699 37.167 -21.5 51.5s-31.5 21.5 -51.5 21.5s-37.167 -7.16699 -51.5 -21.5s-21.5 -31.5 -21.5 -51.5z" />
    <glyph glyph-name="ampersand" unicode="&#x26;" horiz-adv-x="742" 
d="M272 504c0 -29.333 23 -67 69 -113c50 27.333 75 61 75 101c0 24.667 -6.83301 43.667 -20.5 57s-32.5 20 -56.5 20c-19.333 0 -35.333 -5.66699 -48 -17s-19 -27.333 -19 -48zM737 0l-179 -0.000976562l-39 39c-54 -31.333 -115.333 -47 -184 -47
c-88 0 -157.5 18.667 -208.5 56s-76.5 82.666 -76.5 135.999c0 82.667 47.333 139.334 142 170.001c-45.333 50 -68 99.333 -68 148c0 59.333 20.333 105.166 61 137.499s92 48.5 154 48.5c70 0 124.833 -16.5 164.5 -49.5s59.5 -79.167 59.5 -138.5
c0 -39.333 -11.167 -74.166 -33.5 -104.499s-58.5 -58.166 -108.5 -83.499l98 -96c12 26 18 54.333 18 85h131c0 -66.667 -18.667 -126 -56 -178zM336 111.999c31.333 0 61 6 89 18l-127 124c-2 2 -5.16699 5 -9.5 9l-10.5 10c-30.667 -10.667 -51.5 -22.667 -62.5 -36
s-16.5 -29.333 -16.5 -48c0 -22.667 13 -41.167 39 -55.5s58.667 -21.5 98 -21.5z" />
    <glyph glyph-name="quotesingle" unicode="'" horiz-adv-x="202" 
d="M162 420h-122v261h122v-261z" />
    <glyph glyph-name="parenleft" unicode="(" horiz-adv-x="338" 
d="M358 -196l-155 0.000976562c-108.667 135.333 -163 287 -163 455c0 173.333 52.333 322.666 157 447.999h151c-48.667 -59.333 -86.5 -131.333 -113.5 -216s-40.5 -163.334 -40.5 -236.001c0 -70.667 14 -147.167 42 -229.5s68.667 -156.166 122 -221.499z" />
    <glyph glyph-name="parenright" unicode=")" horiz-adv-x="338" 
d="M135 -196l-155 -0.000976562c53.333 65.333 94 139.166 122 221.499s42 158.833 42 229.5c0 72.667 -13.5 151.334 -40.5 236.001s-64.833 156.667 -113.5 216h151c104.667 -125.333 157 -274.666 157 -447.999c0 -168 -54.333 -319.667 -163 -455z" />
    <glyph glyph-name="asterisk" unicode="*" horiz-adv-x="508" 
d="M431 312l-96 -68.999l-57 79c-10.667 14.667 -18 29 -22 43c-5.33301 -12.667 -13.333 -26.667 -24 -42l-59 -80l-95 70l58 79c10 13.333 21.667 25 35 35c-15.333 0 -31.666 3 -48.999 9l-94 31l37 112l93 -30c17.333 -6 32.333 -13.667 45 -23
c-4.66699 16 -7 32.667 -7 50v98h118v-98c0 -18.667 -2.66699 -35.334 -8 -50.001c11.333 8.66699 26.333 16 45 22l94 30l36 -112l-92 -30c-16.667 -5.33301 -33.334 -8 -50.001 -8h-2c15.333 -11.333 27.333 -23.333 36 -36z" />
    <glyph glyph-name="plus" unicode="+" horiz-adv-x="589" 
d="M544 274h-183v-180h-134v180h-182v130h182v181h134v-181h183v-130z" />
    <glyph glyph-name="comma" unicode="," horiz-adv-x="294" 
d="M119 -127h-126l101 261h161z" />
    <glyph glyph-name="hyphen" unicode="-" horiz-adv-x="357" 
d="M312 202h-267v120h267v-120z" />
    <glyph glyph-name="period" unicode="." horiz-adv-x="258" 
d="M218 81c0 -24.667 -8.66699 -45.667 -26 -63s-38.333 -26 -63 -26s-45.667 8.66699 -63 26s-26 38.333 -26 63s8.66699 45.667 26 63s38.333 26 63 26s45.667 -8.66699 63 -26s26 -38.333 26 -63z" />
    <glyph glyph-name="slash" unicode="/" horiz-adv-x="464" 
d="M149 -103h-151l359 810h152z" />
    <glyph glyph-name="zero" unicode="0" horiz-adv-x="547" 
d="M512 330c0 -102.667 -20.167 -184.667 -60.5 -246s-99.833 -92 -178.5 -92s-138 30.5 -178 91.5s-60 143.167 -60 246.5c0 104 20 186.333 60 247s99.333 91 178 91s138.167 -30.333 178.5 -91s60.5 -143 60.5 -247zM184 330c0 -138.667 29.667 -208 89 -208
c60 0 90 69.333 90 208s-30 208 -90 208c-59.333 0 -89 -69.333 -89 -208z" />
    <glyph glyph-name="one" unicode="1" horiz-adv-x="380" 
d="M320 0h-145v497l-165 -99v149l184 107h126v-654z" />
    <glyph glyph-name="two" unicode="2" horiz-adv-x="501" 
d="M466 0h-435.999v113c72 49.333 135.5 104 190.5 164s82.5 113 82.5 159c0 28 -8.33301 50.167 -25 66.5s-42 24.5 -76 24.5c-56.667 0 -110.334 -21 -161.001 -63v141c22 16 50.667 29.667 86 41s70 17 104 17c68 0 122.167 -17.833 162.5 -53.5s60.5 -85.5 60.5 -149.5
c0 -115.333 -73.333 -227.333 -220 -336h232v-124z" />
    <glyph glyph-name="three" unicode="3" horiz-adv-x="483" 
d="M448 180c0 -56 -21.167 -100.833 -63.5 -134.5s-101.5 -50.5 -177.5 -50.5c-71.333 0 -130.333 11.333 -177 34v140c53.333 -29.333 108.333 -44 165 -44c32.667 0 58.167 7 76.5 21s27.5 31.667 27.5 53c0 48.667 -45 73 -135 73h-35v120h35c35.333 0 64.333 6 87 18
s34 30 34 54c0 46 -30 69 -90 69c-46 0 -92.333 -14.333 -139 -43v136c49.333 24.667 99 37 149 37c70.667 0 126.667 -16.833 168 -50.5s62 -77.5 62 -131.5c0 -74 -33.667 -125 -101 -153c76 -18 114 -67.333 114 -148z" />
    <glyph glyph-name="four" unicode="4" horiz-adv-x="562" 
d="M173 263h144v296zM462 0h-145v139h-287v124l200 393h232v-393h80v-124h-80v-139z" />
    <glyph glyph-name="five" unicode="5" horiz-adv-x="500" 
d="M470 219c0 -68 -22.501 -122.5 -67.501 -163.5s-108.833 -61.5 -191.5 -61.5c-72.667 0 -131.334 11.667 -176.001 35v138c45.333 -28 96 -42 152 -42c89.333 0 134 32 134 96c0 24 -9.16699 43 -27.5 57s-45.833 21 -82.5 21c-51.333 0 -100.666 -11 -147.999 -33v390
h367v-124h-225v-111c14.667 2 29.334 3 44.001 3c71.333 0 126 -18.333 164 -55s57 -86.667 57 -150z" />
    <glyph glyph-name="six" unicode="6" horiz-adv-x="537" 
d="M512 212c0 -66 -20.833 -121.167 -62.5 -165.5s-98.5 -66.5 -170.5 -66.5c-80.667 0 -141.5 28.833 -182.5 86.5s-61.5 135.167 -61.5 232.5c0 111.333 30.5 200.333 91.5 267s138.167 100 231.5 100c35.333 0 69.666 -5.33301 102.999 -16v-135
c-26 14 -56.333 21 -91 21c-47.333 0 -86.166 -14.5 -116.499 -43.5s-50.833 -67.833 -61.5 -116.5c36 30.667 79 46 129 46c57.333 0 103.5 -19 138.5 -57s52.5 -89 52.5 -153zM280 110c26 0 46.334 9.00098 61.001 27.001s22 42 22 72
c0 27.333 -7.16699 49.166 -21.5 65.499s-34.5 24.5 -60.5 24.5c-36 0 -67.667 -14.333 -95 -43c7.33301 -97.333 38.666 -146 93.999 -146z" />
    <glyph glyph-name="seven" unicode="7" horiz-adv-x="480" 
d="M206 0h-154l255 531h-287v124h440v-124z" />
    <glyph glyph-name="eight" unicode="8" horiz-adv-x="545" 
d="M510 182c0 -57.333 -22.167 -103.665 -66.5 -138.998s-102.166 -53 -173.499 -53c-72 0 -129.167 16.833 -171.5 50.5s-63.5 79.167 -63.5 136.5c0 70.667 31.667 121.667 95 153c-56.667 32.667 -85 79.667 -85 141s21.167 109.166 63.5 143.499
s96.166 51.5 161.499 51.5c68 0 123.167 -16.333 165.5 -49s63.5 -81.334 63.5 -146.001c0 -60 -27.333 -106 -82 -138c62 -28.667 93 -79 93 -151zM181 181.001c0 -20.667 7.16602 -38.332 21.499 -52.999s37.166 -22 68.499 -22c30.667 0 53.834 7.5 69.501 22.5
s23.5 33.167 23.5 54.5c0 24 -8.16699 43.667 -24.5 59s-39.166 23 -68.499 23c-30 0 -52.5 -8.33301 -67.5 -25s-22.5 -36.334 -22.5 -59.001zM191.999 473.003c0 -25.333 7.66895 -45 23.002 -59s34.666 -21 57.999 -21c22.667 0 41.667 7 57 21s23 33.667 23 59
c0 51.333 -27.667 77 -83 77c-26.667 0 -46.334 -7.5 -59.001 -22.5s-19 -33.167 -19 -54.5z" />
    <glyph glyph-name="nine" unicode="9" horiz-adv-x="533" 
d="M254 346c40 0 72.333 15 97 45c-8 94.667 -40 142 -96 142c-26 0 -46.833 -8.33301 -62.5 -25s-23.5 -40 -23.5 -70c0 -26.667 7.66699 -48.667 23 -66s36 -26 62 -26zM498 348c0 -119.333 -28.333 -208.502 -85 -267.502s-132.334 -88.5 -227.001 -88.5
c-45.333 0 -85 6.33301 -119 19v138c34.667 -16.667 69 -25 103 -25c52 0 92.333 11.833 121 35.5s47.334 60.834 56.001 111.501c-28.667 -28.667 -72 -43 -130 -43c-58.667 0 -106.167 18.833 -142.5 56.5s-54.5 87.834 -54.5 150.501c0 65.333 20.5 119.666 61.5 162.999
s96.5 65 166.5 65c78 0 139.167 -28.167 183.5 -84.5s66.5 -133.166 66.5 -230.499z" />
    <glyph glyph-name="colon" unicode=":" horiz-adv-x="286" 
d="M231 419c0 -24.667 -8.5 -45.5 -25.5 -62.5s-37.833 -25.5 -62.5 -25.5s-45.5 8.5 -62.5 25.5s-25.5 37.833 -25.5 62.5s8.5 45.5 25.5 62.5s37.833 25.5 62.5 25.5s45.5 -8.5 62.5 -25.5s25.5 -37.833 25.5 -62.5zM231 88c0 -24.667 -8.5 -45.5 -25.5 -62.5
s-37.833 -25.5 -62.5 -25.5s-45.5 8.5 -62.5 25.5s-25.5 37.833 -25.5 62.5s8.5 45.5 25.5 62.5s37.833 25.5 62.5 25.5s45.5 -8.5 62.5 -25.5s25.5 -37.833 25.5 -62.5z" />
    <glyph glyph-name="semicolon" unicode=";" horiz-adv-x="294" 
d="M119 -127h-126l101 261h161zM249 419c0 -24.667 -8.5 -45.5 -25.5 -62.5s-37.833 -25.5 -62.5 -25.5s-45.5 8.5 -62.5 25.5s-25.5 37.833 -25.5 62.5s8.5 45.5 25.5 62.5s37.833 25.5 62.5 25.5s45.5 -8.5 62.5 -25.5s25.5 -37.833 25.5 -62.5z" />
    <glyph glyph-name="less" unicode="&#x3c;" horiz-adv-x="589" 
d="M544 237v-144l-499 178v138l499 178v-144l-354 -103z" />
    <glyph glyph-name="equal" unicode="=" horiz-adv-x="589" 
d="M544 394h-499v120h499v-120zM544 166h-499v120h499v-120z" />
    <glyph glyph-name="greater" unicode="&#x3e;" horiz-adv-x="589" 
d="M544 271l-499 -178v144l354 103l-354 103v144l499 -178v-138z" />
    <glyph glyph-name="question" unicode="?" horiz-adv-x="458" 
d="M262 236h-133.002l-3 151c102.667 0 154 31.333 154 94c0 24 -7.16699 43.167 -21.5 57.5s-35.5 21.5 -63.5 21.5c-43.333 0 -86.666 -14.333 -129.999 -43v137c40 18.667 91 28 153 28c62.667 0 113.334 -16.5 152.001 -49.5s58 -77.5 58 -133.5
c0 -30 -6 -57.167 -18 -81.5s-27 -43.333 -45 -57s-35.667 -24.167 -53 -31.5s-33 -11 -47 -11zM284.998 83c0 -25.333 -8.83301 -46.833 -26.5 -64.5s-39.167 -26.5 -64.5 -26.5s-46.833 8.83301 -64.5 26.5s-26.5 39.167 -26.5 64.5s8.83301 46.833 26.5 64.5
s39.167 26.5 64.5 26.5s46.833 -8.83301 64.5 -26.5s26.5 -39.167 26.5 -64.5z" />
    <glyph glyph-name="at" unicode="@" horiz-adv-x="977" 
d="M664 -175c-61.333 -27.333 -126.667 -41.001 -196 -41.001c-89.333 0 -167 19.5 -233 58.5s-115 89.5 -147 151.5s-48 130.667 -48 206c0 86 21.667 165.333 65 238s101.666 129.667 174.999 171s153 62 239 62c74.667 0 143.834 -15.333 207.501 -46
s115.5 -76.5 155.5 -137.5s60 -131.167 60 -210.5c0 -78.667 -19.833 -144.5 -59.5 -197.5s-87.5 -79.5 -143.5 -79.5c-78.667 0 -129.667 36.333 -153 109c-13.333 -35.333 -33.5 -62.166 -60.5 -80.499s-57.5 -27.5 -91.5 -27.5c-54 0 -96.667 20.5 -128 61.5
s-47 91.167 -47 150.5c0 69.333 20.333 125.166 61 167.499s88.667 63.5 144 63.5c54 0 94 -24.333 120 -73c2.66699 32.667 4.33398 56.334 5.00098 71.001h116l-1 -20c-8 -120 -12 -187 -12 -201c0 -72 17 -108 51 -108c23.333 0 42.333 13.833 57 41.5
s22 65.167 22 112.5c0 94.667 -28.833 166 -86.5 214s-131.5 72 -221.5 72c-68.667 0 -129.834 -17.167 -183.501 -51.5s-94.167 -78.5 -121.5 -132.5s-41 -111.667 -41 -173c0 -90 28.667 -161.5 86 -214.5s128.333 -79.5 213 -79.5c70 0 137 15.333 201 46z
M475.999 104.999c22.667 0 43.5 8.66992 62.5 26.0029s31.5 41.666 37.5 72.999c0 4 0.166992 10.667 0.5 20s0.5 16 0.5 20c-4 31.333 -14.333 55.166 -31 71.499s-36 24.5 -58 24.5c-28 0 -51.833 -11.667 -71.5 -35s-29.5 -56 -29.5 -98
c0 -30.667 8.83301 -55.334 26.5 -74.001s38.5 -28 62.5 -28z" />
    <glyph glyph-name="A" unicode="A" horiz-adv-x="690" 
d="M269 286l-7.00098 -24h162l-7 24c-19.333 65.333 -35.166 121 -47.499 167s-19.833 75.667 -22.5 89l-4 20c-5.33301 -36.667 -30 -128.667 -74 -276zM183.999 0h-161l225 674h194l225 -674h-165l-41 138h-236z" />
    <glyph glyph-name="B" unicode="B" horiz-adv-x="605" 
d="M356 0l-291 -0.000976562v674h262c74 0 130.333 -17.5 169 -52.5s58 -79.5 58 -133.5c0 -35.333 -9.33301 -66.333 -28 -93s-43 -44.667 -73 -54c78 -23.333 117 -76 117 -158c0 -53.333 -19.167 -97.166 -57.5 -131.499s-90.5 -51.5 -156.5 -51.5zM301 550.999h-82v-151
h57c40 0 70.167 7.33301 90.5 22s30.5 34 30.5 58c0 47.333 -32 71 -96 71zM301 278.999h-82v-156h81c76 0 114 26 114 78s-37.667 78 -113 78z" />
    <glyph glyph-name="C" unicode="C" horiz-adv-x="613" 
d="M563 30c-40.667 -25.333 -99.333 -38.001 -176 -38.001c-98.667 0 -181.167 31.833 -247.5 95.5s-99.5 146.167 -99.5 247.5c0 102.667 32.167 186.334 96.5 251.001s148.166 97 251.499 97c76 0 134.333 -12.667 175 -38v-148c-50 30.667 -105.667 46 -167 46
c-54 0 -99.333 -18.833 -136 -56.5s-55 -88.167 -55 -151.5c0 -62 18.333 -111.167 55 -147.5s84 -54.5 142 -54.5c62.667 0 116.334 16 161.001 48v-151z" />
    <glyph glyph-name="D" unicode="D" horiz-adv-x="683" 
d="M295 0h-229.999v674h232c101.333 0 184.333 -31.167 249 -93.5s97 -139.833 97 -232.5c0 -108 -31.833 -193 -95.5 -255s-147.834 -93 -252.501 -93zM292.001 547l-69 -0.000976562v-421h70c62 0 109.833 19.333 143.5 58s50.5 93.334 50.5 164.001
c0 60 -17 108.167 -51 144.5s-82 54.5 -144 54.5z" />
    <glyph glyph-name="E" unicode="E" horiz-adv-x="544" 
d="M484 0h-419v674h415v-123h-260v-153h232v-122h-232v-153h264v-123z" />
    <glyph glyph-name="F" unicode="F" horiz-adv-x="506" 
d="M443 254h-223v-254h-155v674h411v-123h-256v-174h223v-123z" />
    <glyph glyph-name="G" unicode="G" horiz-adv-x="706" 
d="M646 62c-64 -46.667 -144.668 -69.999 -242.001 -69.999c-108 0 -195.667 31 -263 93s-101 146.333 -101 253c0 105.333 35.167 189.666 105.5 252.999s159.5 95 267.5 95c76 0 141.667 -14 197 -42v-154c-64 36.667 -129.667 55 -197 55
c-63.333 0 -113.666 -18.833 -150.999 -56.5s-56 -87.834 -56 -150.501c0 -63.333 18.333 -113.666 55 -150.999s86.667 -56 150 -56c28.667 0 57 4.33301 85 13v127h-109v131h259v-340z" />
    <glyph glyph-name="H" unicode="H" horiz-adv-x="686" 
d="M621 0h-155v269h-247v-269h-154v674h154v-274h247v274h155v-674z" />
    <glyph glyph-name="I" unicode="I" horiz-adv-x="304" 
d="M229 0h-154v674h154v-674z" />
    <glyph glyph-name="J" unicode="J" horiz-adv-x="392" 
d="M332 204c0 -64.667 -17.1689 -115 -51.502 -151s-82.166 -54 -143.499 -54c-46 0 -81.667 6.66699 -107 20v136c24.667 -15.333 50.334 -23 77.001 -23c47.333 0 71 25.333 71 76v465h154v-469z" />
    <glyph glyph-name="K" unicode="K" horiz-adv-x="662" 
d="M645 0h-193l-226 335l218 339h183l-221 -337zM219 0h-154v674h154v-674z" />
    <glyph glyph-name="L" unicode="L" horiz-adv-x="488" 
d="M468 0h-403v674h154v-539h249v-135z" />
    <glyph glyph-name="M" unicode="M" horiz-adv-x="893" 
d="M204 0l-153.999 -0.000976562l58 674h169l94 -244c16 -40.667 29.667 -78 41 -112s18.666 -58 21.999 -72l5 -20c10.667 44 34 112 70 204l95 244h169l70 -674h-154l-25 261l-13 197c-17.333 -50 -41.333 -115.667 -72 -197l-95 -254h-91l-94 254
c-15.333 41.333 -28.333 78.333 -39 111s-17.667 55.334 -21 68.001l-5 18c0 -47.333 -3 -113 -9 -197z" />
    <glyph glyph-name="N" unicode="N" horiz-adv-x="697" 
d="M219 0h-154.001v674h169l157 -279c22 -39.333 41.167 -76.166 57.5 -110.499s26.833 -58.5 31.5 -72.5l8 -22c-6.66699 49.333 -10 117.666 -10 204.999v279h154v-674h-169l-161 279c-21.333 36 -40.166 71.5 -56.499 106.5s-27.5 60.833 -33.5 77.5l-8 25
c10 -60 15 -129.667 15 -209v-279z" />
    <glyph glyph-name="O" unicode="O" horiz-adv-x="736" 
d="M696 339c0 -103.333 -29.833 -186.833 -89.5 -250.5s-139.167 -95.5 -238.5 -95.5c-100 0 -179.667 31.667 -239 95s-89 147 -89 251c0 103.333 29.833 186.833 89.5 250.5s139.167 95.5 238.5 95.5c100 0 179.667 -31.667 239 -95s89 -147 89 -251zM205 339
c0 -63.333 14.667 -113.5 44 -150.5s69 -55.5 119 -55.5s89.667 18.5 119 55.5s44 87.167 44 150.5s-14.667 113.5 -44 150.5s-69 55.5 -119 55.5s-89.667 -18.5 -119 -55.5s-44 -87.167 -44 -150.5z" />
    <glyph glyph-name="P" unicode="P" horiz-adv-x="563" 
d="M297 218h-78v-218h-154v674h232c74.667 0 135.167 -21 181.5 -63s69.5 -95.333 69.5 -160c0 -74 -24.167 -131.333 -72.5 -172s-107.833 -61 -178.5 -61zM279 551h-60v-211h51c81.333 0 122 37 122 111c0 66.667 -37.667 100 -113 100z" />
    <glyph glyph-name="Q" unicode="Q" horiz-adv-x="741" 
d="M696 339c0 -70.667 -14.332 -132.666 -42.999 -185.999s-69 -94 -121 -122l206 -115l-175 -67l-199 144c-98.667 0.666992 -177.334 32.667 -236.001 96s-88 146.666 -88 249.999s29.833 186.833 89.5 250.5s139.167 95.5 238.5 95.5c100 0 179.667 -31.667 239 -95
s89 -147 89 -251zM205.001 339.001c0 -63.333 14.667 -113.5 44 -150.5s69 -55.5 119 -55.5s89.667 18.5 119 55.5s44 87.167 44 150.5s-14.667 113.5 -44 150.5s-69 55.5 -119 55.5s-89.667 -18.5 -119 -55.5s-44 -87.167 -44 -150.5z" />
    <glyph glyph-name="R" unicode="R" horiz-adv-x="614" 
d="M295 549h-76v-190h73c66.667 0 100 32.667 100 98c0 28.667 -8.66699 51.167 -26 67.5s-41 24.5 -71 24.5zM219 0h-154v674h233c75.333 0 135.833 -20 181.5 -60s68.5 -92 68.5 -156c0 -96 -41 -162.333 -123 -199l171 -259h-184l-146 234h-47v-234z" />
    <glyph glyph-name="S" unicode="S" horiz-adv-x="514" 
d="M484 196c0 -60.667 -22.335 -109.832 -67.002 -147.499s-104 -56.5 -178 -56.5c-79.333 0 -144 14 -194 42v155c60.667 -44 125.334 -66 194.001 -66c23.333 0 42.666 6.16699 57.999 18.5s23 28.5 23 48.5c0 6.66699 -1 13 -3 19s-5.66699 11.667 -11 17
s-10.5 9.83301 -15.5 13.5s-12.333 8 -22 13l-24.5 12.5c-6.66699 3.33301 -16.5 8 -29.5 14s-23.5 10.667 -31.5 14c-43.333 20 -78.166 44.667 -104.499 74s-39.5 68.333 -39.5 117c0 58 21.333 104.833 64 140.5s101.667 53.5 177 53.5c67.333 0 125.333 -11.333 174 -34
v-144c-54 31.333 -110 47 -168 47c-26 0 -45.833 -5.33301 -59.5 -16s-20.5 -24.334 -20.5 -41.001s8.33301 -31.5 25 -44.5s41.667 -26.833 75 -41.5c20.667 -9.33301 37.834 -17.5 51.501 -24.5s29.334 -16.667 47.001 -29s31.667 -25.333 42 -39
s19.166 -30.5 26.499 -50.5s11 -41.667 11 -65z" />
    <glyph glyph-name="T" unicode="T" horiz-adv-x="544" 
d="M514 550h-164v-550h-155v550h-165v124h484v-124z" />
    <glyph glyph-name="U" unicode="U" horiz-adv-x="668" 
d="M608 261c0 -88 -24.667 -155.167 -74 -201.5s-116 -69.5 -200 -69.5c-82.667 0 -149 23 -199 69s-75 111 -75 195v420h154v-419c0 -83.333 40 -125 120 -125s120 43.333 120 130v414h154v-413z" />
    <glyph glyph-name="V" unicode="V" horiz-adv-x="659" 
d="M413 0h-170.002l-224 674h166l81 -269c14.667 -48 27.334 -94.167 38.001 -138.5s17.667 -76.5 21 -96.5l5 -31c10.667 69.333 32.334 158 65.001 266l81 269h164z" />
    <glyph glyph-name="W" unicode="W" horiz-adv-x="971" 
d="M372 0l-172.001 0.000976562l-181 674h162l62 -248c13.333 -53.333 24.333 -101.5 33 -144.5s14 -72.833 16 -89.5l4 -24c11.333 52 34 138 68 258l67 238h114l66 -238c14 -50 26.5 -96.5 37.5 -139.5s18.5 -73.5 22.5 -91.5l6 -27
c8.66699 59.333 27.334 145.666 56.001 258.999l62 247h157l-180 -674h-172l-59 213l-34.5 130c-9 35.333 -14.5 58 -16.5 68l-2 15c-2 -27.333 -20 -98.333 -54 -213z" />
    <glyph glyph-name="X" unicode="X" horiz-adv-x="663" 
d="M213 0h-186l213 342l-203 332h179l112 -197l107 197h188l-204 -333l217 -341h-183l-122 210z" />
    <glyph glyph-name="Y" unicode="Y" horiz-adv-x="643" 
d="M397 0h-154v247l-230 427h180l41 -98l53 -130l27 -70l5 -16c6.66699 30 36 102 88 216l44 98h179l-233 -426v-248z" />
    <glyph glyph-name="Z" unicode="Z" horiz-adv-x="621" 
d="M561 0h-501v113l302 437h-296v124h483v-109l-304 -441h316v-124z" />
    <glyph glyph-name="bracketleft" unicode="[" horiz-adv-x="363" 
d="M348 -196h-283v903h283v-127h-145v-648h145v-128z" />
    <glyph glyph-name="backslash" unicode="\" horiz-adv-x="464" 
d="M466 -103h-151l-360 810h152z" />
    <glyph glyph-name="bracketright" unicode="]" horiz-adv-x="363" 
d="M298 -196h-283v128h145v648h-145v127h283v-903z" />
    <glyph glyph-name="asciicircum" unicode="^" horiz-adv-x="491" 
d="M168 332h-135l151 262h123l151 -262h-135l-77 146z" />
    <glyph glyph-name="underscore" unicode="_" horiz-adv-x="546" 
d="M526 -166h-506v121h506v-121z" />
    <glyph glyph-name="grave" unicode="`" horiz-adv-x="500" 
d="M366 621h-121l-111 177h146z" />
    <glyph glyph-name="a" unicode="a" horiz-adv-x="516" 
d="M246 100c20.667 0 36.667 6.33398 48 19.001s17 30 17 52v37h-47c-24.667 0 -43.667 -5.33301 -57 -16s-20 -24.334 -20 -41.001c0 -34 19.667 -51 59 -51zM318 62.001c-21.333 -43.333 -63.332 -65 -125.999 -65c-49.333 0 -87.833 14 -115.5 42s-41.5 63 -41.5 105
c0 48.667 17.833 86.5 53.5 113.5s88.5 40.5 158.5 40.5h64v35c0 42.667 -28.333 64 -85 64c-54.667 0 -105.334 -15.333 -152.001 -46v131c40 22.667 97.667 34 173 34c72 0 125.667 -15.5 161 -46.5s53 -79.167 53 -144.5v-325h-143v62z" />
    <glyph glyph-name="b" unicode="b" horiz-adv-x="611" 
d="M206 0l-145.999 -0.000976562v707h146v-278c34.667 56 85 84 151 84c63.333 0 115.666 -23 156.999 -69s62 -109 62 -189c0 -71.333 -19.833 -132.666 -59.5 -183.999s-92.5 -77 -158.5 -77c-67.333 0 -118 28.333 -152 85v-79zM206.001 258.999
c0 -43.333 10.333 -78 31 -104s47.667 -39 81 -39c30.667 0 56.667 12.5 78 37.5s32 57.833 32 98.5c0 44 -10.5 78.333 -31.5 103s-46.833 37 -77.5 37s-57.167 -11.667 -79.5 -35s-33.5 -56 -33.5 -98z" />
    <glyph glyph-name="c" unicode="c" horiz-adv-x="469" 
d="M439 24c-39.333 -21.333 -86.667 -31.999 -142 -31.999c-76 0 -138.667 24.167 -188 72.5s-74 110.833 -74 187.5c1.33301 76 26 138.833 74 188.5s113.667 74.5 197 74.5c51.333 0 95.666 -9.66699 132.999 -29v-125c-35.333 22 -74.666 33 -117.999 33
c-40.667 0 -73.667 -12.167 -99 -36.5s-38.333 -59.5 -39 -105.5c2.66699 -44.667 16 -79.334 40 -104.001s55.667 -37 95 -37c42 0 82.333 11.667 121 35v-122z" />
    <glyph glyph-name="d" unicode="d" horiz-adv-x="611" 
d="M183 252c0 -40.667 10.667 -73.5 32 -98.5s47.333 -37.5 78 -37.5c33.333 0 60.333 13 81 39s31 60.667 31 104c0 42 -11.167 74.667 -33.5 98s-48.833 35 -79.5 35s-56.5 -12.333 -77.5 -37s-31.5 -59 -31.5 -103zM551 0l-145.999 0.000976562v79
c-34 -56.667 -84.667 -85 -152 -85c-66 0 -118.833 25.667 -158.5 77s-59.5 112.666 -59.5 183.999c0 80 20.667 143 62 189s93.666 69 156.999 69c66 0 116.333 -28 151 -84v278h146v-707z" />
    <glyph glyph-name="e" unicode="e" horiz-adv-x="533" 
d="M458 29c-34.667 -22.667 -87.6689 -34.001 -159.002 -34.001c-83.333 0 -148.166 24.167 -194.499 72.5s-69.5 110.5 -69.5 186.5c0 80.667 22.5 143.834 67.5 189.501s100.5 68.5 166.5 68.5c68 0 121.667 -19.833 161 -59.5s59 -98.834 59 -177.501
c0 -15.333 -2.66699 -41.666 -8 -78.999h-298c10 -28 27.333 -49.667 52 -65s54.334 -23 89.001 -23c51.333 0 96 14.333 134 43v-122zM274.998 400.999c-23.333 0 -44 -8.5 -62 -25.5s-30 -42.167 -36 -75.5h176v12c-4.66699 59.333 -30.667 89 -78 89z" />
    <glyph glyph-name="f" unicode="f" horiz-adv-x="346" 
d="M336 400h-94.999v-400h-145v400h-66v107h66v19c0 61.333 17.167 109 51.5 143s81.833 51 142.5 51c31.333 0 56.666 -3.33301 75.999 -10v-118c-18.667 7.33301 -36 11 -52 11c-24.667 0 -43 -5.66699 -55 -17s-18 -31.333 -18 -60v-19h95v-107z" />
    <glyph glyph-name="g" unicode="g" horiz-adv-x="585" 
d="M530 49c0 -81.333 -24.334 -142.499 -73.001 -183.499s-109.667 -61.5 -183 -61.5c-71.333 0 -133.666 12.667 -186.999 38v149c46.667 -37.333 104 -56 172 -56c44 0 76 9.33301 96 28s30 48 30 88v34c-29.333 -45.333 -76 -68 -140 -68
c-56 0 -104.167 20.667 -144.5 62s-60.5 102.666 -60.5 183.999c0 72 19.5 131.5 58.5 178.5s90.167 70.5 153.5 70.5c60 0 104.333 -24 133 -72v67h145v-458zM191.999 262.001c0 -42 8 -74 24 -96s39 -33 69 -33c31.333 0 55.833 11.833 73.5 35.5s26.5 52.167 26.5 85.5
c0 90.667 -33 136 -99 136c-29.333 0 -52.333 -11.333 -69 -34s-25 -54 -25 -94z" />
    <glyph glyph-name="h" unicode="h" horiz-adv-x="580" 
d="M525 0l-145.999 -0.000976562v300c0 29.333 -7.33301 52.333 -22 69s-33.667 25 -57 25c-10 0 -19.5 -1.5 -28.5 -4.5s-18.833 -8.33301 -29.5 -16s-19.334 -20.667 -26.001 -39s-10 -40.5 -10 -66.5v-268h-146v707h146v-286c26 60.667 76.667 91 152 91
c49.333 0 89.5 -15.667 120.5 -47s46.5 -78.666 46.5 -141.999v-323z" />
    <glyph glyph-name="i" unicode="i" horiz-adv-x="276" 
d="M211 0h-146v507h146v-507zM223 654c0 -23.333 -8.33301 -43.333 -25 -60s-36.667 -25 -60 -25s-43.333 8.33301 -60 25s-25 36.667 -25 60s8.33301 43.333 25 60s36.667 25 60 25s43.333 -8.33301 60 -25s25 -36.667 25 -60z" />
    <glyph glyph-name="j" unicode="j" horiz-adv-x="274" 
d="M214 -21c0 -53.333 -15.001 -96.167 -45.001 -128.5s-73.333 -48.5 -130 -48.5c-23.333 0 -49.666 5.33301 -78.999 16v111c22 -10 41 -15 57 -15c34.667 0 52 22.333 52 67v526h145v-528zM225.999 653.999c0 -23.333 -8.33301 -43.333 -25 -60s-36.667 -25 -60 -25
s-43.333 8.33301 -60 25s-25 36.667 -25 60s8.33301 43.333 25 60s36.667 25 60 25s43.333 -8.33301 60 -25s25 -36.667 25 -60z" />
    <glyph glyph-name="k" unicode="k" horiz-adv-x="548" 
d="M206 0h-146v690h146v-410l160 227h168l-176 -243l179 -264h-169l-162 249v-249z" />
    <glyph glyph-name="l" unicode="l" horiz-adv-x="276" 
d="M211 0h-146v707h146v-707z" />
    <glyph glyph-name="m" unicode="m" horiz-adv-x="859" 
d="M804 0l-145.999 -0.00390625v301c0 28.667 -5.66699 51.334 -17 68.001s-27.666 25 -48.999 25c-22.667 0 -42.834 -9.16699 -60.501 -27.5s-26.5 -51.166 -26.5 -98.499v-268h-146v301c0 28.667 -5.66699 51.334 -17 68.001s-27.666 25 -48.999 25
c-22.667 0 -42.834 -9.16699 -60.501 -27.5s-26.5 -51.166 -26.5 -98.499v-268h-146v507h146v-79c28 56 75.667 84 143 84c71.333 0 118.666 -32 141.999 -96c11.333 30 30.333 53.5 57 70.5s58 25.5 94 25.5c50 0 89.5 -15.833 118.5 -47.5s43.5 -78.167 43.5 -139.5v-325z
" />
    <glyph glyph-name="n" unicode="n" horiz-adv-x="580" 
d="M525 0h-145.999v302c0 30 -7 52.833 -21 68.5s-33.667 23.5 -59 23.5c-26.667 0 -48.834 -10.5 -66.501 -31.5s-26.5 -52.5 -26.5 -94.5v-268h-146v507h146v-86c12.667 28 32.167 50.167 58.5 66.5s57.833 24.5 94.5 24.5c52 0 92.667 -15.5 122 -46.5
s44 -76.5 44 -136.5v-329z" />
    <glyph glyph-name="o" unicode="o" horiz-adv-x="567" 
d="M532 256c0 -76.667 -21.833 -139.834 -65.5 -189.501s-104.5 -74.5 -182.5 -74.5c-79.333 0 -140.666 23.833 -183.999 71.5s-65 108.834 -65 183.501c0 78 22.667 142.167 68 192.5s105.666 75.5 180.999 75.5c78.667 0 139.667 -24.333 183 -73s65 -110.667 65 -186z
M187 253c0 -43.333 8.16699 -78.834 24.5 -106.501s40.833 -41.5 73.5 -41.5c32 0 55.833 13.5 71.5 40.5s23.5 62.167 23.5 105.5c0 99.333 -32.333 149 -97 149c-32 0 -56 -13.667 -72 -41s-24 -62.666 -24 -105.999z" />
    <glyph glyph-name="p" unicode="p" horiz-adv-x="611" 
d="M206 -187l-146 -0.00195312v694h146v-78c35.333 56 86.333 84 153 84c65.333 0 117.833 -23.167 157.5 -69.5s59.5 -109.166 59.5 -188.499c0 -75.333 -19.167 -137.666 -57.5 -186.999s-91.5 -74 -159.5 -74c-68.667 0 -119.667 27 -153 81v-262zM206 258.998
c0 -43.333 10.668 -78 32.001 -104s48.666 -39 81.999 -39c32 0 58 12.167 78 36.5s30 57.5 30 99.5c0 46 -10.167 80.833 -30.5 104.5s-46.166 35.5 -77.499 35.5c-30.667 0 -57.334 -11.667 -80.001 -35s-34 -56 -34 -98z" />
    <glyph glyph-name="q" unicode="q" horiz-adv-x="611" 
d="M183 252c0 -40.667 10.667 -73.5 32 -98.5s47.333 -37.5 78 -37.5c33.333 0 60.333 13 81 39s31 60.667 31 104c0 42 -11.167 74.667 -33.5 98s-48.833 35 -79.5 35s-56.5 -12.333 -77.5 -37s-31.5 -59 -31.5 -103zM551 -187l-146 0.00195312v266
c-34 -56.667 -84.667 -85 -152 -85c-68 0 -121.333 24.667 -160 74s-58 111.666 -58 186.999c0 79.333 20 142.166 60 188.499s93 69.5 159 69.5s116.333 -28 151 -84v78h146v-694z" />
    <glyph glyph-name="r" unicode="r" horiz-adv-x="370" 
d="M205 0h-146.002l1 507h145v-94c9.33301 29.333 24.833 52.833 46.5 70.5s46.834 26.5 75.501 26.5c16 0 28.667 -1.33301 38 -4v-138c-16 7.33301 -34.333 11 -55 11c-31.333 0 -56.666 -11.5 -75.999 -34.5s-29 -53.5 -29 -91.5v-253z" />
    <glyph glyph-name="s" unicode="s" horiz-adv-x="436" 
d="M406 153c0 -50 -18.002 -88.6641 -54.002 -115.997s-83.667 -41 -143 -41c-61.333 0 -112.666 10.333 -153.999 31v130c46 -32 94.667 -48 146 -48c36.667 0 55 11.667 55 35c0 6 -1.66699 11.667 -5 17s-9 10.333 -17 15s-15.333 8.5 -22 11.5l-29 12.5
c-12.667 5.33301 -22.334 9.66602 -29.001 12.999c-67.333 32 -101 80 -101 144c0 49.333 18.833 87.666 56.5 114.999s84.5 41 140.5 41c52 0 95.333 -7 130 -21v-125c-35.333 20.667 -76.666 31 -123.999 31c-17.333 0 -30.666 -3.5 -39.999 -10.5s-14 -15.833 -14 -26.5
c0 -6 1.66699 -11.667 5 -17s8.83301 -10.333 16.5 -15s15 -8.83398 22 -12.501s16.667 -8.16699 29 -13.5s22.166 -10 29.499 -14c30.667 -16 55.334 -34.5 74.001 -55.5s28 -47.833 28 -80.5z" />
    <glyph glyph-name="t" unicode="t" horiz-adv-x="386" 
d="M356 11c-24.667 -10.667 -58.001 -16 -100.001 -16c-115.333 0 -173 57.667 -173 173v232h-73v107h73v120h146v-120h118v-107h-118v-233c0 -18 5.16699 -31.667 15.5 -41s23.833 -14 40.5 -14c26.667 0 50.334 6.66699 71.001 20v-121z" />
    <glyph glyph-name="u" unicode="u" horiz-adv-x="580" 
d="M520 0h-146v81c-26.667 -56.667 -78 -85 -154 -85c-52 0 -92.5 14.5 -121.5 43.5s-43.5 71.833 -43.5 128.5v339h146v-306c0 -59.333 26 -89 78 -89c63.333 0 95 42.333 95 127v268h146v-507z" />
    <glyph glyph-name="v" unicode="v" horiz-adv-x="536" 
d="M342 0l-150 0.000976562l-187 507h153l66 -216c10 -33.333 18.667 -64.833 26 -94.5s12 -51.167 14 -64.5l4 -19c6 43.333 21 102.666 45 177.999l68 216h150z" />
    <glyph glyph-name="w" unicode="w" horiz-adv-x="806" 
d="M318 0l-150 0.00585938l-163 507h151l44 -167c10.667 -42 19.667 -79.833 27 -113.5s11.666 -56.834 12.999 -69.501l3 -19c4.66699 40 21 107.333 49 202l49 167h126l48 -167c12 -42.667 22 -80.834 30 -114.501s13 -56.834 15 -69.501l3 -18
c4.66699 39.333 20.334 106.666 47.001 201.999l47 167h144l-162 -507h-150l-44 166c-9.33301 36 -17.5 69.667 -24.5 101s-11.5 53.666 -13.5 66.999l-3 20c-6.66699 -44.667 -20.667 -107.334 -42 -188.001z" />
    <glyph glyph-name="x" unicode="x" horiz-adv-x="526" 
d="M174 0h-158l181 254l-170 253h162l82 -151l91 151h160l-182 -254l169 -253h-159l-85 152z" />
    <glyph glyph-name="y" unicode="y" horiz-adv-x="532" 
d="M344 15c-52.667 -142 -132.999 -213.001 -240.999 -213.001c-20.667 0 -39.334 1.66699 -56.001 5v116c10.667 -2.66699 22 -4 34 -4c55.333 0 95.333 29.667 120 89l-196 499h159l55 -158c14 -40.667 25.5 -75.667 34.5 -105s14.5 -48.666 16.5 -57.999l3 -14
c7.33301 26.667 25.333 85.667 54 177l50 158h150z" />
    <glyph glyph-name="z" unicode="z" horiz-adv-x="479" 
d="M439 0h-399v105l222 290h-213v112h378v-101l-222 -293h234v-113z" />
    <glyph glyph-name="braceleft" unicode="{" horiz-adv-x="380" 
d="M355 -194c-23.333 -8 -45.333 -11.998 -66 -11.998c-46.667 0 -84.834 17 -114.501 51s-44.5 77 -44.5 129c0 14.667 2 34.667 6 60s6 43.333 6 54c0 25.333 -7.66699 47.833 -23 67.5s-36 29.5 -62 29.5l-17 -1v141h17c26 0 46.667 9.66699 62 29s23 41.666 23 66.999
c0 10.667 -2 28.667 -6 54s-6 45.333 -6 60c0 52 14.833 95 44.5 129s67.834 51 114.501 51c20.667 0 42.667 -4 66 -12v-135c-10 6 -20.333 9 -31 9c-14 0 -26 -5.16699 -36 -15.5s-15 -23.5 -15 -39.5c0 -8 2 -25.167 6 -51.5s6 -47.5 6 -63.5
c0 -40.667 -11.5 -75.167 -34.5 -103.5s-50.167 -44.5 -81.5 -48.5c31.333 -4 58.5 -20.333 81.5 -49s34.5 -63.334 34.5 -104.001c0 -16 -2 -37.167 -6 -63.5s-6 -43.5 -6 -51.5c0 -16 5 -29.167 15 -39.5s22 -15.5 36 -15.5c10.667 0 21 3 31 9v-135z" />
    <glyph glyph-name="bar" unicode="|" horiz-adv-x="280" 
d="M210 -194h-140v889h140v-889z" />
    <glyph glyph-name="braceright" unicode="}" horiz-adv-x="380" 
d="M250 -26c0 -52 -14.832 -95.002 -44.499 -129.002s-67.834 -51 -114.501 -51c-20.667 0 -42.667 4 -66 12v135c10 -6 20.333 -9 31 -9c14 0 26 5.16699 36 15.5s15 23.5 15 39.5c0 8 -2 25.167 -6 51.5s-6 47.5 -6 63.5c0 40.667 11.5 75.334 34.5 104.001
s50.167 45 81.5 49c-31.333 4 -58.5 20.167 -81.5 48.5s-34.5 62.833 -34.5 103.5c0 16 2 37.167 6 63.5s6 43.5 6 51.5c0 16 -5 29.167 -15 39.5s-22 15.5 -36 15.5c-10.667 0 -21 -3 -31 -9v135c23.333 8 45.333 12 66 12c46.667 0 84.834 -17 114.501 -51
s44.5 -77 44.5 -129c0 -14.667 -2 -34.667 -6 -60s-6 -43.333 -6 -54c0 -25.333 7.66699 -47.666 23 -66.999s36 -29 62 -29h17v-141c-4.66699 0.666992 -10.334 1 -17.001 1c-26 0 -46.667 -9.83301 -62 -29.5s-23 -42.167 -23 -67.5c0 -10.667 2 -28.667 6 -54
s6 -45.333 6 -60z" />
    <glyph glyph-name="asciitilde" unicode="~" horiz-adv-x="654" 
d="M232 238c-22 0 -40.333 -4.66699 -55 -14s-30.667 -24 -48 -44l-101 80c20.667 29.333 46 54.833 76 76.5s62 32.5 96 32.5c44 0 87.833 -8.16699 131.5 -24.5s73.5 -24.5 89.5 -24.5c22 0 40.333 4.66699 55 14s30.667 24.333 48 45l101 -81
c-51.333 -72.667 -109 -109 -173 -109c-38 0 -78.5 8.16699 -121.5 24.5s-75.833 24.5 -98.5 24.5z" />
    <glyph glyph-name="exclamdown" unicode="&#xa1;" horiz-adv-x="289" 
d="M214 -165h-139v438h139v-438zM234 426c0 -25.333 -8.83301 -46.833 -26.5 -64.5s-39.167 -26.5 -64.5 -26.5s-46.833 8.83301 -64.5 26.5s-26.5 39.167 -26.5 64.5s8.83301 46.833 26.5 64.5s39.167 26.5 64.5 26.5s46.833 -8.83301 64.5 -26.5s26.5 -39.167 26.5 -64.5z
" />
    <glyph glyph-name="cent" unicode="&#xa2;" horiz-adv-x="478" 
d="M438 24c-23.333 -12 -49.668 -20.6689 -79.001 -26.002v-109h-121v108c-61.333 12 -111.333 41 -150 87s-58 102 -58 168c1.33301 64.667 20.166 120.334 56.499 167.001s86.5 76.334 150.5 89.001v112h122v-110c28.667 -5.33301 55 -14.333 79 -27v-122
c-35.333 22 -74.666 33 -117.999 33c-41.333 0 -75.166 -12.333 -101.499 -37s-39.833 -59.667 -40.5 -105c2.66699 -44 16.5 -78.5 41.5 -103.5s57.5 -37.5 97.5 -37.5c42 0 82.333 11.667 121 35v-122z" />
    <glyph glyph-name="sterling" unicode="&#xa3;" horiz-adv-x="540" 
d="M507 0l-461.999 0.00292969v121c48.667 25.333 73 68.666 73 129.999v16h-74v106h60c-2 16 -3 31.667 -3 47c0 75.333 19.667 134.166 59 176.499s97.666 63.5 174.999 63.5c56.667 0 102.334 -10.667 137.001 -32v-138c-30.667 22 -65.334 33 -104.001 33
c-70 0 -105 -36.333 -105 -109c0 -8.66699 0.666992 -22.334 2 -41.001h166v-106h-155v-17c0 -58.667 -20.333 -101 -61 -127h292v-123z" />
    <glyph glyph-name="currency" unicode="&#xa4;" horiz-adv-x="571" 
d="M171 117l-58 -57.001l-85 82l59 57c-19.333 34.667 -29 72 -29 112c0 39.333 9.33301 76 28 110l-58 57l85 82l58 -57c34 18.667 72.333 28 115 28c41.333 0 79.333 -9 114 -27l58 56l85 -82l-58 -57c19.333 -35.333 29 -72 29 -110c0 -39.333 -10 -76.666 -30 -111.999
l59 -57l-85 -82l-59 56c-33.333 -17.333 -71 -26 -113 -26c-42.667 0 -81 9 -115 27zM180 310.999c0 -29.333 10 -54.5 30 -75.5s45.333 -31.5 76 -31.5s56 10.5 76 31.5s30 46.167 30 75.5s-10 54.5 -30 75.5s-45.333 31.5 -76 31.5s-56 -10.5 -76 -31.5
s-30 -46.167 -30 -75.5z" />
    <glyph glyph-name="yen" unicode="&#xa5;" horiz-adv-x="635" 
d="M568 117h-175v-117h-154v117h-173v90h173v45l-11 19h-162v90h111l-168 294h180l126 -246l132 246h179l-170 -294h112v-90h-164l-11 -19v-45h175v-90z" />
    <glyph glyph-name="brokenbar" unicode="&#xa6;" horiz-adv-x="280" 
d="M210 369h-140v338h140v-338zM210 -117h-140v338h140v-338z" />
    <glyph glyph-name="section" unicode="&#xa7;" horiz-adv-x="599" 
d="M324 192c22 -9.33301 39 -17.3359 51 -24.0029c5.33301 10.667 8 21.334 8 32.001c0 9.33301 -1.83301 17.833 -5.5 25.5s-8 14.334 -13 20.001s-13 11.834 -24 18.501s-20.833 12.167 -29.5 16.5l-39 19.5l-44 22l-12 6c-7.33301 -12.667 -11 -25 -11 -37
c0 -18.667 8.66699 -35 26 -49s48.333 -30.667 93 -50zM531 196.997c0 -43.333 -14.001 -81.665 -42.001 -114.998c20.667 -27.333 31 -57.333 31 -90c0 -55.333 -21.5 -99 -64.5 -131s-101.5 -48 -175.5 -48c-79.333 0 -144 14 -194 42v155
c60.667 -44 125.334 -66 194.001 -66c54.667 0 82 16 82 48c0 17.333 -10 32.5 -30 45.5s-71.333 37.5 -154 73.5c-80.667 36 -121 97 -121 183c0 41.333 15.333 80.333 46 117c-20 25.333 -30 54.666 -30 87.999c0 54.667 20.5 98.5 61.5 131.5s97.833 49.5 170.5 49.5
c65.333 0 123.333 -11.667 174 -35v-144c-55.333 32 -111.333 48 -168 48c-51.333 0 -77 -16.333 -77 -49c0 -5.33301 0.833008 -10.333 2.5 -15s5 -9.16699 10 -13.5s10 -8.33301 15 -12s12.667 -8.33398 23 -14.001l29 -15.5l37.5 -19c16 -8 30.667 -15.667 44 -23
c46 -24 80.167 -50 102.5 -78s33.5 -65.667 33.5 -113z" />
    <glyph glyph-name="dieresis" unicode="&#xa8;" horiz-adv-x="500" 
d="M467 710c0 -23.333 -8 -42.833 -24 -58.5s-35.667 -23.5 -59 -23.5c-24 0 -43.833 7.83301 -59.5 23.5s-23.5 35.167 -23.5 58.5c0 22.667 7.83301 41.834 23.5 57.501s35.5 23.5 59.5 23.5c23.333 0 43 -7.83301 59 -23.5s24 -34.834 24 -57.501zM198 710
c0 -23.333 -7.83301 -42.833 -23.5 -58.5s-35.167 -23.5 -58.5 -23.5c-24 0 -43.833 7.83301 -59.5 23.5s-23.5 35.167 -23.5 58.5c0 22.667 7.83301 41.834 23.5 57.501s35.5 23.5 59.5 23.5c23.333 0 42.833 -7.83301 58.5 -23.5s23.5 -34.834 23.5 -57.501z" />
    <glyph glyph-name="copyright" unicode="&#xa9;" horiz-adv-x="761" 
d="M487 192c-26 -14 -58 -20.999 -96 -20.999c-46 0 -85.833 15.333 -119.5 46s-50.5 70.667 -50.5 120c0.666992 50 16.834 90.667 48.501 122s74.167 47 127.5 47c32.667 0 62.667 -7.33301 90 -22v-94c-23.333 14.667 -50 22 -80 22
c-18.667 0 -35.334 -6.33301 -50.001 -19s-22.334 -31.334 -23.001 -56.001c1.33301 -23.333 8.83301 -41.5 22.5 -54.5s29.834 -19.5 48.501 -19.5c28.667 0 56 8 82 24v-95zM726 338.001c0 -95.333 -33.667 -176.831 -101 -244.498s-148.666 -101.5 -243.999 -101.5
s-176.833 33.833 -244.5 101.5s-101.5 149.167 -101.5 244.5s33.833 176.666 101.5 243.999s149.167 101 244.5 101s176.666 -33.833 243.999 -101.5s101 -148.834 101 -243.501zM132 337.003c0 -72.667 23.5 -132.334 70.5 -179.001s106.5 -70 178.5 -70
c71.333 0 130.5 23.333 177.5 70s70.5 106.334 70.5 179.001c0 71.333 -23.5 130.5 -70.5 177.5s-106.167 70.5 -177.5 70.5c-72 0 -131.5 -23.5 -178.5 -70.5s-70.5 -106.167 -70.5 -177.5z" />
    <glyph glyph-name="ordfeminine" unicode="&#xaa;" horiz-adv-x="400" 
d="M189 476c16.667 0 30 5.5 40 16.5s15 25.5 15 43.5v32h-41c-20.667 0 -36.667 -4.5 -48 -13.5s-17 -20.833 -17 -35.5c0 -28.667 17 -43 51 -43zM250 444c-17.333 -36.667 -53.334 -55 -108.001 -55c-41.333 0 -73.666 11.667 -96.999 35s-35 53.333 -35 90
c0 40.667 15 72.667 45 96s74.667 35 134 35h55v28c0 36 -24.333 54 -73 54c-46 0 -89 -12.667 -129 -38v111c34.667 18.667 83.667 28 147 28c61.333 0 106.833 -13 136.5 -39s44.5 -66.333 44.5 -121v-276h-120v52z" />
    <glyph glyph-name="guillemotleft" unicode="&#xab;" horiz-adv-x="592" 
d="M404 253l146 -162h-152l-152 162l152 162h152zM330 91h-152l-152 162l152 162h152l-146 -162z" />
    <glyph glyph-name="logicalnot" unicode="&#xac;" horiz-adv-x="603" 
d="M558 136h-120v165h-393v116h513v-281z" />
    <glyph glyph-name="uni00AD" unicode="&#xad;" horiz-adv-x="357" 
d="M312 202h-267v120h267v-120z" />
    <glyph glyph-name="registered" unicode="&#xae;" horiz-adv-x="492" 
d="M228 440h-54v237h70c60.667 0 91 -25 91 -75c0 -32 -12.667 -54 -38 -66l60 -96h-66l-50 86h-13v-86zM246 632h-18v-61h22c8.66699 0 15.5 3 20.5 9s7.5 13.333 7.5 22c0 20 -10.667 30 -32 30zM482 551c0 -68 -22.333 -124.001 -67 -168.001s-101 -66 -169 -66
c-68.667 0 -125.167 21.833 -169.5 65.5s-66.5 99.834 -66.5 168.501s22.167 125 66.5 169s100.833 66 169.5 66c68 0 124.333 -22.167 169 -66.5s67 -100.5 67 -168.5zM72 550.999c0 -52.667 15.833 -95 47.5 -127s74.167 -48 127.5 -48c52.667 0 94.834 16 126.501 48
s47.5 74.333 47.5 127s-15.833 95.334 -47.5 128.001s-73.834 49 -126.501 49c-53.333 0 -95.833 -16.333 -127.5 -49s-47.5 -75.334 -47.5 -128.001z" />
    <glyph glyph-name="macron" unicode="&#xaf;" horiz-adv-x="500" 
d="M428 651h-356v99h356v-99z" />
    <glyph glyph-name="degree" unicode="&#xb0;" horiz-adv-x="440" 
d="M410 495c0 -52.667 -18.5 -97.5 -55.5 -134.5s-81.833 -55.5 -134.5 -55.5s-97.5 18.5 -134.5 55.5s-55.5 81.833 -55.5 134.5s18.5 97.5 55.5 134.5s81.833 55.5 134.5 55.5s97.5 -18.5 134.5 -55.5s55.5 -81.833 55.5 -134.5zM132 495c0 -24 8.66699 -44.667 26 -62
s38 -26 62 -26s44.667 8.66699 62 26s26 38 26 62s-8.66699 44.667 -26 62s-38 26 -62 26s-44.667 -8.66699 -62 -26s-26 -38 -26 -62z" />
    <glyph glyph-name="plusminus" unicode="&#xb1;" horiz-adv-x="589" 
d="M544 326h-183v-140h-134v140h-182v120h182v139h134v-139h183v-120zM544 28h-499v120h499v-120z" />
    <glyph glyph-name="twosuperior" unicode="&#xb2;" horiz-adv-x="365" 
d="M330 392l-295 0.000976562v77c48 34.667 88.333 70.667 121 108s49 70.666 49 99.999c0 34 -20.333 51 -61 51c-31.333 0 -64.333 -12.333 -99 -37v105c34.667 22 73.667 33 117 33c46 0 83.167 -12.167 111.5 -36.5s42.5 -57.833 42.5 -100.5
c0 -76.667 -49.333 -146.667 -148 -210h162v-90z" />
    <glyph glyph-name="threesuperior" unicode="&#xb3;" horiz-adv-x="353" 
d="M318 510c0 -36.667 -13.833 -66.1689 -41.5 -88.502s-64.834 -33.5 -111.501 -33.5c-53.333 0 -96.666 9 -129.999 27v94c38 -20 75.667 -30 113 -30c18.667 0 33.5 4.33301 44.5 13s16.5 19.334 16.5 32.001c0 27.333 -28.333 41 -85 41h-15v89h14
c51.333 0 77 13.667 77 41s-17.333 41 -52 41c-34 0 -66.333 -11.667 -97 -35v101c31.333 18 67 27 107 27c47.333 0 84.666 -11.167 111.999 -33.5s41 -51.5 41 -87.5c0 -26 -7.16699 -47.5 -21.5 -64.5s-34.166 -28.167 -59.499 -33.5
c25.333 -2.66699 46.333 -12.667 63 -30s25 -40.666 25 -69.999z" />
    <glyph glyph-name="acute" unicode="&#xb4;" horiz-adv-x="500" 
d="M255 621h-121l86 177h146z" />
    <glyph glyph-name="uni00B5" unicode="&#xb5;" horiz-adv-x="585" 
d="M206 -180h-145.999v687h146v-306c0 -28.667 8.33301 -50.667 25 -66s37.667 -23 63 -23c29.333 0 50.833 9.5 64.5 28.5s20.5 51.833 20.5 98.5v268h146v-507h-146v60c-22.667 -42.667 -57.334 -64 -104.001 -64c-24 0 -47 4.66699 -69 14v-190z" />
    <glyph glyph-name="paragraph" unicode="&#xb6;" horiz-adv-x="592" 
d="M324 -148l-110.999 0.000976562v465c-64.667 0 -114.667 17.5 -150 52.5s-53 77.5 -53 127.5c0 49.333 18.167 91.166 54.5 125.499s92.166 51.5 167.499 51.5h92v-822zM527.001 -147.999h-111l1 822h110v-822z" />
    <glyph glyph-name="periodcentered" unicode="&#xb7;" horiz-adv-x="268" 
d="M223 252c0 -24.667 -8.66699 -45.667 -26 -63s-38.333 -26 -63 -26s-45.667 8.66699 -63 26s-26 38.333 -26 63s8.66699 45.667 26 63s38.333 26 63 26s45.667 -8.66699 63 -26s26 -38.333 26 -63z" />
    <glyph glyph-name="cedilla" unicode="&#xb8;" horiz-adv-x="500" 
d="M339 -125c0 -42 -15.167 -76.334 -45.5 -103.001s-74.833 -40 -133.5 -40v91c24 0 42.5 5.66699 55.5 17s19.5 27 19.5 47c0 18.667 -8.66699 39.334 -26 62.001h113c11.333 -18 17 -42.667 17 -74z" />
    <glyph glyph-name="onesuperior" unicode="&#xb9;" horiz-adv-x="279" 
d="M229 392h-103v321l-116 -62v98l134 76h85v-433z" />
    <glyph glyph-name="ordmasculine" unicode="&#xba;" horiz-adv-x="442" 
d="M432 610c0 -65.333 -18.499 -119.002 -55.499 -161.002s-88.5 -63 -154.5 -63c-68 0 -120.333 20.333 -157 61s-55 92.334 -55 155.001c0 66.667 19.167 121.334 57.5 164.001s89.833 64 154.5 64c67.333 0 119.166 -20.667 155.499 -62s54.5 -94 54.5 -158z
M139.001 606.998c0 -36.667 6.99902 -66.6689 20.999 -90.002s35 -35 63 -35c27.333 0 47.5 11.333 60.5 34s19.5 52.334 19.5 89.001c0 85.333 -27.667 128 -83 128c-27.333 0 -47.666 -11.667 -60.999 -35s-20 -53.666 -20 -90.999z" />
    <glyph glyph-name="guillemotright" unicode="&#xbb;" horiz-adv-x="591" 
d="M565 253l-152 -162h-152l146 162l-146 162h152zM193 91h-152l146 162l-146 162h152l152 -162z" />
    <glyph glyph-name="onequarter" unicode="&#xbc;" horiz-adv-x="829" 
d="M232 0h-109l429 711h108zM229 278h-103v321l-116 -62v98l134 76h85v-433zM578 171h89v182zM769 0h-102v86h-194v85l133 259h163v-259h52v-85h-52v-86z" />
    <glyph glyph-name="onehalf" unicode="&#xbd;" horiz-adv-x="833" 
d="M232 0h-109l429 711h108zM229 278h-103v321l-116 -62v98l134 76h85v-433zM817 0l-295 0.000976562v77c48 34.667 88.333 70.667 121 108s49 70.666 49 99.999c0 34 -20.333 51 -61 51c-31.333 0 -64.333 -12.333 -99 -37v105c34.667 22 73.667 33 117 33
c46 0 83.167 -12.167 111.5 -36.5s42.5 -57.833 42.5 -100.5c0 -76.667 -49.333 -146.667 -148 -210h162v-90z" />
    <glyph glyph-name="threequarters" unicode="&#xbe;" horiz-adv-x="898" 
d="M285 0h-109l429 711h108zM306 395c0 -36.667 -13.834 -66.1689 -41.501 -88.502s-64.834 -33.5 -111.501 -33.5c-53.333 0 -96.666 9 -129.999 27v94c38 -20 75.667 -30 113 -30c18.667 0 33.5 4.33301 44.5 13s16.5 19.334 16.5 32.001c0 27.333 -28.333 41 -85 41h-15
v89h14c51.333 0 77 13.667 77 41s-17.333 41 -52 41c-34 0 -66.333 -11.667 -97 -35v101c30.667 18 66.334 27 107.001 27c47.333 0 84.666 -11.167 111.999 -33.5s41 -51.5 41 -87.5c0 -26 -7.16699 -47.5 -21.5 -64.5s-34.166 -28.167 -59.499 -33.5
c25.333 -2.66699 46.333 -12.667 63 -30s25 -40.666 25 -69.999zM630.999 170.998h89v182zM821.999 -0.00195312h-102v86h-194v85l133 259h163v-259h52v-85h-52v-86z" />
    <glyph glyph-name="questiondown" unicode="&#xbf;" horiz-adv-x="458" 
d="M428 -144c-40 -18.667 -90.998 -28 -152.998 -28c-62.667 0 -113.334 16.5 -152.001 49.5s-58 77.5 -58 133.5c0 30 6 57.167 18 81.5s27 43.333 45 57s35.667 24.167 53 31.5s33 11 47 11l3 82h133l3 -151c-102.667 0 -154 -31.333 -154 -94
c0 -24 7.16699 -43.167 21.5 -57.5s35.5 -21.5 63.5 -21.5c43.333 0 86.666 14.333 129.999 43v-137zM390.002 427c0 -25.333 -8.83301 -46.833 -26.5 -64.5s-39.167 -26.5 -64.5 -26.5s-46.833 8.83301 -64.5 26.5s-26.5 39.167 -26.5 64.5s8.83301 46.833 26.5 64.5
s39.167 26.5 64.5 26.5s46.833 -8.83301 64.5 -26.5s26.5 -39.167 26.5 -64.5z" />
    <glyph glyph-name="Agrave" unicode="&#xc0;" horiz-adv-x="690" 
d="M269 286l-7.00098 -24h162l-7 24c-19.333 65.333 -35.166 121 -47.499 167s-19.833 75.667 -22.5 89l-4 20c-5.33301 -36.667 -30 -128.667 -74 -276zM183.999 0h-161l225 674h194l225 -674h-165l-41 138h-236zM405.999 721h-121l-111 177h146z" />
    <glyph glyph-name="Aacute" unicode="&#xc1;" horiz-adv-x="690" 
d="M269 286l-7.00098 -24h162l-7 24c-19.333 65.333 -35.166 121 -47.499 167s-19.833 75.667 -22.5 89l-4 20c-5.33301 -36.667 -30 -128.667 -74 -276zM183.999 0h-161l225 674h194l225 -674h-165l-41 138h-236zM415.999 721h-121l86 177h146z" />
    <glyph glyph-name="Acircumflex" unicode="&#xc2;" horiz-adv-x="690" 
d="M269 286l-7.00098 -24h162l-7 24c-19.333 65.333 -35.166 121 -47.499 167s-19.833 75.667 -22.5 89l-4 20c-5.33301 -36.667 -30 -128.667 -74 -276zM183.999 0h-161l225 674h194l225 -674h-165l-41 138h-236zM266.999 721h-139l156 177h124l156 -177h-139l-79 96z" />
    <glyph glyph-name="Atilde" unicode="&#xc3;" horiz-adv-x="690" 
d="M269 286l-7.00098 -24h162l-7 24c-19.333 65.333 -35.166 121 -47.499 167s-19.833 75.667 -22.5 89l-4 20c-5.33301 -36.667 -30 -128.667 -74 -276zM183.999 0h-161l225 674h194l225 -674h-165l-41 138h-236zM288.999 776c-16.667 0 -29.667 -2.83301 -39 -8.5
s-21.333 -17.167 -36 -34.5l-65 64c10.667 22.667 26.5 42 47.5 58s43.833 24 68.5 24c24 0 49.5 -5.83301 76.5 -17.5s46.833 -17.5 59.5 -17.5c32.667 0 56 14.333 70 43l74 -61c-28.667 -56.667 -74 -85 -136 -85c-22 0 -45 5.83301 -69 17.5s-41 17.5 -51 17.5z" />
    <glyph glyph-name="Adieresis" unicode="&#xc4;" horiz-adv-x="690" 
d="M269 286l-7.00098 -24h162l-7 24c-19.333 65.333 -35.166 121 -47.499 167s-19.833 75.667 -22.5 89l-4 20c-5.33301 -36.667 -30 -128.667 -74 -276zM183.999 0h-161l225 674h194l225 -674h-165l-41 138h-236zM568.999 810c0 -23.333 -8 -42.833 -24 -58.5
s-35.667 -23.5 -59 -23.5c-24 0 -43.833 7.83301 -59.5 23.5s-23.5 35.167 -23.5 58.5c0 22.667 7.83301 41.834 23.5 57.501s35.5 23.5 59.5 23.5c23.333 0 43 -7.83301 59 -23.5s24 -34.834 24 -57.501zM299.999 810c0 -23.333 -7.83301 -42.833 -23.5 -58.5
s-35.167 -23.5 -58.5 -23.5c-24 0 -43.833 7.83301 -59.5 23.5s-23.5 35.167 -23.5 58.5c0 22.667 7.83301 41.834 23.5 57.501s35.5 23.5 59.5 23.5c23.333 0 42.833 -7.83301 58.5 -23.5s23.5 -34.834 23.5 -57.501z" />
    <glyph glyph-name="Aring" unicode="&#xc5;" horiz-adv-x="690" 
d="M269 286l-7.00098 -24h162l-7 24c-19.333 65.333 -35.166 121 -47.499 167s-19.833 75.667 -22.5 89l-4 20c-5.33301 -36.667 -30 -128.667 -74 -276zM183.999 0h-161l225 674h194l225 -674h-165l-41 138h-236zM484.999 846c0 -37.333 -13.333 -69.333 -40 -96
s-58.667 -40 -96 -40s-69.333 13.333 -96 40s-40 58.667 -40 96s13.333 69.333 40 96s58.667 40 96 40s69.333 -13.333 96 -40s40 -58.667 40 -96zM295.999 849c0 -15.333 5 -28.5 15 -39.5s22.667 -16.5 38 -16.5s28 5.5 38 16.5s15 24.167 15 39.5s-5 28.5 -15 39.5
s-22.667 16.5 -38 16.5s-28 -5.5 -38 -16.5s-15 -24.167 -15 -39.5z" />
    <glyph glyph-name="AE" unicode="&#xc6;" horiz-adv-x="940" 
d="M169 0h-161l325 674h543v-123h-260v-153h232v-122h-232v-153h264v-123h-413v138h-229zM313 286l-12.001 -24h166v352c-27.333 -70.667 -78.666 -180 -153.999 -328z" />
    <glyph glyph-name="Ccedilla" unicode="&#xc7;" horiz-adv-x="613" 
d="M563 30c-40.667 -25.333 -99.333 -38.001 -176 -38.001c-98.667 0 -181.167 31.833 -247.5 95.5s-99.5 146.167 -99.5 247.5c0 102.667 32.167 186.334 96.5 251.001s148.166 97 251.499 97c76 0 134.333 -12.667 175 -38v-148c-50 30.667 -105.667 46 -167 46
c-54 0 -99.333 -18.833 -136 -56.5s-55 -88.167 -55 -151.5c0 -62 18.333 -111.167 55 -147.5s84 -54.5 142 -54.5c62.667 0 116.334 16 161.001 48v-151zM448.001 -125.001c0 -42 -15.167 -76.334 -45.5 -103.001s-74.833 -40 -133.5 -40v91c24 0 42.5 5.66699 55.5 17
s19.5 27 19.5 47c0 18.667 -8.66699 39.334 -26 62.001h113c11.333 -18 17 -42.667 17 -74z" />
    <glyph glyph-name="Egrave" unicode="&#xc8;" horiz-adv-x="544" 
d="M484 0h-419v674h415v-123h-260v-153h232v-122h-232v-153h264v-123zM346 721h-121l-111 177h146z" />
    <glyph glyph-name="Eacute" unicode="&#xc9;" horiz-adv-x="544" 
d="M484 0h-419v674h415v-123h-260v-153h232v-122h-232v-153h264v-123zM343 721h-121l86 177h146z" />
    <glyph glyph-name="Ecircumflex" unicode="&#xca;" horiz-adv-x="544" 
d="M484 0h-419v674h415v-123h-260v-153h232v-122h-232v-153h264v-123zM193 721h-139l156 177h124l156 -177h-139l-79 96z" />
    <glyph glyph-name="Edieresis" unicode="&#xcb;" horiz-adv-x="544" 
d="M484 0h-419v674h415v-123h-260v-153h232v-122h-232v-153h264v-123zM489 809c0 -23.333 -8 -42.833 -24 -58.5s-35.667 -23.5 -59 -23.5c-24 0 -43.833 7.83301 -59.5 23.5s-23.5 35.167 -23.5 58.5c0 22.667 7.83301 41.834 23.5 57.501s35.5 23.5 59.5 23.5
c23.333 0 43 -7.83301 59 -23.5s24 -34.834 24 -57.501zM220 809c0 -23.333 -7.83301 -42.833 -23.5 -58.5s-35.167 -23.5 -58.5 -23.5c-24 0 -43.833 7.83301 -59.5 23.5s-23.5 35.167 -23.5 58.5c0 22.667 7.83301 41.834 23.5 57.501s35.5 23.5 59.5 23.5
c23.333 0 42.833 -7.83301 58.5 -23.5s23.5 -34.834 23.5 -57.501z" />
    <glyph glyph-name="Igrave" unicode="&#xcc;" horiz-adv-x="304" 
d="M229 0h-154v674h154v-674zM208 721h-121l-111 177h146z" />
    <glyph glyph-name="Iacute" unicode="&#xcd;" horiz-adv-x="304" 
d="M229 0h-154v674h154v-674zM215 721h-121l86 177h146z" />
    <glyph glyph-name="Icircumflex" unicode="&#xce;" horiz-adv-x="304" 
d="M229 0h-154v674h154v-674zM75 721h-139l156 177h124l156 -177h-139l-79 96z" />
    <glyph glyph-name="Idieresis" unicode="&#xcf;" horiz-adv-x="304" 
d="M229 0h-154v674h154v-674zM375 810c0 -23.333 -8 -42.833 -24 -58.5s-35.667 -23.5 -59 -23.5c-24 0 -43.833 7.83301 -59.5 23.5s-23.5 35.167 -23.5 58.5c0 22.667 7.83301 41.834 23.5 57.501s35.5 23.5 59.5 23.5c23.333 0 43 -7.83301 59 -23.5
s24 -34.834 24 -57.501zM106 810c0 -23.333 -7.83301 -42.833 -23.5 -58.5s-35.167 -23.5 -58.5 -23.5c-24 0 -43.833 7.83301 -59.5 23.5s-23.5 35.167 -23.5 58.5c0 22.667 7.83301 41.834 23.5 57.501s35.5 23.5 59.5 23.5c23.333 0 42.833 -7.83301 58.5 -23.5
s23.5 -34.834 23.5 -57.501z" />
    <glyph glyph-name="Eth" unicode="&#xd0;" horiz-adv-x="749" 
d="M361 0h-229.999v269h-66v124h66v281h232c101.333 0 184.333 -31.167 249 -93.5s97 -139.833 97 -232.5c0 -108 -31.833 -193 -95.5 -255s-147.834 -93 -252.501 -93zM427.001 269l-138 -0.000976562v-143h70c62 0 109.833 19.333 143.5 58s50.5 93.334 50.5 164.001
c0 60 -17 108.167 -51 144.5s-82 54.5 -144 54.5h-69v-154h138v-124z" />
    <glyph glyph-name="Ntilde" unicode="&#xd1;" horiz-adv-x="697" 
d="M219 0h-154.001v674h169l157 -279c22 -39.333 41.167 -76.166 57.5 -110.499s26.833 -58.5 31.5 -72.5l8 -22c-6.66699 49.333 -10 117.666 -10 204.999v279h154v-674h-169l-161 279c-21.333 36 -40.166 71.5 -56.499 106.5s-27.5 60.833 -33.5 77.5l-8 25
c10 -60 15 -129.667 15 -209v-279zM295.999 776c-16.667 0 -29.667 -2.83301 -39 -8.5s-21.333 -17.167 -36 -34.5l-65 64c10.667 22.667 26.5 42 47.5 58s43.833 24 68.5 24c24 0 49.5 -5.83301 76.5 -17.5s46.833 -17.5 59.5 -17.5c32 0 55.333 14.333 70 43l74 -61
c-28 -56.667 -73.333 -85 -136 -85c-22 0 -45 5.83301 -69 17.5s-41 17.5 -51 17.5z" />
    <glyph glyph-name="Ograve" unicode="&#xd2;" horiz-adv-x="736" 
d="M696 339c0 -103.333 -29.833 -186.833 -89.5 -250.5s-139.167 -95.5 -238.5 -95.5c-100 0 -179.667 31.667 -239 95s-89 147 -89 251c0 103.333 29.833 186.833 89.5 250.5s139.167 95.5 238.5 95.5c100 0 179.667 -31.667 239 -95s89 -147 89 -251zM205 339
c0 -63.333 14.667 -113.5 44 -150.5s69 -55.5 119 -55.5s89.667 18.5 119 55.5s44 87.167 44 150.5s-14.667 113.5 -44 150.5s-69 55.5 -119 55.5s-89.667 -18.5 -119 -55.5s-44 -87.167 -44 -150.5zM438 721h-121l-111 177h146z" />
    <glyph glyph-name="Oacute" unicode="&#xd3;" horiz-adv-x="736" 
d="M696 339c0 -103.333 -29.833 -186.833 -89.5 -250.5s-139.167 -95.5 -238.5 -95.5c-100 0 -179.667 31.667 -239 95s-89 147 -89 251c0 103.333 29.833 186.833 89.5 250.5s139.167 95.5 238.5 95.5c100 0 179.667 -31.667 239 -95s89 -147 89 -251zM205 339
c0 -63.333 14.667 -113.5 44 -150.5s69 -55.5 119 -55.5s89.667 18.5 119 55.5s44 87.167 44 150.5s-14.667 113.5 -44 150.5s-69 55.5 -119 55.5s-89.667 -18.5 -119 -55.5s-44 -87.167 -44 -150.5zM432 721h-121l86 177h146z" />
    <glyph glyph-name="Ocircumflex" unicode="&#xd4;" horiz-adv-x="736" 
d="M696 339c0 -103.333 -29.833 -186.833 -89.5 -250.5s-139.167 -95.5 -238.5 -95.5c-100 0 -179.667 31.667 -239 95s-89 147 -89 251c0 103.333 29.833 186.833 89.5 250.5s139.167 95.5 238.5 95.5c100 0 179.667 -31.667 239 -95s89 -147 89 -251zM205 339
c0 -63.333 14.667 -113.5 44 -150.5s69 -55.5 119 -55.5s89.667 18.5 119 55.5s44 87.167 44 150.5s-14.667 113.5 -44 150.5s-69 55.5 -119 55.5s-89.667 -18.5 -119 -55.5s-44 -87.167 -44 -150.5zM293 721h-139l156 177h124l156 -177h-139l-79 96z" />
    <glyph glyph-name="Otilde" unicode="&#xd5;" horiz-adv-x="736" 
d="M696 339c0 -103.333 -29.833 -186.833 -89.5 -250.5s-139.167 -95.5 -238.5 -95.5c-100 0 -179.667 31.667 -239 95s-89 147 -89 251c0 103.333 29.833 186.833 89.5 250.5s139.167 95.5 238.5 95.5c100 0 179.667 -31.667 239 -95s89 -147 89 -251zM205 339
c0 -63.333 14.667 -113.5 44 -150.5s69 -55.5 119 -55.5s89.667 18.5 119 55.5s44 87.167 44 150.5s-14.667 113.5 -44 150.5s-69 55.5 -119 55.5s-89.667 -18.5 -119 -55.5s-44 -87.167 -44 -150.5zM310 775c-16.667 0 -29.667 -2.83301 -39 -8.5
s-21.333 -17.167 -36 -34.5l-65 64c10.667 22.667 26.5 42 47.5 58s43.833 24 68.5 24c24 0 49.5 -5.83301 76.5 -17.5s46.833 -17.5 59.5 -17.5c32 0 55.333 14.333 70 43l74 -61c-28 -56.667 -73.333 -85 -136 -85c-22 0 -45 5.83301 -69 17.5s-41 17.5 -51 17.5z" />
    <glyph glyph-name="Odieresis" unicode="&#xd6;" horiz-adv-x="736" 
d="M696 339c0 -103.333 -29.833 -186.833 -89.5 -250.5s-139.167 -95.5 -238.5 -95.5c-100 0 -179.667 31.667 -239 95s-89 147 -89 251c0 103.333 29.833 186.833 89.5 250.5s139.167 95.5 238.5 95.5c100 0 179.667 -31.667 239 -95s89 -147 89 -251zM205 339
c0 -63.333 14.667 -113.5 44 -150.5s69 -55.5 119 -55.5s89.667 18.5 119 55.5s44 87.167 44 150.5s-14.667 113.5 -44 150.5s-69 55.5 -119 55.5s-89.667 -18.5 -119 -55.5s-44 -87.167 -44 -150.5zM594 810c0 -23.333 -8 -42.833 -24 -58.5s-35.667 -23.5 -59 -23.5
c-24 0 -43.833 7.83301 -59.5 23.5s-23.5 35.167 -23.5 58.5c0 22.667 7.83301 41.834 23.5 57.501s35.5 23.5 59.5 23.5c23.333 0 43 -7.83301 59 -23.5s24 -34.834 24 -57.501zM325 810c0 -23.333 -7.83301 -42.833 -23.5 -58.5s-35.167 -23.5 -58.5 -23.5
c-24 0 -43.833 7.83301 -59.5 23.5s-23.5 35.167 -23.5 58.5c0 22.667 7.83301 41.834 23.5 57.501s35.5 23.5 59.5 23.5c23.333 0 42.833 -7.83301 58.5 -23.5s23.5 -34.834 23.5 -57.501z" />
    <glyph glyph-name="multiply" unicode="&#xd7;" horiz-adv-x="530" 
d="M487 209l-92 -92l-130 129l-127 -127l-95 94l128 128l-129 128l92 92l129 -128l127 127l95 -94l-128 -128z" />
    <glyph glyph-name="Oslash" unicode="&#xd8;" horiz-adv-x="714" 
d="M694 339c0 -103.333 -29.833 -186.834 -89.5 -250.501s-139.167 -95.5 -238.5 -95.5c-57.333 0 -109.333 11.333 -156 34l-25 -34h-146l78 106c-52.667 62 -79 142 -79 240c0 103.333 29.833 186.833 89.5 250.5s139.167 95.5 238.5 95.5
c59.333 0 112.333 -11.667 159 -35l25 34h145l-79 -107c52 -61.333 78 -140.666 78 -237.999zM196 338.999c0 -42.667 6 -79 18 -109l227 307c-23.333 10.667 -48.333 16 -75 16c-52 0 -93.333 -19.333 -124 -58s-46 -90.667 -46 -156zM366 124.999
c52 0 93.333 19.333 124 58s46 90.667 46 156c0 40.667 -5.66699 76 -17 106l-225 -305c21.333 -10 45.333 -15 72 -15z" />
    <glyph glyph-name="Ugrave" unicode="&#xd9;" horiz-adv-x="668" 
d="M608 261c0 -88 -24.667 -155.167 -74 -201.5s-116 -69.5 -200 -69.5c-82.667 0 -149 23 -199 69s-75 111 -75 195v420h154v-419c0 -83.333 40 -125 120 -125s120 43.333 120 130v414h154v-413zM402 721h-121l-111 177h146z" />
    <glyph glyph-name="Uacute" unicode="&#xda;" horiz-adv-x="668" 
d="M608 261c0 -88 -24.667 -155.167 -74 -201.5s-116 -69.5 -200 -69.5c-82.667 0 -149 23 -199 69s-75 111 -75 195v420h154v-419c0 -83.333 40 -125 120 -125s120 43.333 120 130v414h154v-413zM408 721h-121l86 177h146z" />
    <glyph glyph-name="Ucircumflex" unicode="&#xdb;" horiz-adv-x="668" 
d="M608 261c0 -88 -24.667 -155.167 -74 -201.5s-116 -69.5 -200 -69.5c-82.667 0 -149 23 -199 69s-75 111 -75 195v420h154v-419c0 -83.333 40 -125 120 -125s120 43.333 120 130v414h154v-413zM253 721h-139l156 177h124l156 -177h-139l-79 96z" />
    <glyph glyph-name="Udieresis" unicode="&#xdc;" horiz-adv-x="668" 
d="M608 261c0 -88 -24.667 -155.167 -74 -201.5s-116 -69.5 -200 -69.5c-82.667 0 -149 23 -199 69s-75 111 -75 195v420h154v-419c0 -83.333 40 -125 120 -125s120 43.333 120 130v414h154v-413zM556 809c0 -23.333 -8 -42.833 -24 -58.5s-35.667 -23.5 -59 -23.5
c-24 0 -43.833 7.83301 -59.5 23.5s-23.5 35.167 -23.5 58.5c0 22.667 7.83301 41.834 23.5 57.501s35.5 23.5 59.5 23.5c23.333 0 43 -7.83301 59 -23.5s24 -34.834 24 -57.501zM287 809c0 -23.333 -7.83301 -42.833 -23.5 -58.5s-35.167 -23.5 -58.5 -23.5
c-24 0 -43.833 7.83301 -59.5 23.5s-23.5 35.167 -23.5 58.5c0 22.667 7.83301 41.834 23.5 57.501s35.5 23.5 59.5 23.5c23.333 0 42.833 -7.83301 58.5 -23.5s23.5 -34.834 23.5 -57.501z" />
    <glyph glyph-name="Yacute" unicode="&#xdd;" horiz-adv-x="643" 
d="M397 0h-154v247l-230 427h180l41 -98l53 -130l27 -70l5 -16c6.66699 30 36 102 88 216l44 98h179l-233 -426v-248zM396 721h-121l86 177h146z" />
    <glyph glyph-name="Thorn" unicode="&#xde;" horiz-adv-x="563" 
d="M297 110l-78 0.000976562v-110h-154v674h154v-110h78c75.333 0 136 -20.833 182 -62.5s69 -94.834 69 -159.501c0 -74 -24.167 -131.167 -72.5 -171.5s-107.833 -60.5 -178.5 -60.5zM285 441.001l-66 -0.000976562v-209h66c35.333 0 62 9.66699 80 29s27 44.333 27 75
c0 28.667 -8.33301 53.334 -25 74.001s-44 31 -82 31z" />
    <glyph glyph-name="germandbls" unicode="&#xdf;" horiz-adv-x="598" 
d="M578 159c0 -50.667 -16.499 -91.333 -49.499 -122s-76.833 -46 -131.5 -46c-54 0 -93 8 -117 24v123c34 -22 67.667 -33 101 -33c18 0 32.667 4.66699 44 14s17 22 17 38c0 13.333 -5 26 -15 38s-22 23 -36 33l-42.5 31c-14.333 10.667 -26.5 23.834 -36.5 39.501
s-15 33.167 -15 52.5c0 25.333 9.5 53.5 28.5 84.5s28.5 54.5 28.5 70.5c0 38 -20.667 57 -62 57c-60 0 -90 -31 -90 -93v-470h-142v461c0 72.667 19.333 129 58 169s93.667 60 165 60c65.333 0 118.166 -16.833 158.499 -50.5s60.5 -73.834 60.5 -120.501
c0 -25.333 -4.66699 -48 -14 -68s-18.5 -36.667 -27.5 -50s-13.5 -25 -13.5 -35c0 -7.33301 6.83301 -16.666 20.5 -27.999s28.667 -23 45 -35s31.333 -30.833 45 -56.5s20.5 -54.834 20.5 -87.501z" />
    <glyph glyph-name="agrave" unicode="&#xe0;" horiz-adv-x="516" 
d="M246 100c20.667 0 36.667 6.33398 48 19.001s17 30 17 52v37h-47c-24.667 0 -43.667 -5.33301 -57 -16s-20 -24.334 -20 -41.001c0 -34 19.667 -51 59 -51zM318 62.001c-21.333 -43.333 -63.332 -65 -125.999 -65c-49.333 0 -87.833 14 -115.5 42s-41.5 63 -41.5 105
c0 48.667 17.833 86.5 53.5 113.5s88.5 40.5 158.5 40.5h64v35c0 42.667 -28.333 64 -85 64c-54.667 0 -105.334 -15.333 -152.001 -46v131c40 22.667 97.667 34 173 34c72 0 125.667 -15.5 161 -46.5s53 -79.167 53 -144.5v-325h-143v62zM326.001 554.001h-121l-111 177
h146z" />
    <glyph glyph-name="aacute" unicode="&#xe1;" horiz-adv-x="516" 
d="M246 100c20.667 0 36.667 6.33398 48 19.001s17 30 17 52v37h-47c-24.667 0 -43.667 -5.33301 -57 -16s-20 -24.334 -20 -41.001c0 -34 19.667 -51 59 -51zM318 62.001c-21.333 -43.333 -63.332 -65 -125.999 -65c-49.333 0 -87.833 14 -115.5 42s-41.5 63 -41.5 105
c0 48.667 17.833 86.5 53.5 113.5s88.5 40.5 158.5 40.5h64v35c0 42.667 -28.333 64 -85 64c-54.667 0 -105.334 -15.333 -152.001 -46v131c40 22.667 97.667 34 173 34c72 0 125.667 -15.5 161 -46.5s53 -79.167 53 -144.5v-325h-143v62zM315.001 554.001h-121l86 177h146z
" />
    <glyph glyph-name="acircumflex" unicode="&#xe2;" horiz-adv-x="516" 
d="M246 100c20.667 0 36.667 6.33398 48 19.001s17 30 17 52v37h-47c-24.667 0 -43.667 -5.33301 -57 -16s-20 -24.334 -20 -41.001c0 -34 19.667 -51 59 -51zM318 62.001c-21.333 -43.333 -63.332 -65 -125.999 -65c-49.333 0 -87.833 14 -115.5 42s-41.5 63 -41.5 105
c0 48.667 17.833 86.5 53.5 113.5s88.5 40.5 158.5 40.5h64v35c0 42.667 -28.333 64 -85 64c-54.667 0 -105.334 -15.333 -152.001 -46v131c40 22.667 97.667 34 173 34c72 0 125.667 -15.5 161 -46.5s53 -79.167 53 -144.5v-325h-143v62zM177.001 554.001h-139l156 177h124
l156 -177h-139l-79 96z" />
    <glyph glyph-name="atilde" unicode="&#xe3;" horiz-adv-x="516" 
d="M246 100c20.667 0 36.667 6.33398 48 19.001s17 30 17 52v37h-47c-24.667 0 -43.667 -5.33301 -57 -16s-20 -24.334 -20 -41.001c0 -34 19.667 -51 59 -51zM318 62.001c-21.333 -43.333 -63.332 -65 -125.999 -65c-49.333 0 -87.833 14 -115.5 42s-41.5 63 -41.5 105
c0 48.667 17.833 86.5 53.5 113.5s88.5 40.5 158.5 40.5h64v35c0 42.667 -28.333 64 -85 64c-54.667 0 -105.334 -15.333 -152.001 -46v131c40 22.667 97.667 34 173 34c72 0 125.667 -15.5 161 -46.5s53 -79.167 53 -144.5v-325h-143v62zM198.001 609.001
c-16.667 0 -29.667 -2.83301 -39 -8.5s-21.333 -17.167 -36 -34.5l-65 64c10.667 22.667 26.5 42 47.5 58s43.833 24 68.5 24c24 0 49.5 -5.83301 76.5 -17.5s46.833 -17.5 59.5 -17.5c32 0 55.333 14.333 70 43l74 -61c-28 -56.667 -73.333 -85 -136 -85
c-22 0 -45 5.83301 -69 17.5s-41 17.5 -51 17.5z" />
    <glyph glyph-name="adieresis" unicode="&#xe4;" horiz-adv-x="516" 
d="M246 100c20.667 0 36.667 6.33398 48 19.001s17 30 17 52v37h-47c-24.667 0 -43.667 -5.33301 -57 -16s-20 -24.334 -20 -41.001c0 -34 19.667 -51 59 -51zM318 62.001c-21.333 -43.333 -63.332 -65 -125.999 -65c-49.333 0 -87.833 14 -115.5 42s-41.5 63 -41.5 105
c0 48.667 17.833 86.5 53.5 113.5s88.5 40.5 158.5 40.5h64v35c0 42.667 -28.333 64 -85 64c-54.667 0 -105.334 -15.333 -152.001 -46v131c40 22.667 97.667 34 173 34c72 0 125.667 -15.5 161 -46.5s53 -79.167 53 -144.5v-325h-143v62zM482.001 643.001
c0 -23.333 -8 -42.833 -24 -58.5s-35.667 -23.5 -59 -23.5c-24 0 -43.833 7.83301 -59.5 23.5s-23.5 35.167 -23.5 58.5c0 22.667 7.83301 41.834 23.5 57.501s35.5 23.5 59.5 23.5c23.333 0 43 -7.83301 59 -23.5s24 -34.834 24 -57.501zM213.001 643.001
c0 -23.333 -7.83301 -42.833 -23.5 -58.5s-35.167 -23.5 -58.5 -23.5c-24 0 -43.833 7.83301 -59.5 23.5s-23.5 35.167 -23.5 58.5c0 22.667 7.83301 41.834 23.5 57.501s35.5 23.5 59.5 23.5c23.333 0 42.833 -7.83301 58.5 -23.5s23.5 -34.834 23.5 -57.501z" />
    <glyph glyph-name="aring" unicode="&#xe5;" horiz-adv-x="516" 
d="M246 100c20.667 0 36.667 6.33398 48 19.001s17 30 17 52v37h-47c-24.667 0 -43.667 -5.33301 -57 -16s-20 -24.334 -20 -41.001c0 -34 19.667 -51 59 -51zM318 62.001c-21.333 -43.333 -63.332 -65 -125.999 -65c-49.333 0 -87.833 14 -115.5 42s-41.5 63 -41.5 105
c0 48.667 17.833 86.5 53.5 113.5s88.5 40.5 158.5 40.5h64v35c0 42.667 -28.333 64 -85 64c-54.667 0 -105.334 -15.333 -152.001 -46v131c40 22.667 97.667 34 173 34c72 0 125.667 -15.5 161 -46.5s53 -79.167 53 -144.5v-325h-143v62zM396.001 679.001
c0 -37.333 -13.333 -69.333 -40 -96s-58.667 -40 -96 -40s-69.333 13.333 -96 40s-40 58.667 -40 96s13.333 69.333 40 96s58.667 40 96 40s69.333 -13.333 96 -40s40 -58.667 40 -96zM207.001 682.001c0 -15.333 5 -28.5 15 -39.5s22.667 -16.5 38 -16.5s28 5.5 38 16.5
s15 24.167 15 39.5s-5 28.5 -15 39.5s-22.667 16.5 -38 16.5s-28 -5.5 -38 -16.5s-15 -24.167 -15 -39.5z" />
    <glyph glyph-name="ae" unicode="&#xe6;" horiz-adv-x="808" 
d="M392 88c-10.667 -25.333 -30.334 -46.999 -59.001 -64.999s-67 -27 -115 -27c-56.667 0 -100.5 13.333 -131.5 40s-46.5 62.667 -46.5 108c0 48.667 17.833 86.5 53.5 113.5s88.5 40.5 158.5 40.5h64v35c0 42.667 -28.333 64 -85 64
c-54.667 0 -105.334 -15.333 -152.001 -46v131c40 22.667 94.333 34 163 34c36 0 67.167 -6.66699 93.5 -20s44.833 -31.333 55.5 -54c15.333 22 37 39.167 65 51.5s58.667 18.5 92 18.5c68 0 121.667 -19.833 161 -59.5s59 -98.834 59 -177.501
c0 -15.333 -2.66699 -41.666 -8 -78.999h-299c10.667 -28 28.334 -49.667 53.001 -65s54.334 -23 89.001 -23c51.333 0 96 14.333 134 43v-122c-35.333 -22.667 -86 -34 -152 -34c-38 0 -75 7.66699 -111 23s-63.333 38.666 -82 69.999zM192 151.001
c0 -34 19.667 -50.999 59 -50.999c20.667 0 36.667 6.33301 48 19s17 30 17 52v37h-47c-24.667 0 -43.667 -5.33301 -57 -16s-20 -24.334 -20 -41.001zM554 401.002c-22.667 0 -43.167 -8.66699 -61.5 -26s-30.5 -42.333 -36.5 -75h176v11c-4.66699 60 -30.667 90 -78 90z
" />
    <glyph glyph-name="ccedilla" unicode="&#xe7;" horiz-adv-x="469" 
d="M439 24c-39.333 -21.333 -86.667 -31.999 -142 -31.999c-76 0 -138.667 24.167 -188 72.5s-74 110.833 -74 187.5c1.33301 76 26 138.833 74 188.5s113.667 74.5 197 74.5c51.333 0 95.666 -9.66699 132.999 -29v-125c-35.333 22 -74.666 33 -117.999 33
c-40.667 0 -73.667 -12.167 -99 -36.5s-38.333 -59.5 -39 -105.5c2.66699 -44.667 16 -79.334 40 -104.001s55.667 -37 95 -37c42 0 82.333 11.667 121 35v-122zM368.999 -124.999c0 -42 -15.167 -76.334 -45.5 -103.001s-74.833 -40 -133.5 -40v91
c24 0 42.5 5.66699 55.5 17s19.5 27 19.5 47c0 18.667 -8.66699 39.334 -26 62.001h113c11.333 -18 17 -42.667 17 -74z" />
    <glyph glyph-name="egrave" unicode="&#xe8;" horiz-adv-x="533" 
d="M458 29c-34.667 -22.667 -87.6689 -34.001 -159.002 -34.001c-83.333 0 -148.166 24.167 -194.499 72.5s-69.5 110.5 -69.5 186.5c0 80.667 22.5 143.834 67.5 189.501s100.5 68.5 166.5 68.5c68 0 121.667 -19.833 161 -59.5s59 -98.834 59 -177.501
c0 -15.333 -2.66699 -41.666 -8 -78.999h-298c10 -28 27.333 -49.667 52 -65s54.334 -23 89.001 -23c51.333 0 96 14.333 134 43v-122zM274.998 400.999c-23.333 0 -44 -8.5 -62 -25.5s-30 -42.167 -36 -75.5h176v12c-4.66699 59.333 -30.667 89 -78 89zM335.998 553.999
h-121l-111 177h146z" />
    <glyph glyph-name="eacute" unicode="&#xe9;" horiz-adv-x="533" 
d="M458 29c-34.667 -22.667 -87.6689 -34.001 -159.002 -34.001c-83.333 0 -148.166 24.167 -194.499 72.5s-69.5 110.5 -69.5 186.5c0 80.667 22.5 143.834 67.5 189.501s100.5 68.5 166.5 68.5c68 0 121.667 -19.833 161 -59.5s59 -98.834 59 -177.501
c0 -15.333 -2.66699 -41.666 -8 -78.999h-298c10 -28 27.333 -49.667 52 -65s54.334 -23 89.001 -23c51.333 0 96 14.333 134 43v-122zM274.998 400.999c-23.333 0 -44 -8.5 -62 -25.5s-30 -42.167 -36 -75.5h176v12c-4.66699 59.333 -30.667 89 -78 89zM345.998 552.999
h-121l86 177h146z" />
    <glyph glyph-name="ecircumflex" unicode="&#xea;" horiz-adv-x="533" 
d="M458 29c-34.667 -22.667 -87.6689 -34.001 -159.002 -34.001c-83.333 0 -148.166 24.167 -194.499 72.5s-69.5 110.5 -69.5 186.5c0 80.667 22.5 143.834 67.5 189.501s100.5 68.5 166.5 68.5c68 0 121.667 -19.833 161 -59.5s59 -98.834 59 -177.501
c0 -15.333 -2.66699 -41.666 -8 -78.999h-298c10 -28 27.333 -49.667 52 -65s54.334 -23 89.001 -23c51.333 0 96 14.333 134 43v-122zM274.998 400.999c-23.333 0 -44 -8.5 -62 -25.5s-30 -42.167 -36 -75.5h176v12c-4.66699 59.333 -30.667 89 -78 89zM189.998 553.999
h-139l156 177h124l156 -177h-139l-79 96z" />
    <glyph glyph-name="edieresis" unicode="&#xeb;" horiz-adv-x="533" 
d="M458 29c-34.667 -22.667 -87.6689 -34.001 -159.002 -34.001c-83.333 0 -148.166 24.167 -194.499 72.5s-69.5 110.5 -69.5 186.5c0 80.667 22.5 143.834 67.5 189.501s100.5 68.5 166.5 68.5c68 0 121.667 -19.833 161 -59.5s59 -98.834 59 -177.501
c0 -15.333 -2.66699 -41.666 -8 -78.999h-298c10 -28 27.333 -49.667 52 -65s54.334 -23 89.001 -23c51.333 0 96 14.333 134 43v-122zM274.998 400.999c-23.333 0 -44 -8.5 -62 -25.5s-30 -42.167 -36 -75.5h176v12c-4.66699 59.333 -30.667 89 -78 89zM500.998 642.999
c0 -23.333 -8 -42.833 -24 -58.5s-35.667 -23.5 -59 -23.5c-24 0 -43.833 7.83301 -59.5 23.5s-23.5 35.167 -23.5 58.5c0 22.667 7.83301 41.834 23.5 57.501s35.5 23.5 59.5 23.5c23.333 0 43 -7.83301 59 -23.5s24 -34.834 24 -57.501zM231.998 642.999
c0 -23.333 -7.83301 -42.833 -23.5 -58.5s-35.167 -23.5 -58.5 -23.5c-24 0 -43.833 7.83301 -59.5 23.5s-23.5 35.167 -23.5 58.5c0 22.667 7.83301 41.834 23.5 57.501s35.5 23.5 59.5 23.5c23.333 0 42.833 -7.83301 58.5 -23.5s23.5 -34.834 23.5 -57.501z" />
    <glyph glyph-name="igrave" unicode="&#xec;" horiz-adv-x="276" 
d="M211 0h-146v507h146v-507zM189 554h-121l-111 177h146z" />
    <glyph glyph-name="iacute" unicode="&#xed;" horiz-adv-x="276" 
d="M211 0h-146v507h146v-507zM206 554h-121l86 177h146z" />
    <glyph glyph-name="icircumflex" unicode="&#xee;" horiz-adv-x="276" 
d="M211 0h-146v507h146v-507zM60 554h-139l156 177h124l156 -177h-139l-79 96z" />
    <glyph glyph-name="idieresis" unicode="&#xef;" horiz-adv-x="276" 
d="M211 0h-146v507h146v-507zM356 643c0 -23.333 -8 -42.833 -24 -58.5s-35.667 -23.5 -59 -23.5c-24 0 -43.833 7.83301 -59.5 23.5s-23.5 35.167 -23.5 58.5c0 22.667 7.83301 41.834 23.5 57.501s35.5 23.5 59.5 23.5c23.333 0 43 -7.83301 59 -23.5
s24 -34.834 24 -57.501zM87 643c0 -23.333 -7.83301 -42.833 -23.5 -58.5s-35.167 -23.5 -58.5 -23.5c-24 0 -43.833 7.83301 -59.5 23.5s-23.5 35.167 -23.5 58.5c0 22.667 7.83301 41.834 23.5 57.501s35.5 23.5 59.5 23.5c23.333 0 42.833 -7.83301 58.5 -23.5
s23.5 -34.834 23.5 -57.501z" />
    <glyph glyph-name="eth" unicode="&#xf0;" horiz-adv-x="557" 
d="M510 289c0 -90 -20.666 -162.332 -61.999 -216.999s-101.333 -82 -180 -82c-72.667 0 -129.667 20.667 -171 62s-62 92 -62 152c0 59.333 17.833 107.166 53.5 143.499s81.5 54.5 137.5 54.5c54.667 0 100 -17 136 -51c-8.66699 57.333 -29.334 111 -62.001 161l-143 -70
v81l97 47c-33.333 36 -75.333 70.667 -126 104h184c18.667 -13.333 37.667 -29 57 -47l113 55v-81l-65 -32c30 -42 53 -87.833 69 -137.5s24 -97.167 24 -142.5zM267.001 120.001c25.333 0 46.333 8.33301 63 25s27.667 46.667 33 90c-28 29.333 -60.333 44 -97 44
c-26 0 -46.167 -7.5 -60.5 -22.5s-21.5 -35.833 -21.5 -62.5c0 -22 7.5 -39.833 22.5 -53.5s35.167 -20.5 60.5 -20.5z" />
    <glyph glyph-name="ntilde" unicode="&#xf1;" horiz-adv-x="580" 
d="M525 0h-145.999v302c0 30 -7 52.833 -21 68.5s-33.667 23.5 -59 23.5c-26.667 0 -48.834 -10.5 -66.501 -31.5s-26.5 -52.5 -26.5 -94.5v-268h-146v507h146v-86c12.667 28 32.167 50.167 58.5 66.5s57.833 24.5 94.5 24.5c52 0 92.667 -15.5 122 -46.5
s44 -76.5 44 -136.5v-329zM234.001 609c-16.667 0 -29.667 -2.83301 -39 -8.5s-21.333 -17.167 -36 -34.5l-65 64c10.667 22.667 26.5 42 47.5 58s43.833 24 68.5 24c24 0 49.5 -5.83301 76.5 -17.5s46.833 -17.5 59.5 -17.5c32 0 55.333 14.333 70 43l74 -61
c-28 -56.667 -73.333 -85 -136 -85c-22 0 -45 5.83301 -69 17.5s-41 17.5 -51 17.5z" />
    <glyph glyph-name="ograve" unicode="&#xf2;" horiz-adv-x="567" 
d="M532 256c0 -76.667 -21.833 -139.834 -65.5 -189.501s-104.5 -74.5 -182.5 -74.5c-79.333 0 -140.666 23.833 -183.999 71.5s-65 108.834 -65 183.501c0 78 22.667 142.167 68 192.5s105.666 75.5 180.999 75.5c78.667 0 139.667 -24.333 183 -73s65 -110.667 65 -186z
M187 253c0 -43.333 8.16699 -78.834 24.5 -106.501s40.833 -41.5 73.5 -41.5c32 0 55.833 13.5 71.5 40.5s23.5 62.167 23.5 105.5c0 99.333 -32.333 149 -97 149c-32 0 -56 -13.667 -72 -41s-24 -62.666 -24 -105.999zM354 552.999h-121l-111 177h146z" />
    <glyph glyph-name="oacute" unicode="&#xf3;" horiz-adv-x="567" 
d="M532 256c0 -76.667 -21.833 -139.834 -65.5 -189.501s-104.5 -74.5 -182.5 -74.5c-79.333 0 -140.666 23.833 -183.999 71.5s-65 108.834 -65 183.501c0 78 22.667 142.167 68 192.5s105.666 75.5 180.999 75.5c78.667 0 139.667 -24.333 183 -73s65 -110.667 65 -186z
M187 253c0 -43.333 8.16699 -78.834 24.5 -106.501s40.833 -41.5 73.5 -41.5c32 0 55.833 13.5 71.5 40.5s23.5 62.167 23.5 105.5c0 99.333 -32.333 149 -97 149c-32 0 -56 -13.667 -72 -41s-24 -62.666 -24 -105.999zM356 552.999h-121l86 177h146z" />
    <glyph glyph-name="ocircumflex" unicode="&#xf4;" horiz-adv-x="567" 
d="M532 256c0 -76.667 -21.833 -139.834 -65.5 -189.501s-104.5 -74.5 -182.5 -74.5c-79.333 0 -140.666 23.833 -183.999 71.5s-65 108.834 -65 183.501c0 78 22.667 142.167 68 192.5s105.666 75.5 180.999 75.5c78.667 0 139.667 -24.333 183 -73s65 -110.667 65 -186z
M187 253c0 -43.333 8.16699 -78.834 24.5 -106.501s40.833 -41.5 73.5 -41.5c32 0 55.833 13.5 71.5 40.5s23.5 62.167 23.5 105.5c0 99.333 -32.333 149 -97 149c-32 0 -56 -13.667 -72 -41s-24 -62.666 -24 -105.999zM208 552.999h-139l156 177h124l156 -177h-139l-79 96z
" />
    <glyph glyph-name="otilde" unicode="&#xf5;" horiz-adv-x="567" 
d="M532 256c0 -76.667 -21.833 -139.834 -65.5 -189.501s-104.5 -74.5 -182.5 -74.5c-79.333 0 -140.666 23.833 -183.999 71.5s-65 108.834 -65 183.501c0 78 22.667 142.167 68 192.5s105.666 75.5 180.999 75.5c78.667 0 139.667 -24.333 183 -73s65 -110.667 65 -186z
M187 253c0 -43.333 8.16699 -78.834 24.5 -106.501s40.833 -41.5 73.5 -41.5c32 0 55.833 13.5 71.5 40.5s23.5 62.167 23.5 105.5c0 99.333 -32.333 149 -97 149c-32 0 -56 -13.667 -72 -41s-24 -62.666 -24 -105.999zM229 608.999c-16.667 0 -29.667 -2.83301 -39 -8.5
s-21.333 -17.167 -36 -34.5l-65 64c10.667 22.667 26.5 42 47.5 58s43.833 24 68.5 24c24 0 49.5 -5.83301 76.5 -17.5s46.833 -17.5 59.5 -17.5c32.667 0 56 14.333 70 43l74 -61c-28.667 -56.667 -74 -85 -136 -85c-22 0 -45 5.83301 -69 17.5s-41 17.5 -51 17.5z" />
    <glyph glyph-name="odieresis" unicode="&#xf6;" horiz-adv-x="567" 
d="M532 256c0 -76.667 -21.833 -139.834 -65.5 -189.501s-104.5 -74.5 -182.5 -74.5c-79.333 0 -140.666 23.833 -183.999 71.5s-65 108.834 -65 183.501c0 78 22.667 142.167 68 192.5s105.666 75.5 180.999 75.5c78.667 0 139.667 -24.333 183 -73s65 -110.667 65 -186z
M187 253c0 -43.333 8.16699 -78.834 24.5 -106.501s40.833 -41.5 73.5 -41.5c32 0 55.833 13.5 71.5 40.5s23.5 62.167 23.5 105.5c0 99.333 -32.333 149 -97 149c-32 0 -56 -13.667 -72 -41s-24 -62.666 -24 -105.999zM512 643.999c0 -23.333 -8 -42.833 -24 -58.5
s-35.667 -23.5 -59 -23.5c-24 0 -43.833 7.83301 -59.5 23.5s-23.5 35.167 -23.5 58.5c0 22.667 7.83301 41.834 23.5 57.501s35.5 23.5 59.5 23.5c23.333 0 43 -7.83301 59 -23.5s24 -34.834 24 -57.501zM243 643.999c0 -23.333 -7.83301 -42.833 -23.5 -58.5
s-35.167 -23.5 -58.5 -23.5c-24 0 -43.833 7.83301 -59.5 23.5s-23.5 35.167 -23.5 58.5c0 22.667 7.83301 41.834 23.5 57.501s35.5 23.5 59.5 23.5c23.333 0 42.833 -7.83301 58.5 -23.5s23.5 -34.834 23.5 -57.501z" />
    <glyph glyph-name="divide" unicode="&#xf7;" horiz-adv-x="589" 
d="M544 275h-499v130h499v-130zM366 164c0 -20.667 -7.5 -38.5 -22.5 -53.5s-32.833 -22.5 -53.5 -22.5s-38.5 7.5 -53.5 22.5s-22.5 32.833 -22.5 53.5s7.5 38.5 22.5 53.5s32.833 22.5 53.5 22.5s38.5 -7.5 53.5 -22.5s22.5 -32.833 22.5 -53.5zM366 516
c0 -20.667 -7.5 -38.5 -22.5 -53.5s-32.833 -22.5 -53.5 -22.5s-38.5 7.5 -53.5 22.5s-22.5 32.833 -22.5 53.5s7.5 38.5 22.5 53.5s32.833 22.5 53.5 22.5s38.5 -7.5 53.5 -22.5s22.5 -32.833 22.5 -53.5z" />
    <glyph glyph-name="oslash" unicode="&#xf8;" horiz-adv-x="562" 
d="M532 256c0 -76.667 -21.832 -139.834 -65.499 -189.501s-104.5 -74.5 -182.5 -74.5c-42 0 -79.333 7.33301 -112 22l-16 -22h-121l57 80c-38 46 -57 104.333 -57 175c0 78 22.667 142.167 68 192.5s105.666 75.5 180.999 75.5c39.333 0 76.333 -7 111 -21l15 21h122
l-58 -81c38.667 -45.333 58 -104.666 58 -177.999zM169.001 253c0 -24 2.33105 -45.333 6.99805 -64l156 217c-15.333 6.66699 -31.666 10 -48.999 10c-37.333 0 -65.666 -15.167 -84.999 -45.5s-29 -69.5 -29 -117.5zM284.999 89c38 0 66.333 15 85 45s28 69 28 117
c0 26 -2.33301 48.667 -7 68l-156 -218c14 -8 30.667 -12 50 -12z" />
    <glyph glyph-name="ugrave" unicode="&#xf9;" horiz-adv-x="580" 
d="M520 0h-146v81c-26.667 -56.667 -78 -85 -154 -85c-52 0 -92.5 14.5 -121.5 43.5s-43.5 71.833 -43.5 128.5v339h146v-306c0 -59.333 26 -89 78 -89c63.333 0 95 42.333 95 127v268h146v-507zM351 553h-121l-111 177h146z" />
    <glyph glyph-name="uacute" unicode="&#xfa;" horiz-adv-x="580" 
d="M520 0h-146v81c-26.667 -56.667 -78 -85 -154 -85c-52 0 -92.5 14.5 -121.5 43.5s-43.5 71.833 -43.5 128.5v339h146v-306c0 -59.333 26 -89 78 -89c63.333 0 95 42.333 95 127v268h146v-507zM359 553h-121l86 177h146z" />
    <glyph glyph-name="ucircumflex" unicode="&#xfb;" horiz-adv-x="580" 
d="M520 0h-146v81c-26.667 -56.667 -78 -85 -154 -85c-52 0 -92.5 14.5 -121.5 43.5s-43.5 71.833 -43.5 128.5v339h146v-306c0 -59.333 26 -89 78 -89c63.333 0 95 42.333 95 127v268h146v-507zM209 554h-139l156 177h124l156 -177h-139l-79 96z" />
    <glyph glyph-name="udieresis" unicode="&#xfc;" horiz-adv-x="580" 
d="M520 0h-146v81c-26.667 -56.667 -78 -85 -154 -85c-52 0 -92.5 14.5 -121.5 43.5s-43.5 71.833 -43.5 128.5v339h146v-306c0 -59.333 26 -89 78 -89c63.333 0 95 42.333 95 127v268h146v-507zM504 643c0 -23.333 -8 -42.833 -24 -58.5s-35.667 -23.5 -59 -23.5
c-24 0 -43.833 7.83301 -59.5 23.5s-23.5 35.167 -23.5 58.5c0 22.667 7.83301 41.834 23.5 57.501s35.5 23.5 59.5 23.5c23.333 0 43 -7.83301 59 -23.5s24 -34.834 24 -57.501zM235 643c0 -23.333 -7.83301 -42.833 -23.5 -58.5s-35.167 -23.5 -58.5 -23.5
c-24 0 -43.833 7.83301 -59.5 23.5s-23.5 35.167 -23.5 58.5c0 22.667 7.83301 41.834 23.5 57.501s35.5 23.5 59.5 23.5c23.333 0 42.833 -7.83301 58.5 -23.5s23.5 -34.834 23.5 -57.501z" />
    <glyph glyph-name="yacute" unicode="&#xfd;" horiz-adv-x="532" 
d="M344 15c-52.667 -142 -132.999 -213.001 -240.999 -213.001c-20.667 0 -39.334 1.66699 -56.001 5v116c10.667 -2.66699 22 -4 34 -4c55.333 0 95.333 29.667 120 89l-196 499h159l55 -158c14 -40.667 25.5 -75.667 34.5 -105s14.5 -48.666 16.5 -57.999l3 -14
c7.33301 26.667 25.333 85.667 54 177l50 158h150zM345.001 553.999h-121l86 177h146z" />
    <glyph glyph-name="thorn" unicode="&#xfe;" horiz-adv-x="611" 
d="M206 -187l-146 -0.00195312v894h146v-278c35.333 56 86.333 84 153 84c65.333 0 117.833 -23.167 157.5 -69.5s59.5 -109.166 59.5 -188.499c0 -75.333 -19.167 -137.666 -57.5 -186.999s-91.5 -74 -159.5 -74c-68.667 0 -119.667 27 -153 81v-262zM206 258.998
c0 -43.333 10.668 -78 32.001 -104s48.666 -39 81.999 -39c32 0 58 12.167 78 36.5s30 57.5 30 99.5c0 46 -10.167 80.833 -30.5 104.5s-46.166 35.5 -77.499 35.5c-30.667 0 -57.334 -11.667 -80.001 -35s-34 -56 -34 -98z" />
    <glyph glyph-name="ydieresis" unicode="&#xff;" horiz-adv-x="532" 
d="M344 15c-52.667 -142 -132.999 -213.001 -240.999 -213.001c-20.667 0 -39.334 1.66699 -56.001 5v116c10.667 -2.66699 22 -4 34 -4c55.333 0 95.333 29.667 120 89l-196 499h159l55 -158c14 -40.667 25.5 -75.667 34.5 -105s14.5 -48.666 16.5 -57.999l3 -14
c7.33301 26.667 25.333 85.667 54 177l50 158h150zM493.001 642.999c0 -23.333 -8 -42.833 -24 -58.5s-35.667 -23.5 -59 -23.5c-24 0 -43.833 7.83301 -59.5 23.5s-23.5 35.167 -23.5 58.5c0 22.667 7.83301 41.834 23.5 57.501s35.5 23.5 59.5 23.5
c23.333 0 43 -7.83301 59 -23.5s24 -34.834 24 -57.501zM224.001 642.999c0 -23.333 -7.83301 -42.833 -23.5 -58.5s-35.167 -23.5 -58.5 -23.5c-24 0 -43.833 7.83301 -59.5 23.5s-23.5 35.167 -23.5 58.5c0 22.667 7.83301 41.834 23.5 57.501s35.5 23.5 59.5 23.5
c23.333 0 42.833 -7.83301 58.5 -23.5s23.5 -34.834 23.5 -57.501z" />
    <glyph glyph-name="Amacron" unicode="&#x100;" horiz-adv-x="690" 
d="M269 286l-7.00098 -24h162l-7 24c-19.333 65.333 -35.166 121 -47.499 167s-19.833 75.667 -22.5 89l-4 20c-5.33301 -36.667 -30 -128.667 -74 -276zM183.999 0h-161l225 674h194l225 -674h-165l-41 138h-236zM526.999 761h-356v99h356v-99z" />
    <glyph glyph-name="amacron" unicode="&#x101;" horiz-adv-x="516" 
d="M246 100c20.667 0 36.667 6.33398 48 19.001s17 30 17 52v37h-47c-24.667 0 -43.667 -5.33301 -57 -16s-20 -24.334 -20 -41.001c0 -34 19.667 -51 59 -51zM318 62.001c-21.333 -43.333 -63.332 -65 -125.999 -65c-49.333 0 -87.833 14 -115.5 42s-41.5 63 -41.5 105
c0 48.667 17.833 86.5 53.5 113.5s88.5 40.5 158.5 40.5h64v35c0 42.667 -28.333 64 -85 64c-54.667 0 -105.334 -15.333 -152.001 -46v131c40 22.667 97.667 34 173 34c72 0 125.667 -15.5 161 -46.5s53 -79.167 53 -144.5v-325h-143v62zM436.001 593.001h-356v99h356v-99z
" />
    <glyph glyph-name="Abreve" unicode="&#x102;" horiz-adv-x="690" 
d="M269 286l-7.00098 -24h162l-7 24c-19.333 65.333 -35.166 121 -47.499 167s-19.833 75.667 -22.5 89l-4 20c-5.33301 -36.667 -30 -128.667 -74 -276zM183.999 0h-161l225 674h194l225 -674h-165l-41 138h-236zM539.999 898c0 -62 -18.1689 -107.667 -54.502 -137
s-84.166 -44 -143.499 -44s-107.166 14.667 -143.499 44s-54.5 75 -54.5 137h112c0 -28 7.83301 -49.833 23.5 -65.5s36.5 -23.5 62.5 -23.5s46.833 7.83301 62.5 23.5s23.5 37.5 23.5 65.5h112z" />
    <glyph glyph-name="abreve" unicode="&#x103;" horiz-adv-x="516" 
d="M246 100c20.667 0 36.667 6.33398 48 19.001s17 30 17 52v37h-47c-24.667 0 -43.667 -5.33301 -57 -16s-20 -24.334 -20 -41.001c0 -34 19.667 -51 59 -51zM318 62.001c-21.333 -43.333 -63.332 -65 -125.999 -65c-49.333 0 -87.833 14 -115.5 42s-41.5 63 -41.5 105
c0 48.667 17.833 86.5 53.5 113.5s88.5 40.5 158.5 40.5h64v35c0 42.667 -28.333 64 -85 64c-54.667 0 -105.334 -15.333 -152.001 -46v131c40 22.667 97.667 34 173 34c72 0 125.667 -15.5 161 -46.5s53 -79.167 53 -144.5v-325h-143v62zM455.001 730.001
c0 -62 -18.1689 -107.667 -54.502 -137s-84.166 -44 -143.499 -44s-107.166 14.667 -143.499 44s-54.5 75 -54.5 137h112c0 -28 7.83301 -49.833 23.5 -65.5s36.5 -23.5 62.5 -23.5s46.833 7.83301 62.5 23.5s23.5 37.5 23.5 65.5h112z" />
    <glyph glyph-name="Aogonek" unicode="&#x104;" horiz-adv-x="680" 
d="M264 286l-7.00098 -24h162l-7 24c-19.333 65.333 -35.166 121 -47.499 167s-19.833 75.667 -22.5 89l-4 20c-5.33301 -36.667 -30 -128.667 -74 -276zM673.999 -235c-32 -16.667 -68.333 -25.001 -109 -25.001c-46.667 0 -81.167 11 -103.5 33s-33.5 50 -33.5 84
c0 52.667 23 100.334 69 143.001l-41 138h-236l-41 -138h-161l225 674h194l225 -674c-78.667 -48.667 -118 -92 -118 -130c0 -22.667 14.333 -34 43 -34c29.333 0 58.333 10 87 30v-101z" />
    <glyph glyph-name="aogonek" unicode="&#x105;" horiz-adv-x="511" 
d="M246 100c20.667 0 36.667 6.33398 48 19.001s17 30 17 52v37h-47c-24.667 0 -43.667 -5.33301 -57 -16s-20 -24.334 -20 -41.001c0 -34 19.667 -51 59 -51zM473 -234.999c-32 -16.667 -68.332 -25 -108.999 -25c-46.667 0 -81.167 11 -103.5 33s-33.5 50 -33.5 84
c0 56.667 30.333 107.667 91 153v52c-21.333 -43.333 -63.333 -65 -126 -65c-49.333 0 -87.833 14 -115.5 42s-41.5 63 -41.5 105c0 48.667 17.833 86.5 53.5 113.5s88.5 40.5 158.5 40.5h64v35c0 42.667 -28.333 64 -85 64c-54.667 0 -105.334 -15.333 -152.001 -46v131
c40 22.667 97.667 34 173 34c72 0 125.667 -15.5 161 -46.5s53 -79.167 53 -144.5v-325c-78.667 -48.667 -118 -92 -118 -130c0 -22.667 14.333 -34 43 -34c29.333 0 58.333 10 87 30v-101z" />
    <glyph glyph-name="Cacute" unicode="&#x106;" horiz-adv-x="613" 
d="M563 30c-40.667 -25.333 -99.333 -38.001 -176 -38.001c-98.667 0 -181.167 31.833 -247.5 95.5s-99.5 146.167 -99.5 247.5c0 102.667 32.167 186.334 96.5 251.001s148.166 97 251.499 97c76 0 134.333 -12.667 175 -38v-148c-50 30.667 -105.667 46 -167 46
c-54 0 -99.333 -18.833 -136 -56.5s-55 -88.167 -55 -151.5c0 -62 18.333 -111.167 55 -147.5s84 -54.5 142 -54.5c62.667 0 116.334 16 161.001 48v-151zM425.001 720.999h-121l86 177h146z" />
    <glyph glyph-name="cacute" unicode="&#x107;" horiz-adv-x="469" 
d="M439 24c-39.333 -21.333 -86.667 -31.999 -142 -31.999c-76 0 -138.667 24.167 -188 72.5s-74 110.833 -74 187.5c1.33301 76 26 138.833 74 188.5s113.667 74.5 197 74.5c51.333 0 95.666 -9.66699 132.999 -29v-125c-35.333 22 -74.666 33 -117.999 33
c-40.667 0 -73.667 -12.167 -99 -36.5s-38.333 -59.5 -39 -105.5c2.66699 -44.667 16 -79.334 40 -104.001s55.667 -37 95 -37c42 0 82.333 11.667 121 35v-122zM357.999 553.001h-121l86 177h146z" />
    <glyph glyph-name="Ccaron" unicode="&#x10c;" horiz-adv-x="613" 
d="M563 30c-40.667 -25.333 -99.333 -38.001 -176 -38.001c-98.667 0 -181.167 31.833 -247.5 95.5s-99.5 146.167 -99.5 247.5c0 102.667 32.167 186.334 96.5 251.001s148.166 97 251.499 97c76 0 134.333 -12.667 175 -38v-148c-50 30.667 -105.667 46 -167 46
c-54 0 -99.333 -18.833 -136 -56.5s-55 -88.167 -55 -151.5c0 -62 18.333 -111.167 55 -147.5s84 -54.5 142 -54.5c62.667 0 116.334 16 161.001 48v-151zM422.001 720.999h-124l-156 177h139l79 -96l79 96h139z" />
    <glyph glyph-name="ccaron" unicode="&#x10d;" horiz-adv-x="469" 
d="M439 24c-39.333 -21.333 -86.667 -31.999 -142 -31.999c-76 0 -138.667 24.167 -188 72.5s-74 110.833 -74 187.5c1.33301 76 26 138.833 74 188.5s113.667 74.5 197 74.5c51.333 0 95.666 -9.66699 132.999 -29v-125c-35.333 22 -74.666 33 -117.999 33
c-40.667 0 -73.667 -12.167 -99 -36.5s-38.333 -59.5 -39 -105.5c2.66699 -44.667 16 -79.334 40 -104.001s55.667 -37 95 -37c42 0 82.333 11.667 121 35v-122zM336.999 553.001h-124l-156 177h139l79 -96l79 96h139z" />
    <glyph glyph-name="Dcaron" unicode="&#x10e;" horiz-adv-x="683" 
d="M295 0h-229.999v674h232c101.333 0 184.333 -31.167 249 -93.5s97 -139.833 97 -232.5c0 -108 -31.833 -193 -95.5 -255s-147.834 -93 -252.501 -93zM292.001 547l-69 -0.000976562v-421h70c62 0 109.833 19.333 143.5 58s50.5 93.334 50.5 164.001
c0 60 -17 108.167 -51 144.5s-82 54.5 -144 54.5zM382.001 720.999h-124l-156 177h139l79 -96l79 96h139z" />
    <glyph glyph-name="dcaron" unicode="&#x10f;" horiz-adv-x="745" 
d="M183 252c0 -40.667 10.667 -73.5 32 -98.5s47.333 -37.5 78 -37.5c33.333 0 60.333 13 81 39s31 60.667 31 104c0 42 -11.167 74.667 -33.5 98s-48.833 35 -79.5 35s-56.5 -12.333 -77.5 -37s-31.5 -59 -31.5 -103zM551 0l-145.999 0.000976562v79
c-34 -56.667 -84.667 -85 -152 -85c-66 0 -118.833 25.667 -158.5 77s-59.5 112.666 -59.5 183.999c0 80 20.667 143 62 189s93.666 69 156.999 69c66 0 116.333 -28 151 -84v278h146v-707zM705.001 497.001h-106l71 211h151z" />
    <glyph glyph-name="Dcroat" unicode="&#x110;" horiz-adv-x="749" 
d="M361 0h-229.999v269h-66v124h66v281h232c101.333 0 184.333 -31.167 249 -93.5s97 -139.833 97 -232.5c0 -108 -31.833 -193 -95.5 -255s-147.834 -93 -252.501 -93zM427.001 269l-138 -0.000976562v-143h70c62 0 109.833 19.333 143.5 58s50.5 93.334 50.5 164.001
c0 60 -17 108.167 -51 144.5s-82 54.5 -144 54.5h-69v-154h138v-124z" />
    <glyph glyph-name="dcroat" unicode="&#x111;" horiz-adv-x="611" 
d="M183 252c0 -40.667 10.667 -73.5 32 -98.5s47.333 -37.5 78 -37.5c33.333 0 60.333 13 81 39s31 60.667 31 104c0 42 -11.167 74.667 -33.5 98s-48.833 35 -79.5 35s-56.5 -12.333 -77.5 -37s-31.5 -59 -31.5 -103zM551 0l-145.999 0.000976562v79
c-34 -56.667 -84.667 -85 -152 -85c-66 0 -118.833 25.667 -158.5 77s-59.5 112.666 -59.5 183.999c0 80 20.667 143 62 189s93.666 69 156.999 69c66 0 116.333 -28 151 -84v135h-151v82h151v61h146v-61h57v-82h-57v-564z" />
    <glyph glyph-name="Emacron" unicode="&#x112;" horiz-adv-x="544" 
d="M484 0h-419v674h415v-123h-260v-153h232v-122h-232v-153h264v-123zM450 764h-356v99h356v-99z" />
    <glyph glyph-name="emacron" unicode="&#x113;" horiz-adv-x="533" 
d="M458 29c-34.667 -22.667 -87.6689 -34.001 -159.002 -34.001c-83.333 0 -148.166 24.167 -194.499 72.5s-69.5 110.5 -69.5 186.5c0 80.667 22.5 143.834 67.5 189.501s100.5 68.5 166.5 68.5c68 0 121.667 -19.833 161 -59.5s59 -98.834 59 -177.501
c0 -15.333 -2.66699 -41.666 -8 -78.999h-298c10 -28 27.333 -49.667 52 -65s54.334 -23 89.001 -23c51.333 0 96 14.333 134 43v-122zM274.998 400.999c-23.333 0 -44 -8.5 -62 -25.5s-30 -42.167 -36 -75.5h176v12c-4.66699 59.333 -30.667 89 -78 89zM447.998 592.999
h-356v99h356v-99z" />
    <glyph glyph-name="Edotaccent" unicode="&#x116;" horiz-adv-x="544" 
d="M484 0h-419v674h415v-123h-260v-153h232v-122h-232v-153h264v-123zM364 810c0 -23.333 -7.83301 -42.833 -23.5 -58.5s-35.167 -23.5 -58.5 -23.5c-24 0 -43.833 7.83301 -59.5 23.5s-23.5 35.167 -23.5 58.5c0 22.667 7.83301 41.834 23.5 57.501s35.5 23.5 59.5 23.5
c23.333 0 42.833 -7.83301 58.5 -23.5s23.5 -34.834 23.5 -57.501z" />
    <glyph glyph-name="edotaccent" unicode="&#x117;" horiz-adv-x="533" 
d="M458 29c-34.667 -22.667 -87.6689 -34.001 -159.002 -34.001c-83.333 0 -148.166 24.167 -194.499 72.5s-69.5 110.5 -69.5 186.5c0 80.667 22.5 143.834 67.5 189.501s100.5 68.5 166.5 68.5c68 0 121.667 -19.833 161 -59.5s59 -98.834 59 -177.501
c0 -15.333 -2.66699 -41.666 -8 -78.999h-298c10 -28 27.333 -49.667 52 -65s54.334 -23 89.001 -23c51.333 0 96 14.333 134 43v-122zM274.998 400.999c-23.333 0 -44 -8.5 -62 -25.5s-30 -42.167 -36 -75.5h176v12c-4.66699 59.333 -30.667 89 -78 89zM361.998 642.999
c0 -23.333 -7.83301 -42.833 -23.5 -58.5s-35.167 -23.5 -58.5 -23.5c-24 0 -43.833 7.83301 -59.5 23.5s-23.5 35.167 -23.5 58.5c0 22.667 7.83301 41.834 23.5 57.501s35.5 23.5 59.5 23.5c23.333 0 42.833 -7.83301 58.5 -23.5s23.5 -34.834 23.5 -57.501z" />
    <glyph glyph-name="Eogonek" unicode="&#x118;" horiz-adv-x="544" 
d="M496 -235c-32 -16.667 -68.333 -25.001 -109 -25.001c-46.667 0 -81.167 11 -103.5 33s-33.5 50 -33.5 84c0 52.667 26.333 100.334 79 143.001h-264v674h415v-123h-260v-153h232v-122h-232v-153h264v-123c-78.667 -48.667 -118 -92 -118 -130
c0 -22.667 14.333 -34 43 -34c29.333 0 58.333 10 87 30v-101z" />
    <glyph glyph-name="eogonek" unicode="&#x119;" horiz-adv-x="533" 
d="M275 401c-23.333 0 -44 -8.5 -62 -25.5s-30 -42.167 -36 -75.5h176v12c-4.66699 59.333 -30.667 89 -78 89zM457 -213c-32 -16.667 -68.334 -25.001 -109.001 -25.001c-46.667 0 -81.167 11 -103.5 33s-33.5 50 -33.5 84c0 42 17.333 81.333 52 118
c-72.667 6.66699 -128.834 33.667 -168.501 81s-59.5 106 -59.5 176c0 80.667 22.5 143.834 67.5 189.501s100.5 68.5 166.5 68.5c68 0 121.667 -19.833 161 -59.5s59 -98.834 59 -177.501c0 -15.333 -2.66699 -41.666 -8 -78.999h-298c10 -28 27.333 -49.667 52 -65
s54.334 -23 89.001 -23c51.333 0 96 14.333 134 43v-122c-1.33301 -1.33301 -3.66602 -2.83301 -6.99902 -4.5l-7 -3.5c-78 -48.667 -117 -91.667 -117 -129c0 -22.667 14.333 -34 43 -34c29.333 0 58.333 10 87 30v-101z" />
    <glyph glyph-name="Ecaron" unicode="&#x11a;" horiz-adv-x="544" 
d="M484 0h-419v674h415v-123h-260v-153h232v-122h-232v-153h264v-123zM341 721h-124l-156 177h139l79 -96l79 96h139z" />
    <glyph glyph-name="ecaron" unicode="&#x11b;" horiz-adv-x="533" 
d="M458 29c-34.667 -22.667 -87.6689 -34.001 -159.002 -34.001c-83.333 0 -148.166 24.167 -194.499 72.5s-69.5 110.5 -69.5 186.5c0 80.667 22.5 143.834 67.5 189.501s100.5 68.5 166.5 68.5c68 0 121.667 -19.833 161 -59.5s59 -98.834 59 -177.501
c0 -15.333 -2.66699 -41.666 -8 -78.999h-298c10 -28 27.333 -49.667 52 -65s54.334 -23 89.001 -23c51.333 0 96 14.333 134 43v-122zM274.998 400.999c-23.333 0 -44 -8.5 -62 -25.5s-30 -42.167 -36 -75.5h176v12c-4.66699 59.333 -30.667 89 -78 89zM333.998 552.999
h-124l-156 177h139l79 -96l79 96h139z" />
    <glyph glyph-name="Gbreve" unicode="&#x11e;" horiz-adv-x="706" 
d="M646 62c-64 -46.667 -144.668 -69.999 -242.001 -69.999c-108 0 -195.667 31 -263 93s-101 146.333 -101 253c0 105.333 35.167 189.666 105.5 252.999s159.5 95 267.5 95c76 0 141.667 -14 197 -42v-154c-64 36.667 -129.667 55 -197 55
c-63.333 0 -113.666 -18.833 -150.999 -56.5s-56 -87.834 -56 -150.501c0 -63.333 18.333 -113.666 55 -150.999s86.667 -56 150 -56c28.667 0 57 4.33301 85 13v127h-109v131h259v-340zM575.999 898.001c0 -62 -18.1689 -107.667 -54.502 -137s-84.166 -44 -143.499 -44
s-107.166 14.667 -143.499 44s-54.5 75 -54.5 137h112c0 -28 7.83301 -49.833 23.5 -65.5s36.5 -23.5 62.5 -23.5s46.833 7.83301 62.5 23.5s23.5 37.5 23.5 65.5h112z" />
    <glyph glyph-name="gbreve" unicode="&#x11f;" horiz-adv-x="585" 
d="M530 49c0 -81.333 -24.334 -142.499 -73.001 -183.499s-109.667 -61.5 -183 -61.5c-71.333 0 -133.666 12.667 -186.999 38v149c46.667 -37.333 104 -56 172 -56c44 0 76 9.33301 96 28s30 48 30 88v34c-29.333 -45.333 -76 -68 -140 -68
c-56 0 -104.167 20.667 -144.5 62s-60.5 102.666 -60.5 183.999c0 72 19.5 131.5 58.5 178.5s90.167 70.5 153.5 70.5c60 0 104.333 -24 133 -72v67h145v-458zM191.999 262.001c0 -42 8 -74 24 -96s39 -33 69 -33c31.333 0 55.833 11.833 73.5 35.5s26.5 52.167 26.5 85.5
c0 90.667 -33 136 -99 136c-29.333 0 -52.333 -11.333 -69 -34s-25 -54 -25 -94zM508.999 731.001c0 -62 -18.1689 -107.667 -54.502 -137s-84.166 -44 -143.499 -44s-107.166 14.667 -143.499 44s-54.5 75 -54.5 137h112c0 -28 7.83301 -49.833 23.5 -65.5
s36.5 -23.5 62.5 -23.5s46.833 7.83301 62.5 23.5s23.5 37.5 23.5 65.5h112z" />
    <glyph glyph-name="uni0122" unicode="&#x122;" horiz-adv-x="706" 
d="M646 62c-64 -46.667 -144.668 -69.999 -242.001 -69.999c-108 0 -195.667 31 -263 93s-101 146.333 -101 253c0 105.333 35.167 189.666 105.5 252.999s159.5 95 267.5 95c76 0 141.667 -14 197 -42v-154c-64 36.667 -129.667 55 -197 55
c-63.333 0 -113.666 -18.833 -150.999 -56.5s-56 -87.834 -56 -150.501c0 -63.333 18.333 -113.666 55 -150.999s86.667 -56 150 -56c28.667 0 57 4.33301 85 13v127h-109v131h259v-340zM334.999 -261.999h-106l71 211h151z" />
    <glyph glyph-name="uni0123" unicode="&#x123;" horiz-adv-x="585" 
d="M530 49c0 -81.333 -24.334 -142.499 -73.001 -183.499s-109.667 -61.5 -183 -61.5c-71.333 0 -133.666 12.667 -186.999 38v149c46.667 -37.333 104 -56 172 -56c44 0 76 9.33301 96 28s30 48 30 88v34c-29.333 -45.333 -76 -68 -140 -68
c-56 0 -104.167 20.667 -144.5 62s-60.5 102.666 -60.5 183.999c0 72 19.5 131.5 58.5 178.5s90.167 70.5 153.5 70.5c60 0 104.333 -24 133 -72v67h145v-458zM191.999 262.001c0 -42 8 -74 24 -96s39 -33 69 -33c31.333 0 55.833 11.833 73.5 35.5s26.5 52.167 26.5 85.5
c0 90.667 -33 136 -99 136c-29.333 0 -52.333 -11.333 -69 -34s-25 -54 -25 -94zM399.999 554.001h-151l116 211h106z" />
    <glyph glyph-name="Imacron" unicode="&#x12a;" horiz-adv-x="304" 
d="M229 0h-154v674h154v-674zM330 760h-356v99h356v-99z" />
    <glyph glyph-name="imacron" unicode="&#x12b;" horiz-adv-x="276" 
d="M211 0h-146v507h146v-507zM316 593h-356v99h356v-99z" />
    <glyph glyph-name="Iogonek" unicode="&#x12e;" horiz-adv-x="304" 
d="M241 -235c-32 -16.667 -68.333 -25 -109 -25c-46.667 0 -81.167 11 -103.5 33s-33.5 50 -33.5 84c0 52.667 26.667 100.667 80 144v673h154v-674c-78.667 -48.667 -118 -92 -118 -130c0 -22.667 14.333 -34 43 -34c29.333 0 58.333 10 87 30v-101z" />
    <glyph glyph-name="iogonek" unicode="&#x12f;" horiz-adv-x="276" 
d="M223 654c0 -23.333 -8.33301 -43.333 -25 -60s-36.667 -25 -60 -25s-43.333 8.33301 -60 25s-25 36.667 -25 60s8.33301 43.333 25 60s36.667 25 60 25s43.333 -8.33301 60 -25s25 -36.667 25 -60zM223 -235c-32 -16.667 -68.333 -25 -109 -25
c-46.667 0 -81.167 11 -103.5 33s-33.5 50 -33.5 84c0 54 29.333 104 88 150v500h146v-507c-78.667 -48.667 -118 -92 -118 -130c0 -22.667 14.333 -34 43 -34c29.333 0 58.333 10 87 30v-101z" />
    <glyph glyph-name="Idotaccent" unicode="&#x130;" horiz-adv-x="304" 
d="M229 0h-154v674h154v-674zM236 810c0 -23.333 -7.83301 -42.833 -23.5 -58.5s-35.167 -23.5 -58.5 -23.5c-24 0 -43.833 7.83301 -59.5 23.5s-23.5 35.167 -23.5 58.5c0 22.667 7.83301 41.834 23.5 57.501s35.5 23.5 59.5 23.5c23.333 0 42.833 -7.83301 58.5 -23.5
s23.5 -34.834 23.5 -57.501z" />
    <glyph glyph-name="dotlessi" unicode="&#x131;" horiz-adv-x="276" 
d="M211 0h-146v507h146v-507z" />
    <glyph glyph-name="uni0136" unicode="&#x136;" horiz-adv-x="662" 
d="M645 0h-193l-226 335l218 339h183l-221 -337zM295 -262h-106l71 211h151zM219 0h-154v674h154v-674z" />
    <glyph glyph-name="uni0137" unicode="&#x137;" horiz-adv-x="548" 
d="M206 0h-146v690h146v-410l160 227h168l-176 -243l179 -264h-169l-162 249v-249zM254 -262h-106l71 211h151z" />
    <glyph glyph-name="Lacute" unicode="&#x139;" horiz-adv-x="488" 
d="M468 0h-403v674h154v-539h249v-135zM377 721h-121l86 177h146z" />
    <glyph glyph-name="lacute" unicode="&#x13a;" horiz-adv-x="276" 
d="M211 0h-146v707h146v-707zM196 754h-121l86 177h146z" />
    <glyph glyph-name="uni013B" unicode="&#x13b;" horiz-adv-x="488" 
d="M245 -262h-106l71 211h151zM468 0h-403v674h154v-539h249v-135z" />
    <glyph glyph-name="uni013C" unicode="&#x13c;" horiz-adv-x="276" 
d="M211 0h-146v707h146v-707zM95 -262h-106l71 211h151z" />
    <glyph glyph-name="Lcaron" unicode="&#x13d;" horiz-adv-x="488" 
d="M468 0h-403v674h154v-539h249v-135zM385 488h-106l71 211h151z" />
    <glyph glyph-name="lcaron" unicode="&#x13e;" horiz-adv-x="276" 
d="M211 0h-146v707h146v-707zM375 498h-106l71 211h151z" />
    <glyph glyph-name="Lslash" unicode="&#x141;" horiz-adv-x="563" 
d="M443 383l-164 -92v-156h249v-135h-403v205l-80 -45v121l80 45v348h154v-262l164 92v-121z" />
    <glyph glyph-name="lslash" unicode="&#x142;" horiz-adv-x="341" 
d="M248 0h-146v263l-77 -53v121l77 53v323h146v-224l83 57v-121l-83 -57v-362z" />
    <glyph glyph-name="Nacute" unicode="&#x143;" horiz-adv-x="697" 
d="M219 0h-154.001v674h169l157 -279c22 -39.333 41.167 -76.166 57.5 -110.499s26.833 -58.5 31.5 -72.5l8 -22c-6.66699 49.333 -10 117.666 -10 204.999v279h154v-674h-169l-161 279c-21.333 36 -40.166 71.5 -56.499 106.5s-27.5 60.833 -33.5 77.5l-8 25
c10 -60 15 -129.667 15 -209v-279zM422.999 721h-121l86 177h146z" />
    <glyph glyph-name="nacute" unicode="&#x144;" horiz-adv-x="580" 
d="M525 0h-145.999v302c0 30 -7 52.833 -21 68.5s-33.667 23.5 -59 23.5c-26.667 0 -48.834 -10.5 -66.501 -31.5s-26.5 -52.5 -26.5 -94.5v-268h-146v507h146v-86c12.667 28 32.167 50.167 58.5 66.5s57.833 24.5 94.5 24.5c52 0 92.667 -15.5 122 -46.5
s44 -76.5 44 -136.5v-329zM379.001 554h-121l86 177h146z" />
    <glyph glyph-name="uni0145" unicode="&#x145;" horiz-adv-x="697" 
d="M219 0h-154.001v674h169l157 -279c22 -39.333 41.167 -76.166 57.5 -110.499s26.833 -58.5 31.5 -72.5l8 -22c-6.66699 49.333 -10 117.666 -10 204.999v279h154v-674h-169l-161 279c-21.333 36 -40.166 71.5 -56.499 106.5s-27.5 60.833 -33.5 77.5l-8 25
c10 -60 15 -129.667 15 -209v-279zM314.999 -262h-106l71 211h151z" />
    <glyph glyph-name="uni0146" unicode="&#x146;" horiz-adv-x="580" 
d="M525 0h-145.999v302c0 30 -7 52.833 -21 68.5s-33.667 23.5 -59 23.5c-26.667 0 -48.834 -10.5 -66.501 -31.5s-26.5 -52.5 -26.5 -94.5v-268h-146v507h146v-86c12.667 28 32.167 50.167 58.5 66.5s57.833 24.5 94.5 24.5c52 0 92.667 -15.5 122 -46.5
s44 -76.5 44 -136.5v-329zM255.001 -262h-106l71 211h151z" />
    <glyph glyph-name="Ncaron" unicode="&#x147;" horiz-adv-x="697" 
d="M219 0h-154.001v674h169l157 -279c22 -39.333 41.167 -76.166 57.5 -110.499s26.833 -58.5 31.5 -72.5l8 -22c-6.66699 49.333 -10 117.666 -10 204.999v279h154v-674h-169l-161 279c-21.333 36 -40.166 71.5 -56.499 106.5s-27.5 60.833 -33.5 77.5l-8 25
c10 -60 15 -129.667 15 -209v-279zM414.999 721h-124l-156 177h139l79 -96l79 96h139z" />
    <glyph glyph-name="ncaron" unicode="&#x148;" horiz-adv-x="580" 
d="M525 0h-145.999v302c0 30 -7 52.833 -21 68.5s-33.667 23.5 -59 23.5c-26.667 0 -48.834 -10.5 -66.501 -31.5s-26.5 -52.5 -26.5 -94.5v-268h-146v507h146v-86c12.667 28 32.167 50.167 58.5 66.5s57.833 24.5 94.5 24.5c52 0 92.667 -15.5 122 -46.5
s44 -76.5 44 -136.5v-329zM361.001 554h-124l-156 177h139l79 -96l79 96h139z" />
    <glyph glyph-name="Omacron" unicode="&#x14c;" horiz-adv-x="736" 
d="M696 339c0 -103.333 -29.833 -186.833 -89.5 -250.5s-139.167 -95.5 -238.5 -95.5c-100 0 -179.667 31.667 -239 95s-89 147 -89 251c0 103.333 29.833 186.833 89.5 250.5s139.167 95.5 238.5 95.5c100 0 179.667 -31.667 239 -95s89 -147 89 -251zM205 339
c0 -63.333 14.667 -113.5 44 -150.5s69 -55.5 119 -55.5s89.667 18.5 119 55.5s44 87.167 44 150.5s-14.667 113.5 -44 150.5s-69 55.5 -119 55.5s-89.667 -18.5 -119 -55.5s-44 -87.167 -44 -150.5zM545 760h-356v99h356v-99z" />
    <glyph glyph-name="omacron" unicode="&#x14d;" horiz-adv-x="567" 
d="M532 256c0 -76.667 -21.833 -139.834 -65.5 -189.501s-104.5 -74.5 -182.5 -74.5c-79.333 0 -140.666 23.833 -183.999 71.5s-65 108.834 -65 183.501c0 78 22.667 142.167 68 192.5s105.666 75.5 180.999 75.5c78.667 0 139.667 -24.333 183 -73s65 -110.667 65 -186z
M187 253c0 -43.333 8.16699 -78.834 24.5 -106.501s40.833 -41.5 73.5 -41.5c32 0 55.833 13.5 71.5 40.5s23.5 62.167 23.5 105.5c0 99.333 -32.333 149 -97 149c-32 0 -56 -13.667 -72 -41s-24 -62.666 -24 -105.999zM462 592.999h-356v99h356v-99z" />
    <glyph glyph-name="Ohungarumlaut" unicode="&#x150;" horiz-adv-x="736" 
d="M696 339c0 -103.333 -29.833 -186.833 -89.5 -250.5s-139.167 -95.5 -238.5 -95.5c-100 0 -179.667 31.667 -239 95s-89 147 -89 251c0 103.333 29.833 186.833 89.5 250.5s139.167 95.5 238.5 95.5c100 0 179.667 -31.667 239 -95s89 -147 89 -251zM205 339
c0 -63.333 14.667 -113.5 44 -150.5s69 -55.5 119 -55.5s89.667 18.5 119 55.5s44 87.167 44 150.5s-14.667 113.5 -44 150.5s-69 55.5 -119 55.5s-89.667 -18.5 -119 -55.5s-44 -87.167 -44 -150.5zM523 721h-108l94 177h145zM336 721h-108l86 177h133z" />
    <glyph glyph-name="ohungarumlaut" unicode="&#x151;" horiz-adv-x="567" 
d="M532 256c0 -76.667 -21.833 -139.834 -65.5 -189.501s-104.5 -74.5 -182.5 -74.5c-79.333 0 -140.666 23.833 -183.999 71.5s-65 108.834 -65 183.501c0 78 22.667 142.167 68 192.5s105.666 75.5 180.999 75.5c78.667 0 139.667 -24.333 183 -73s65 -110.667 65 -186z
M187 253c0 -43.333 8.16699 -78.834 24.5 -106.501s40.833 -41.5 73.5 -41.5c32 0 55.833 13.5 71.5 40.5s23.5 62.167 23.5 105.5c0 99.333 -32.333 149 -97 149c-32 0 -56 -13.667 -72 -41s-24 -62.666 -24 -105.999zM446 553.999h-108l94 177h145zM259 553.999h-108
l86 177h133z" />
    <glyph glyph-name="OE" unicode="&#x152;" horiz-adv-x="1000" 
d="M205 339c0 -63.333 14 -113.5 42 -150.5s66.667 -55.5 116 -55.5s88 18.5 116 55.5s42 87.167 42 150.5s-14 113.5 -42 150.5s-66.667 55.5 -116 55.5s-88 -18.5 -116 -55.5s-42 -87.167 -42 -150.5zM940 0h-419v44c-46.667 -34 -99.334 -51 -158.001 -51
c-99.333 0 -178 31.5 -236 94.5s-87 146.833 -87 251.5c0 104 29 187.667 87 251s136.667 95 236 95c58.667 0 111.334 -16.667 158.001 -50v39h415v-123h-270v-153h242v-122h-242v-153h274v-123z" />
    <glyph glyph-name="oe" unicode="&#x153;" horiz-adv-x="879" 
d="M187 253c0 -43.333 8.16602 -78.834 24.499 -106.501s40.833 -41.5 73.5 -41.5s57.834 13.667 75.501 41s26.5 62.333 26.5 105c0 43.333 -8.66699 79 -26 107s-43.333 42 -78 42c-32 0 -56 -13.667 -72 -41s-24 -62.666 -24 -105.999zM626.999 400.999
c-23.333 0 -44 -8.5 -62 -25.5s-30 -42.167 -36 -75.5h176l-1 21c-6 53.333 -31.667 80 -77 80zM809.999 28.999c-34.667 -22.667 -87.667 -34.001 -159 -34.001c-78 0 -141.667 24.667 -191 74c-44.667 -51.333 -103.334 -77 -176.001 -77
c-79.333 0 -140.666 23.833 -183.999 71.5s-65 108.834 -65 183.501c0 78 22.667 142.167 68 192.5s105.666 75.5 180.999 75.5c72 0 130 -24 174 -72c46 46 100.333 69 163 69c68 0 121.667 -19.833 161 -59.5s59 -98.834 59 -177.501
c0 -15.333 -2.66699 -41.666 -8 -78.999h-298c10 -28 27.333 -49.667 52 -65s54.334 -23 89.001 -23c51.333 0 96 14.333 134 43v-122z" />
    <glyph glyph-name="Racute" unicode="&#x154;" horiz-adv-x="614" 
d="M295 549h-76v-190h73c66.667 0 100 32.667 100 98c0 28.667 -8.66699 51.167 -26 67.5s-41 24.5 -71 24.5zM219 0h-154v674h233c75.333 0 135.833 -20 181.5 -60s68.5 -92 68.5 -156c0 -96 -41 -162.333 -123 -199l171 -259h-184l-146 234h-47v-234zM355 721h-121l86 177
h146z" />
    <glyph glyph-name="racute" unicode="&#x155;" horiz-adv-x="370" 
d="M205 0h-146.002l1 507h145v-94c9.33301 29.333 24.833 52.833 46.5 70.5s46.834 26.5 75.501 26.5c16 0 28.667 -1.33301 38 -4v-138c-16 7.33301 -34.333 11 -55 11c-31.333 0 -56.666 -11.5 -75.999 -34.5s-29 -53.5 -29 -91.5v-253zM279.998 554h-121l86 177h146z" />
    <glyph glyph-name="uni0156" unicode="&#x156;" horiz-adv-x="614" 
d="M295 549h-76v-190h73c66.667 0 100 32.667 100 98c0 28.667 -8.66699 51.167 -26 67.5s-41 24.5 -71 24.5zM271 -262h-106l71 211h151zM219 0h-154v674h233c75.333 0 135.833 -20 181.5 -60s68.5 -92 68.5 -156c0 -96 -41 -162.333 -123 -199l171 -259h-184l-146 234h-47
v-234z" />
    <glyph glyph-name="uni0157" unicode="&#x157;" horiz-adv-x="370" 
d="M86 -262h-106l71 211h151zM205 0h-146.002l1 507h145v-94c9.33301 29.333 24.833 52.833 46.5 70.5s46.834 26.5 75.501 26.5c16 0 28.667 -1.33301 38 -4v-138c-16 7.33301 -34.333 11 -55 11c-31.333 0 -56.666 -11.5 -75.999 -34.5s-29 -53.5 -29 -91.5v-253z" />
    <glyph glyph-name="Rcaron" unicode="&#x158;" horiz-adv-x="614" 
d="M295 549h-76v-190h73c66.667 0 100 32.667 100 98c0 28.667 -8.66699 51.167 -26 67.5s-41 24.5 -71 24.5zM219 0h-154v674h233c75.333 0 135.833 -20 181.5 -60s68.5 -92 68.5 -156c0 -96 -41 -162.333 -123 -199l171 -259h-184l-146 234h-47v-234zM378 721h-124
l-156 177h139l79 -96l79 96h139z" />
    <glyph glyph-name="rcaron" unicode="&#x159;" horiz-adv-x="370" 
d="M205 0h-146.002l1 507h145v-94c9.33301 29.333 24.833 52.833 46.5 70.5s46.834 26.5 75.501 26.5c16 0 28.667 -1.33301 38 -4v-138c-16 7.33301 -34.333 11 -55 11c-31.333 0 -56.666 -11.5 -75.999 -34.5s-29 -53.5 -29 -91.5v-253zM273.998 554h-124l-156 177h139
l79 -96l79 96h139z" />
    <glyph glyph-name="Sacute" unicode="&#x15a;" horiz-adv-x="514" 
d="M484 196c0 -60.667 -22.335 -109.832 -67.002 -147.499s-104 -56.5 -178 -56.5c-79.333 0 -144 14 -194 42v155c60.667 -44 125.334 -66 194.001 -66c23.333 0 42.666 6.16699 57.999 18.5s23 28.5 23 48.5c0 6.66699 -1 13 -3 19s-5.66699 11.667 -11 17
s-10.5 9.83301 -15.5 13.5s-12.333 8 -22 13l-24.5 12.5c-6.66699 3.33301 -16.5 8 -29.5 14s-23.5 10.667 -31.5 14c-43.333 20 -78.166 44.667 -104.499 74s-39.5 68.333 -39.5 117c0 58 21.333 104.833 64 140.5s101.667 53.5 177 53.5c67.333 0 125.333 -11.333 174 -34
v-144c-54 31.333 -110 47 -168 47c-26 0 -45.833 -5.33301 -59.5 -16s-20.5 -24.334 -20.5 -41.001s8.33301 -31.5 25 -44.5s41.667 -26.833 75 -41.5c20.667 -9.33301 37.834 -17.5 51.501 -24.5s29.334 -16.667 47.001 -29s31.667 -25.333 42 -39
s19.166 -30.5 26.499 -50.5s11 -41.667 11 -65zM322.998 721.002h-121l86 177h146z" />
    <glyph glyph-name="sacute" unicode="&#x15b;" horiz-adv-x="436" 
d="M406 153c0 -50 -18.002 -88.6641 -54.002 -115.997s-83.667 -41 -143 -41c-61.333 0 -112.666 10.333 -153.999 31v130c46 -32 94.667 -48 146 -48c36.667 0 55 11.667 55 35c0 6 -1.66699 11.667 -5 17s-9 10.333 -17 15s-15.333 8.5 -22 11.5l-29 12.5
c-12.667 5.33301 -22.334 9.66602 -29.001 12.999c-67.333 32 -101 80 -101 144c0 49.333 18.833 87.666 56.5 114.999s84.5 41 140.5 41c52 0 95.333 -7 130 -21v-125c-35.333 20.667 -76.666 31 -123.999 31c-17.333 0 -30.666 -3.5 -39.999 -10.5s-14 -15.833 -14 -26.5
c0 -6 1.66699 -11.667 5 -17s8.83301 -10.333 16.5 -15s15 -8.83398 22 -12.501s16.667 -8.16699 29 -13.5s22.166 -10 29.499 -14c30.667 -16 55.334 -34.5 74.001 -55.5s28 -47.833 28 -80.5zM301.998 554.003h-121l86 177h146z" />
    <glyph glyph-name="uni015E" unicode="&#x15e;" horiz-adv-x="514" 
d="M484 196c0 -60.667 -22.335 -109.832 -67.002 -147.499s-104 -56.5 -178 -56.5c-79.333 0 -144 14 -194 42v155c60.667 -44 125.334 -66 194.001 -66c23.333 0 42.666 6.16699 57.999 18.5s23 28.5 23 48.5c0 6.66699 -1 13 -3 19s-5.66699 11.667 -11 17
s-10.5 9.83301 -15.5 13.5s-12.333 8 -22 13l-24.5 12.5c-6.66699 3.33301 -16.5 8 -29.5 14s-23.5 10.667 -31.5 14c-43.333 20 -78.166 44.667 -104.499 74s-39.5 68.333 -39.5 117c0 58 21.333 104.833 64 140.5s101.667 53.5 177 53.5c67.333 0 125.333 -11.333 174 -34
v-144c-54 31.333 -110 47 -168 47c-26 0 -45.833 -5.33301 -59.5 -16s-20.5 -24.334 -20.5 -41.001s8.33301 -31.5 25 -44.5s41.667 -26.833 75 -41.5c20.667 -9.33301 37.834 -17.5 51.501 -24.5s29.334 -16.667 47.001 -29s31.667 -25.333 42 -39
s19.166 -30.5 26.499 -50.5s11 -41.667 11 -65zM338.998 -124.998c0 -42 -15.167 -76.334 -45.5 -103.001s-74.833 -40 -133.5 -40v91c24 0 42.5 5.66699 55.5 17s19.5 27 19.5 47c0 18.667 -8.66699 39.334 -26 62.001h113c11.333 -18 17 -42.667 17 -74z" />
    <glyph glyph-name="uni015F" unicode="&#x15f;" horiz-adv-x="436" 
d="M406 153c0 -50 -18.002 -88.6641 -54.002 -115.997s-83.667 -41 -143 -41c-61.333 0 -112.666 10.333 -153.999 31v130c46 -32 94.667 -48 146 -48c36.667 0 55 11.667 55 35c0 6 -1.66699 11.667 -5 17s-9 10.333 -17 15s-15.333 8.5 -22 11.5l-29 12.5
c-12.667 5.33301 -22.334 9.66602 -29.001 12.999c-67.333 32 -101 80 -101 144c0 49.333 18.833 87.666 56.5 114.999s84.5 41 140.5 41c52 0 95.333 -7 130 -21v-125c-35.333 20.667 -76.666 31 -123.999 31c-17.333 0 -30.666 -3.5 -39.999 -10.5s-14 -15.833 -14 -26.5
c0 -6 1.66699 -11.667 5 -17s8.83301 -10.333 16.5 -15s15 -8.83398 22 -12.501s16.667 -8.16699 29 -13.5s22.166 -10 29.499 -14c30.667 -16 55.334 -34.5 74.001 -55.5s28 -47.833 28 -80.5zM298.998 -124.997c0 -42 -15.167 -76.334 -45.5 -103.001
s-74.833 -40 -133.5 -40v91c24 0 42.5 5.66699 55.5 17s19.5 27 19.5 47c0 18.667 -8.66699 39.334 -26 62.001h113c11.333 -18 17 -42.667 17 -74z" />
    <glyph glyph-name="Scaron" unicode="&#x160;" horiz-adv-x="514" 
d="M484 196c0 -60.667 -22.335 -109.832 -67.002 -147.499s-104 -56.5 -178 -56.5c-79.333 0 -144 14 -194 42v155c60.667 -44 125.334 -66 194.001 -66c23.333 0 42.666 6.16699 57.999 18.5s23 28.5 23 48.5c0 6.66699 -1 13 -3 19s-5.66699 11.667 -11 17
s-10.5 9.83301 -15.5 13.5s-12.333 8 -22 13l-24.5 12.5c-6.66699 3.33301 -16.5 8 -29.5 14s-23.5 10.667 -31.5 14c-43.333 20 -78.166 44.667 -104.499 74s-39.5 68.333 -39.5 117c0 58 21.333 104.833 64 140.5s101.667 53.5 177 53.5c67.333 0 125.333 -11.333 174 -34
v-144c-54 31.333 -110 47 -168 47c-26 0 -45.833 -5.33301 -59.5 -16s-20.5 -24.334 -20.5 -41.001s8.33301 -31.5 25 -44.5s41.667 -26.833 75 -41.5c20.667 -9.33301 37.834 -17.5 51.501 -24.5s29.334 -16.667 47.001 -29s31.667 -25.333 42 -39
s19.166 -30.5 26.499 -50.5s11 -41.667 11 -65zM327.998 721.002h-124l-156 177h139l79 -96l79 96h139z" />
    <glyph glyph-name="scaron" unicode="&#x161;" horiz-adv-x="436" 
d="M406 153c0 -50 -18.002 -88.6641 -54.002 -115.997s-83.667 -41 -143 -41c-61.333 0 -112.666 10.333 -153.999 31v130c46 -32 94.667 -48 146 -48c36.667 0 55 11.667 55 35c0 6 -1.66699 11.667 -5 17s-9 10.333 -17 15s-15.333 8.5 -22 11.5l-29 12.5
c-12.667 5.33301 -22.334 9.66602 -29.001 12.999c-67.333 32 -101 80 -101 144c0 49.333 18.833 87.666 56.5 114.999s84.5 41 140.5 41c52 0 95.333 -7 130 -21v-125c-35.333 20.667 -76.666 31 -123.999 31c-17.333 0 -30.666 -3.5 -39.999 -10.5s-14 -15.833 -14 -26.5
c0 -6 1.66699 -11.667 5 -17s8.83301 -10.333 16.5 -15s15 -8.83398 22 -12.501s16.667 -8.16699 29 -13.5s22.166 -10 29.499 -14c30.667 -16 55.334 -34.5 74.001 -55.5s28 -47.833 28 -80.5zM300.998 553.003h-124l-156 177h139l79 -96l79 96h139z" />
    <glyph glyph-name="uni0162" unicode="&#x162;" horiz-adv-x="544" 
d="M514 550h-164v-550h-155v550h-165v124h484v-124zM349 -125c0 -42 -15.167 -76.334 -45.5 -103.001s-74.833 -40 -133.5 -40v91c24 0 42.5 5.66699 55.5 17s19.5 27 19.5 47c0 18.667 -8.66699 39.334 -26 62.001h113c11.333 -18 17 -42.667 17 -74z" />
    <glyph glyph-name="uni0163" unicode="&#x163;" horiz-adv-x="386" 
d="M356 11c-24.667 -10.667 -58.001 -16 -100.001 -16c-115.333 0 -173 57.667 -173 173v232h-73v107h73v120h146v-120h118v-107h-118v-233c0 -18 5.16699 -31.667 15.5 -41s23.833 -14 40.5 -14c26.667 0 50.334 6.66699 71.001 20v-121zM288.999 -125
c0 -42 -15.167 -76.334 -45.5 -103.001s-74.833 -40 -133.5 -40v91c24 0 42.5 5.66699 55.5 17s19.5 27 19.5 47c0 18.667 -8.66699 39.334 -26 62.001h113c11.333 -18 17 -42.667 17 -74z" />
    <glyph glyph-name="Tcaron" unicode="&#x164;" horiz-adv-x="544" 
d="M514 550h-164v-550h-155v550h-165v124h484v-124zM334 721h-124l-156 177h139l79 -96l79 96h139z" />
    <glyph glyph-name="tcaron" unicode="&#x165;" horiz-adv-x="386" 
d="M356 11c-24.667 -10.667 -58.001 -16 -100.001 -16c-115.333 0 -173 57.667 -173 173v232h-73v107h73v120h146v-120h118v-107h-118v-233c0 -18 5.16699 -31.667 15.5 -41s23.833 -14 40.5 -14c26.667 0 50.334 6.66699 71.001 20v-121zM385.999 588h-106l71 211h151z" />
    <glyph glyph-name="Umacron" unicode="&#x16a;" horiz-adv-x="668" 
d="M608 261c0 -88 -24.667 -155.167 -74 -201.5s-116 -69.5 -200 -69.5c-82.667 0 -149 23 -199 69s-75 111 -75 195v420h154v-419c0 -83.333 40 -125 120 -125s120 43.333 120 130v414h154v-413zM520 760h-356v99h356v-99z" />
    <glyph glyph-name="umacron" unicode="&#x16b;" horiz-adv-x="580" 
d="M520 0h-146v81c-26.667 -56.667 -78 -85 -154 -85c-52 0 -92.5 14.5 -121.5 43.5s-43.5 71.833 -43.5 128.5v339h146v-306c0 -59.333 26 -89 78 -89c63.333 0 95 42.333 95 127v268h146v-507zM464 593h-356v99h356v-99z" />
    <glyph glyph-name="Uring" unicode="&#x16e;" horiz-adv-x="668" 
d="M608 261c0 -88 -24.667 -155.167 -74 -201.5s-116 -69.5 -200 -69.5c-82.667 0 -149 23 -199 69s-75 111 -75 195v420h154v-419c0 -83.333 40 -125 120 -125s120 43.333 120 130v414h154v-413zM472 846c0 -37.333 -13.333 -69.333 -40 -96s-58.667 -40 -96 -40
s-69.333 13.333 -96 40s-40 58.667 -40 96s13.333 69.333 40 96s58.667 40 96 40s69.333 -13.333 96 -40s40 -58.667 40 -96zM283 849c0 -15.333 5 -28.5 15 -39.5s22.667 -16.5 38 -16.5s28 5.5 38 16.5s15 24.167 15 39.5s-5 28.5 -15 39.5s-22.667 16.5 -38 16.5
s-28 -5.5 -38 -16.5s-15 -24.167 -15 -39.5z" />
    <glyph glyph-name="uring" unicode="&#x16f;" horiz-adv-x="580" 
d="M520 0h-146v81c-26.667 -56.667 -78 -85 -154 -85c-52 0 -92.5 14.5 -121.5 43.5s-43.5 71.833 -43.5 128.5v339h146v-306c0 -59.333 26 -89 78 -89c63.333 0 95 42.333 95 127v268h146v-507zM427 679c0 -37.333 -13.333 -69.333 -40 -96s-58.667 -40 -96 -40
s-69.333 13.333 -96 40s-40 58.667 -40 96s13.333 69.333 40 96s58.667 40 96 40s69.333 -13.333 96 -40s40 -58.667 40 -96zM238 682c0 -15.333 5 -28.5 15 -39.5s22.667 -16.5 38 -16.5s28 5.5 38 16.5s15 24.167 15 39.5s-5 28.5 -15 39.5s-22.667 16.5 -38 16.5
s-28 -5.5 -38 -16.5s-15 -24.167 -15 -39.5z" />
    <glyph glyph-name="Uhungarumlaut" unicode="&#x170;" horiz-adv-x="668" 
d="M608 261c0 -88 -24.667 -155.167 -74 -201.5s-116 -69.5 -200 -69.5c-82.667 0 -149 23 -199 69s-75 111 -75 195v420h154v-419c0 -83.333 40 -125 120 -125s120 43.333 120 130v414h154v-413zM485 721h-108l94 177h145zM298 721h-108l86 177h133z" />
    <glyph glyph-name="uhungarumlaut" unicode="&#x171;" horiz-adv-x="580" 
d="M520 0h-146v81c-26.667 -56.667 -78 -85 -154 -85c-52 0 -92.5 14.5 -121.5 43.5s-43.5 71.833 -43.5 128.5v339h146v-306c0 -59.333 26 -89 78 -89c63.333 0 95 42.333 95 127v268h146v-507zM445 554h-108l94 177h145zM258 554h-108l86 177h133z" />
    <glyph glyph-name="Uogonek" unicode="&#x172;" horiz-adv-x="668" 
d="M608 261c0 -65.333 -14.167 -119.5 -42.5 -162.5s-67.5 -73.167 -117.5 -90.5c-78.667 -48.667 -118 -92 -118 -130c0 -22.667 14.333 -34 43 -34c29.333 0 58.333 10 87 30v-101c-32 -16.667 -68.333 -25 -109 -25c-46.667 0 -81.167 11 -103.5 33s-33.5 50 -33.5 84
c0 45.333 21 88.333 63 129c-66.667 10 -119.5 37.333 -158.5 82s-58.5 104 -58.5 178v420h154v-419c0 -83.333 40 -125 120 -125s120 43.333 120 130v414h154v-413z" />
    <glyph glyph-name="uogonek" unicode="&#x173;" horiz-adv-x="580" 
d="M532 -235c-32 -16.667 -68.333 -25 -109 -25c-46.667 0 -81.167 11 -103.5 33s-33.5 50 -33.5 84c0 54 29.333 104 88 150v74c-26.667 -56.667 -78 -85 -154 -85c-52 0 -92.5 14.5 -121.5 43.5s-43.5 71.833 -43.5 128.5v339h146v-306c0 -59.333 26 -89 78 -89
c63.333 0 95 42.333 95 127v268h146v-507c-78.667 -48.667 -118 -92 -118 -130c0 -22.667 14.333 -34 43 -34c29.333 0 58.333 10 87 30v-101z" />
    <glyph glyph-name="Ydieresis" unicode="&#x178;" horiz-adv-x="643" 
d="M397 0h-154v247l-230 427h180l41 -98l53 -130l27 -70l5 -16c6.66699 30 36 102 88 216l44 98h179l-233 -426v-248zM546 809c0 -23.333 -8 -42.833 -24 -58.5s-35.667 -23.5 -59 -23.5c-24 0 -43.833 7.83301 -59.5 23.5s-23.5 35.167 -23.5 58.5
c0 22.667 7.83301 41.834 23.5 57.501s35.5 23.5 59.5 23.5c23.333 0 43 -7.83301 59 -23.5s24 -34.834 24 -57.501zM277 809c0 -23.333 -7.83301 -42.833 -23.5 -58.5s-35.167 -23.5 -58.5 -23.5c-24 0 -43.833 7.83301 -59.5 23.5s-23.5 35.167 -23.5 58.5
c0 22.667 7.83301 41.834 23.5 57.501s35.5 23.5 59.5 23.5c23.333 0 42.833 -7.83301 58.5 -23.5s23.5 -34.834 23.5 -57.501z" />
    <glyph glyph-name="Zacute" unicode="&#x179;" horiz-adv-x="621" 
d="M561 0h-501v113l302 437h-296v124h483v-109l-304 -441h316v-124zM393 721h-121l86 177h146z" />
    <glyph glyph-name="zacute" unicode="&#x17a;" horiz-adv-x="479" 
d="M439 0h-399v105l222 290h-213v112h378v-101l-222 -293h234v-113zM321 553h-121l86 177h146z" />
    <glyph glyph-name="Zdotaccent" unicode="&#x17b;" horiz-adv-x="621" 
d="M561 0h-501v113l302 437h-296v124h483v-109l-304 -441h316v-124zM411 810c0 -23.333 -7.83301 -42.833 -23.5 -58.5s-35.167 -23.5 -58.5 -23.5c-24 0 -43.833 7.83301 -59.5 23.5s-23.5 35.167 -23.5 58.5c0 22.667 7.83301 41.834 23.5 57.501s35.5 23.5 59.5 23.5
c23.333 0 42.833 -7.83301 58.5 -23.5s23.5 -34.834 23.5 -57.501z" />
    <glyph glyph-name="zdotaccent" unicode="&#x17c;" horiz-adv-x="479" 
d="M439 0h-399v105l222 290h-213v112h378v-101l-222 -293h234v-113zM334 642c0 -23.333 -7.83301 -42.833 -23.5 -58.5s-35.167 -23.5 -58.5 -23.5c-24 0 -43.833 7.83301 -59.5 23.5s-23.5 35.167 -23.5 58.5c0 22.667 7.83301 41.834 23.5 57.501s35.5 23.5 59.5 23.5
c23.333 0 42.833 -7.83301 58.5 -23.5s23.5 -34.834 23.5 -57.501z" />
    <glyph glyph-name="Zcaron" unicode="&#x17d;" horiz-adv-x="621" 
d="M561 0h-501v113l302 437h-296v124h483v-109l-304 -441h316v-124zM382 721h-124l-156 177h139l79 -96l79 96h139z" />
    <glyph glyph-name="zcaron" unicode="&#x17e;" horiz-adv-x="479" 
d="M439 0h-399v105l222 290h-213v112h378v-101l-222 -293h234v-113zM321 554h-124l-156 177h139l79 -96l79 96h139z" />
    <glyph glyph-name="florin" unicode="&#x192;" horiz-adv-x="522" 
d="M270 -42c-10 -65.333 -31.998 -117.333 -65.998 -156s-80 -58 -138 -58c-40.667 0 -72.667 5 -96 15v118c21.333 -10.667 45.333 -16 72 -16c25.333 0 44.166 8.83301 56.499 26.5s21.166 44.5 26.499 80.5l48 311h-87v107h104l12 79c10 65.333 32 117.333 66 156
s80 58 138 58c38 0 66.667 -3.33301 86 -10v-118c-18.667 7.33301 -37.667 11 -57 11c-48 0 -77.333 -35.667 -88 -107l-11 -69h96v-107h-112z" />
    <glyph glyph-name="uni0218" unicode="&#x218;" horiz-adv-x="514" 
d="M484 196c0 -60.667 -22.335 -109.832 -67.002 -147.499s-104 -56.5 -178 -56.5c-79.333 0 -144 14 -194 42v155c60.667 -44 125.334 -66 194.001 -66c23.333 0 42.666 6.16699 57.999 18.5s23 28.5 23 48.5c0 6.66699 -1 13 -3 19s-5.66699 11.667 -11 17
s-10.5 9.83301 -15.5 13.5s-12.333 8 -22 13l-24.5 12.5c-6.66699 3.33301 -16.5 8 -29.5 14s-23.5 10.667 -31.5 14c-43.333 20 -78.166 44.667 -104.499 74s-39.5 68.333 -39.5 117c0 58 21.333 104.833 64 140.5s101.667 53.5 177 53.5c67.333 0 125.333 -11.333 174 -34
v-144c-54 31.333 -110 47 -168 47c-26 0 -45.833 -5.33301 -59.5 -16s-20.5 -24.334 -20.5 -41.001s8.33301 -31.5 25 -44.5s41.667 -26.833 75 -41.5c20.667 -9.33301 37.834 -17.5 51.501 -24.5s29.334 -16.667 47.001 -29s31.667 -25.333 42 -39
s19.166 -30.5 26.499 -50.5s11 -41.667 11 -65zM224.998 -261.998h-106l71 211h151z" />
    <glyph glyph-name="uni0219" unicode="&#x219;" horiz-adv-x="436" 
d="M406 153c0 -50 -18.002 -88.6641 -54.002 -115.997s-83.667 -41 -143 -41c-61.333 0 -112.666 10.333 -153.999 31v130c46 -32 94.667 -48 146 -48c36.667 0 55 11.667 55 35c0 6 -1.66699 11.667 -5 17s-9 10.333 -17 15s-15.333 8.5 -22 11.5l-29 12.5
c-12.667 5.33301 -22.334 9.66602 -29.001 12.999c-67.333 32 -101 80 -101 144c0 49.333 18.833 87.666 56.5 114.999s84.5 41 140.5 41c52 0 95.333 -7 130 -21v-125c-35.333 20.667 -76.666 31 -123.999 31c-17.333 0 -30.666 -3.5 -39.999 -10.5s-14 -15.833 -14 -26.5
c0 -6 1.66699 -11.667 5 -17s8.83301 -10.333 16.5 -15s15 -8.83398 22 -12.501s16.667 -8.16699 29 -13.5s22.166 -10 29.499 -14c30.667 -16 55.334 -34.5 74.001 -55.5s28 -47.833 28 -80.5zM184.998 -261.997h-106l71 211h151z" />
    <glyph glyph-name="uni021A" unicode="&#x21a;" horiz-adv-x="544" 
d="M231 -262h-106l71 211h151zM514 550h-164v-550h-155v550h-165v124h484v-124z" />
    <glyph glyph-name="uni021B" unicode="&#x21b;" horiz-adv-x="386" 
d="M356 11c-24.667 -10.667 -58.001 -16 -100.001 -16c-115.333 0 -173 57.667 -173 173v232h-73v107h73v120h146v-120h118v-107h-118v-233c0 -18 5.16699 -31.667 15.5 -41s23.833 -14 40.5 -14c26.667 0 50.334 6.66699 71.001 20v-121zM213.999 -262h-106l71 211h151z
" />
    <glyph glyph-name="circumflex" unicode="&#x2c6;" horiz-adv-x="500" 
d="M171 621h-139l156 177h124l156 -177h-139l-79 96z" />
    <glyph glyph-name="caron" unicode="&#x2c7;" horiz-adv-x="500" 
d="M312 621h-124l-156 177h139l79 -96l79 96h139z" />
    <glyph glyph-name="uni02C9" unicode="&#x2c9;" horiz-adv-x="500" 
d="M428 651h-356v99h356v-99z" />
    <glyph glyph-name="breve" unicode="&#x2d8;" horiz-adv-x="500" 
d="M448 798c0 -62 -18.1689 -107.667 -54.502 -137s-84.166 -44 -143.499 -44s-107.166 14.667 -143.499 44s-54.5 75 -54.5 137h112c0 -28 7.83301 -49.833 23.5 -65.5s36.5 -23.5 62.5 -23.5s46.833 7.83301 62.5 23.5s23.5 37.5 23.5 65.5h112z" />
    <glyph glyph-name="dotaccent" unicode="&#x2d9;" horiz-adv-x="500" 
d="M332 711c0 -23.333 -7.83301 -42.833 -23.5 -58.5s-35.167 -23.5 -58.5 -23.5c-24 0 -43.833 7.83301 -59.5 23.5s-23.5 35.167 -23.5 58.5c0 22.667 7.83301 41.834 23.5 57.501s35.5 23.5 59.5 23.5c23.333 0 42.833 -7.83301 58.5 -23.5s23.5 -34.834 23.5 -57.501z
" />
    <glyph glyph-name="ring" unicode="&#x2da;" horiz-adv-x="500" 
d="M386 710c0 -37.333 -13.333 -69.333 -40 -96s-58.667 -40 -96 -40s-69.333 13.333 -96 40s-40 58.667 -40 96s13.333 69.333 40 96s58.667 40 96 40s69.333 -13.333 96 -40s40 -58.667 40 -96zM197 713c0 -15.333 5 -28.5 15 -39.5s22.667 -16.5 38 -16.5s28 5.5 38 16.5
s15 24.167 15 39.5s-5 28.5 -15 39.5s-22.667 16.5 -38 16.5s-28 -5.5 -38 -16.5s-15 -24.167 -15 -39.5z" />
    <glyph glyph-name="ogonek" unicode="&#x2db;" horiz-adv-x="500" 
d="M373 -221c-32 -16.667 -68.332 -25 -108.999 -25c-46.667 0 -81.167 11 -103.5 33s-33.5 50 -33.5 84c0 26 6.66699 51 20 75s30.666 44.667 51.999 62s41 31.333 59 42s36 20 54 28l49 -64c-78.667 -48.667 -118 -92 -118 -130c0 -22.667 14.333 -34 43 -34
c29.333 0 58.333 10 87 30v-101z" />
    <glyph glyph-name="tilde" unicode="&#x2dc;" horiz-adv-x="500" 
d="M192 656c-16.667 0 -29.667 -2.83301 -39 -8.5s-21.333 -17.167 -36 -34.5l-65 64c10.667 22.667 26.5 42 47.5 58s43.833 24 68.5 24c24 0 49.5 -5.83301 76.5 -17.5s46.833 -17.5 59.5 -17.5c32 0 55.333 14.333 70 43l74 -61c-28 -56.667 -73.333 -85 -136 -85
c-22 0 -45 5.83301 -69 17.5s-41 17.5 -51 17.5z" />
    <glyph glyph-name="hungarumlaut" unicode="&#x2dd;" horiz-adv-x="500" 
d="M332 621h-108l94 177h145zM145 621h-108l86 177h133z" />
    <glyph glyph-name="pi" unicode="&#x3c0;" horiz-adv-x="606" 
d="M596 400l-80.001 0.000976562v-400h-146v400h-124v-184c0 -80.667 -16.167 -136.834 -48.5 -168.501s-85.166 -47.5 -158.499 -47.5v119c22.667 0 38.5 5.5 47.5 16.5s13.5 32.833 13.5 65.5v199h-80v107h576v-107z" />
    <glyph glyph-name="danda" unicode="&#x964;" horiz-adv-x="311" 
d="M246 0h-135v671h135v-671z" />
    <glyph glyph-name="doubledanda" unicode="&#x965;" horiz-adv-x="576" 
d="M511 0h-135v671h135v-671zM246 0h-135v671h135v-671z" />
    <glyph glyph-name="bnAnji" unicode="&#x980;" horiz-adv-x="600" 
d="M284 337v-127c-14.667 -1.33301 -26.334 -2 -35.001 -2c-69.333 0 -122.333 19.333 -159 58s-55 89.667 -55 153c0 68.667 23.833 129.5 71.5 182.5s108.834 79.5 183.501 79.5c52.667 0 96.167 -15.5 130.5 -46.5s51.5 -73.167 51.5 -126.5v-310c0 -52 22 -78 66 -78
c18.667 0 31 0.333008 37 1v-124c-27.333 -4.66699 -52 -7 -74 -7c-50 0 -90.667 15.833 -122 47.5s-47 76.5 -47 134.5v336c0 35.333 -14.667 53 -44 53c-31.333 0 -58 -13.833 -80 -41.5s-33 -61.167 -33 -100.5c0 -55.333 29 -83 87 -83c10 0 17.333 0.333008 22 1z" />
    <glyph glyph-name="bnCandrabindu" unicode="&#x981;" 
d="M79 899c0 -48.667 -17.167 -90.334 -51.5 -125.001s-84.833 -52 -151.5 -52c-66 0 -116.5 17.333 -151.5 52s-52.5 76.334 -52.5 125.001h107c0 -24 7.66699 -44.5 23 -61.5s40 -25.5 74 -25.5c64.667 0 97 29 97 87h106zM-61 922
c0 -17.333 -5.99902 -31.833 -17.999 -43.5s-27 -17.5 -45 -17.5c-17.333 0 -31.833 5.83301 -43.5 17.5s-17.5 26.167 -17.5 43.5s5.83301 32 17.5 44s26.167 18 43.5 18c18 0.666992 33.167 -5 45.5 -17s18.166 -27 17.499 -45z" />
    <glyph glyph-name="bnAnusvara" unicode="&#x982;" horiz-adv-x="452" 
d="M37 516c0 48.667 16.667 88.334 50 119.001s76.333 46 129 46s95.5 -15.333 128.5 -46s49.5 -70.334 49.5 -119.001s-16.5 -88.5 -49.5 -119.5s-75.833 -46.5 -128.5 -46.5s-95.667 15.5 -129 46.5s-50 70.833 -50 119.5zM274 516c0 19.333 -5 35.166 -15 47.499
s-24.333 18.5 -43 18.5s-33.167 -6.16699 -43.5 -18.5s-15.5 -28.166 -15.5 -47.499s5.16699 -35 15.5 -47s24.833 -18 43.5 -18s33 6 43 18s15 27.667 15 47zM52 197v137l370 -202v-134z" />
    <glyph glyph-name="bnVisarga" unicode="&#x983;" horiz-adv-x="427" 
d="M40 521c0 47.333 16.167 85.833 48.5 115.5s74.166 44.5 125.499 44.5s93 -14.833 125 -44.5s48 -68.167 48 -115.5s-16 -86 -48 -116s-73.667 -45 -125 -45s-93.166 15 -125.499 45s-48.5 68.667 -48.5 116zM272 521c0 19.333 -5 35.166 -15 47.499
s-24.333 18.5 -43 18.5s-33.167 -6.16699 -43.5 -18.5s-15.5 -28.166 -15.5 -47.499s5.16699 -35 15.5 -47s24.833 -18 43.5 -18s33 6 43 18s15 27.667 15 47zM40 151c0 47.333 16.167 85.833 48.5 115.5s74.166 44.5 125.499 44.5s93 -14.833 125 -44.5
s48 -68.167 48 -115.5s-16 -86 -48 -116s-73.667 -45 -125 -45s-93.166 15 -125.499 45s-48.5 68.667 -48.5 116zM272 151c0 19.333 -5 35.166 -15 47.499s-24.333 18.5 -43 18.5s-33.167 -6.16699 -43.5 -18.5s-15.5 -28.166 -15.5 -47.499s5.16699 -35 15.5 -47
s24.833 -18 43.5 -18s33 6 43 18s15 27.667 15 47z" />
    <glyph glyph-name="bnA" unicode="&#x985;" horiz-adv-x="910" 
d="M845 0h-139.998c0 84.667 -40.667 127 -122 127h-42c-52.667 -47.333 -118.334 -71 -197.001 -71c-90.667 0 -164.5 26.667 -221.5 80s-85.5 133.333 -85.5 240c0 28 2 57.333 6 88h135c-4.66699 -30.667 -7 -60.667 -7 -90c0 -66 15.5 -115.5 46.5 -148.5
s71.833 -49.5 122.5 -49.5c47.333 0 83.166 13.833 107.499 41.5s36.5 62.167 36.5 103.5c0 25.333 -4.66699 46 -14 62s-23.333 24 -42 24c-16 0 -28.5 -5.83301 -37.5 -17.5s-13.5 -26.834 -13.5 -45.501c0 -18 3.66699 -37.333 11 -58h-120
c-10.667 22.667 -16 48.334 -16 77.001c0 48 15.5 86 46.5 114s72.167 42 123.5 42c60.667 0 109.5 -19 146.5 -57s55.5 -86 55.5 -144c0 -28.667 -4 -55 -12 -79c42 -2.66699 73 -18.667 93 -48v368h-725v112h950v-112h-85v-559z" />
    <glyph glyph-name="bnAA" unicode="&#x986;" horiz-adv-x="1180" 
d="M624 318c0 -28.667 -3.99805 -55 -11.998 -79c42 -2.66699 73 -18.667 93 -48v368h-725v112h960c22 0 38.667 -11.333 50 -34c-6.66699 36 -10 68 -10 96v18h135v-80h85v-112h-85v-559h-140v497c0 26 -3.5 42.833 -10.5 50.5s-21.167 11.5 -42.5 11.5h-77v-559h-140
c0 84.667 -40.667 127 -122 127h-42c-52.667 -47.333 -118.334 -71 -197.001 -71c-90.667 0 -164.5 26.667 -221.5 80s-85.5 133.333 -85.5 240c0 28 2 57.333 6 88h135c-4.66699 -30.667 -7 -60.667 -7 -90c0 -66 15.5 -115.5 46.5 -148.5s71.833 -49.5 122.5 -49.5
c47.333 0 83.166 13.833 107.499 41.5s36.5 62.167 36.5 103.5c0 25.333 -4.66699 46 -14 62s-23.333 24 -42 24c-16 0 -28.5 -5.83301 -37.5 -17.5s-13.5 -26.834 -13.5 -45.501c0 -18 3.66699 -37.333 11 -58h-120c-10.667 22.667 -16 48.334 -16 77.001
c0 48 15.5 86 46.5 114s72.167 42 123.5 42c60.667 0 109.5 -19 146.5 -57s55.5 -86 55.5 -144z" />
    <glyph glyph-name="bnI" unicode="&#x987;" horiz-adv-x="460" 
d="M419 -9h-182.998l-183 125v110h100c45.333 0 79.666 9.83301 102.999 29.5s35 46.5 35 80.5c0 22 -5.83301 39.333 -17.5 52s-27.167 19 -46.5 19c-18.667 0 -33.667 -5.83301 -45 -17.5s-17 -26.5 -17 -44.5c0 -17.333 1.66699 -32 5 -44h-127
c-6 19.333 -9 39.666 -9 60.999c0 46.667 17.167 84.5 51.5 113.5s79.833 43.5 136.5 43.5c61.333 0 110.666 -17.667 147.999 -53s56 -78.666 56 -129.999c0 -56 -18.167 -100.833 -54.5 -134.5s-84.5 -55.167 -144.5 -64.5l192 -131v-15zM480.002 559h-500.001v112h309
c0 3.33301 0.166992 8.33301 0.5 15s0.5 10.667 0.5 12c0 20.667 -3.5 36 -10.5 46s-20.833 15 -41.5 15c-11.333 0 -32 -3.16699 -62 -9.5s-54 -9.5 -72 -9.5c-33.333 0 -62.333 7.33301 -87 22v107c20.667 -11.333 45.334 -17 74.001 -17c17.333 0 42.833 4 76.5 12
s62.5 12 86.5 12c52.667 0 93 -13.833 121 -41.5s42 -66.5 42 -116.5c0 -16 -1.33301 -31.667 -4 -47h67v-112z" />
    <glyph glyph-name="bnII" unicode="&#x988;" horiz-adv-x="670" 
d="M29 362c0 46.667 15.833 84.5 47.5 113.5s74.834 43.5 129.501 43.5c46 0 84.333 -12.333 115 -37s51.667 -56.667 63 -96c59.333 55.333 91.333 85 96 89h122c-16.667 -60.667 -25 -135 -25 -223s9.33301 -172 28 -252h-140c-8.66699 50 -13 105.333 -13 166
c0 46.667 4.33301 94 13 142l-87 -79c-14.667 -49.333 -40.334 -89 -77.001 -119s-83 -45 -139 -45c-41.333 0 -81.333 4 -120 12v115c34 -4.66699 68 -7 102 -7c40.667 0 71.334 11.833 92.001 35.5s31 57.5 31 101.5c0 56.667 -18.667 85 -56 85
c-16.667 0 -29.334 -5.66699 -38.001 -17s-13 -26.333 -13 -45c0 -19.333 2.66699 -37 8 -53h-127c-8 24 -12 47.333 -12 70zM-20 671h495c1.33301 13.333 2 24 2 32c0 37.333 -21.667 56 -65 56c-18 0 -51.5 -3.16699 -100.5 -9.5s-85.833 -9.5 -110.5 -9.5
c-53.333 0 -93 7.33301 -119 22v107c28 -11.333 63.667 -17 107 -17c17.333 0 56 4 116 12s102 12 126 12c54 0 96.333 -13.333 127 -40s46 -64.334 46 -113.001c0 -13.333 -1.33301 -30.666 -4 -51.999h90v-112h-710v112z" />
    <glyph glyph-name="bnU" unicode="&#x989;" horiz-adv-x="678" 
d="M648 292c0 -82.667 -25.668 -151.999 -77.001 -207.999s-122.666 -84 -213.999 -84c-96.667 0 -175.334 31.5 -236.001 94.5s-91 151.833 -91 266.5c0 32.667 1.33301 61 4 85h138c-2.66699 -24 -4 -50.333 -4 -79c0 -80.667 17.333 -142 52 -184s80.334 -63 137.001 -63
c52.667 0 92.667 15.167 120 45.5s41 70.833 41 121.5c-35.333 -16.667 -71 -25 -107 -25c-54 0 -95.167 14.667 -123.5 44s-42.5 71.666 -42.5 126.999v126h-265v112h495c1.33301 13.333 2 24 2 32c0 37.333 -21.667 56 -65 56c-18 0 -51.5 -3.16699 -100.5 -9.5
s-85.833 -9.5 -110.5 -9.5c-53.333 0 -93 7.33301 -119 22v107c28 -11.333 63.667 -17 107 -17c17.333 0 56 4 116 12s102 12 126 12c54 0 96.333 -13.333 127 -40s46 -64.334 46 -113.001c0 -13.333 -1.33301 -30.666 -4 -51.999h98v-112h-313v-124
c0 -35.333 18 -53 54 -53c37.333 0 97.333 20.667 180 62c19.333 -47.333 29 -98 29 -152z" />
    <glyph glyph-name="bnUU" unicode="&#x98a;" horiz-adv-x="793" 
d="M-20 671l608.003 -0.00195312c1.33301 13.333 2 24 2 32c0 37.333 -21.667 56 -65 56c-32.667 0 -81.667 -3.83301 -147 -11.5s-113 -11.5 -143 -11.5c-50 0 -90 8.66699 -120 26v107c35.333 -14 74.666 -21 117.999 -21c22 0 69.667 4.66699 143 14s129.333 14 168 14
c54 0 96.333 -13.333 127 -40s46 -64.334 46 -113.001c0 -13.333 -1.33301 -30.666 -4 -51.999h100v-112h-313v-124c0 -35.333 18 -53 54 -53c37.333 0 97.333 20.667 180 62c19.333 -47.333 29 -98 29 -152c0 -82.667 -27.833 -152 -83.5 -208s-134.167 -84 -235.5 -84
c-124.667 0 -224.834 32.167 -300.501 96.5s-113.5 152.5 -113.5 264.5c0 32.667 1.33301 61 4 85h98c-2.66699 -24 -4 -50.333 -4 -79c0 -71.333 14.667 -127.666 44 -168.999s67 -68.666 113 -81.999c-63.333 52.667 -95 134.334 -95 245.001c0 32.667 1.33301 61 4 85h98
c-2.66699 -24 -4 -50.333 -4 -79c0 -81.333 16 -142.833 48 -184.5s76 -62.5 132 -62.5c53.333 0 94.166 15.167 122.499 45.5s42.5 70.833 42.5 121.5c-35.333 -16.667 -71 -25 -107 -25c-54 0 -95.167 14.667 -123.5 44s-42.5 71.666 -42.5 126.999v126h-380v112z" />
    <glyph glyph-name="bnvR" unicode="&#x98b;" horiz-adv-x="873" 
d="M543 0h-140l-348 162l1 1v132l243 124l-33 67c-26.667 -36 -63.667 -54 -111 -54c-48 0 -85 14 -111 42s-39 65.667 -39 113c0 33.333 5.33301 61.333 16 84h115c-6.66699 -20 -10 -41.667 -10 -65c0 -18.667 4.33301 -34 13 -46s19.667 -18 33 -18
c22 0 35.833 7.16699 41.5 21.5s8.5 37.833 8.5 70.5c0 16 -0.333008 28.333 -1 37h100l78 -201l9 4v197h135v-342h18c50 0 85.667 -16 107 -48v470h140v-80h85v-112h-85v-469h-140c0 84.667 -40.667 127 -122 127h-3v-217zM403 136v197l-197 -101z" />
    <glyph glyph-name="bnvL" unicode="&#x98c;" horiz-adv-x="635" 
d="M605 288c0 -92.667 -31.6631 -165.666 -94.9961 -218.999s-147.333 -80 -252 -80c-18.667 0 -38 1 -58 3l1 116c24 8.66699 44 25.667 60 51s24 54.666 24 87.999c0 21.333 -5.5 38.666 -16.5 51.999s-26.167 20 -45.5 20c-38.667 0 -58 -23.667 -58 -71
c0 -24.667 5 -55 15 -91h-125c-13.333 38 -20 75.333 -20 112c0 48.667 16.833 88.334 50.5 119.001s77.167 46 130.5 46c59.333 0 106.166 -16.667 140.499 -50s51.5 -78 51.5 -134c0 -45.333 -13.667 -88.333 -41 -129c71.333 27.333 107 83 107 167
c0 33.333 -6.66699 62.5 -20 87.5s-30.5 45.167 -51.5 60.5s-44.167 29.5 -69.5 42.5l-76.5 38.5c-25.667 12.667 -49 26.667 -70 42s-38.167 35.333 -51.5 60s-20 53.334 -20 86.001c0 17.333 1.66699 32.666 5 45.999h128c-0.666992 -2.66699 -1 -7.66699 -1 -15
c0 -22.667 6.5 -42.5 19.5 -59.5s30.167 -31.667 51.5 -44s44.666 -24.5 69.999 -36.5s50.666 -26.333 75.999 -43s48.666 -35.667 69.999 -57s38.5 -49.833 51.5 -85.5s19.5 -76.5 19.5 -122.5z" />
    <glyph glyph-name="bnE" unicode="&#x98f;" horiz-adv-x="640" 
d="M122 428c0 68.667 24.668 127.83 74.001 177.497s113.333 74.5 192 74.5c60 0 106.167 -15.667 138.5 -47s48.5 -74.666 48.5 -129.999v-503h-140c0 24 -12 36 -36 36c-14 0 -42.333 -6 -85 -18s-77.334 -18 -104.001 -18c-50.667 0 -94.5 14.5 -131.5 43.5
s-55.5 72.5 -55.5 130.5c0 24 2.66699 46.667 8 68l136 1c-2.66699 -14.667 -4 -31 -4 -49c0 -45.333 23 -68 69 -68c17.333 0 43.833 4.83301 79.5 14.5s60.5 14.5 74.5 14.5c20.667 0 37 -5.66699 49 -17v365c0 20.667 -3.66699 35.334 -11 44.001s-19.333 13 -36 13
c-32 0 -61 -13.5 -87 -40.5s-39 -57.5 -39 -91.5c0 -40.667 23.667 -61 71 -61c14.667 0 28.667 1.33301 42 4v-122c-20.667 -4.66699 -41.667 -7 -63 -7c-62 0 -109.167 15.833 -141.5 47.5s-48.5 77.834 -48.5 138.501z" />
    <glyph glyph-name="bnAI" unicode="&#x990;" horiz-adv-x="864" 
d="M141 799l-0.000976562 120.996c64 -23.333 135.667 -40 215 -50l113 -14c240.667 -30 361 -138.333 361 -325c0 -82 -19.667 -148.833 -59 -200.5s-98.666 -77.5 -177.999 -77.5h-18v-253h-140c0 24 -12 36 -36 36c-14 0 -42.333 -6 -85 -18s-77.334 -18 -104.001 -18
c-50.667 0 -94.5 14.5 -131.5 43.5s-55.5 72.5 -55.5 130.5c0 24 2.66699 46.667 8 68l136 1c-2.66699 -14.667 -4 -31 -4 -49c0 -45.333 23 -68 69 -68c17.333 0 43.833 4.83301 79.5 14.5s60.5 14.5 74.5 14.5c20.667 0 37 -5.66699 49 -17v365
c0 20.667 -3.66699 35.334 -11 44.001s-19.333 13 -36 13c-32 0 -61 -13.5 -87 -40.5s-39 -57.5 -39 -91.5c0 -40.667 23.667 -61 71 -61c14.667 0 28.667 1.33301 42 4v-122c-20.667 -4.66699 -41.667 -7 -63 -7c-62 0 -109.167 15.833 -141.5 47.5
s-48.5 77.834 -48.5 138.501c0 68.667 24.667 127.834 74 177.501s113.333 74.5 192 74.5c60 0 106.167 -15.667 138.5 -47s48.5 -74.666 48.5 -129.999v-133h7c43.333 0 74.333 13.333 93 40s28 67 28 121c0 64 -21.167 111 -63.5 141s-104.166 50.333 -185.499 61l-112 14
c-82.667 10 -149.667 27.333 -201 52z" />
    <glyph glyph-name="bnO" unicode="&#x993;" horiz-adv-x="645" 
d="M607 189c0 -58 -22.5 -102.333 -67.5 -133s-101.833 -46 -170.5 -46c-43.333 0 -83.833 6.83301 -121.5 20.5s-71.834 34.334 -102.501 62.001s-54.667 65 -72 112s-26 100.833 -26 161.5c0 10.667 0.666992 28 2 52h132c-0.666992 -10 -1 -24.333 -1 -43
c0 -164.667 63 -247 189 -247c65.333 0 98 24.667 98 74s-44 74 -132 74h-33v118h23c33.333 0 60 8.5 80 25.5s30 42.167 30 75.5c0 22.667 -5.16699 40.667 -15.5 54s-25.166 20 -44.499 20c-18 0 -31.833 -5.66699 -41.5 -17s-14.5 -26.333 -14.5 -45
c0 -19.333 2.66699 -37 8 -53h-127c-8 24 -12 47.333 -12 70c0 46.667 16.333 84.5 49 113.5s77 43.5 133 43.5c62 0 112.333 -17 151 -51s58 -78.333 58 -133c0 -42.667 -11.833 -77.667 -35.5 -105s-55.5 -44.666 -95.5 -51.999c50 -4.66699 89 -20.334 117 -47.001
s42 -61.334 42 -104.001z" />
    <glyph glyph-name="bnAU" unicode="&#x994;" horiz-adv-x="857" 
d="M806 541c0 -74 -19.333 -136.502 -58 -187.502s-89.667 -85.5 -153 -103.5c8 -18 12 -38.333 12 -61c0 -58 -22.5 -102.333 -67.5 -133s-101.833 -46 -170.5 -46c-43.333 0 -83.833 6.83301 -121.5 20.5s-71.834 34.334 -102.501 62.001s-54.667 65 -72 112
s-26 100.833 -26 161.5c0 10.667 0.666992 28 2 52h132c-0.666992 -10 -1 -24.333 -1 -43c0 -164.667 63 -247 189 -247c65.333 0 98 24.667 98 74s-44 74 -132 74h-33v118h23c33.333 0 60 8.5 80 25.5s30 42.167 30 75.5c0 22.667 -5.16699 40.667 -15.5 54
s-25.166 20 -44.499 20c-18 0 -31.833 -5.66699 -41.5 -17s-14.5 -26.333 -14.5 -45c0 -19.333 2.66699 -37 8 -53h-127c-8 24 -12 47.333 -12 70c0 46.667 16.333 84.5 49 113.5s77 43.5 133 43.5c64 0 114.833 -17.667 152.5 -53s56.5 -79 56.5 -131
c0 -42.667 -11.833 -77.667 -35.5 -105s-55.5 -44.666 -95.5 -51.999h1c13.333 -1.33301 23 -2 29 -2c64.667 0 114.334 17.5 149.001 52.5s52 85.167 52 150.5c0 64.667 -21.333 111.667 -64 141s-104.334 47.333 -185.001 54l-112 14c-82.667 10 -149.667 27.333 -201 52
v121c64 -23.333 135.667 -40 215 -50l113 -14c115.333 -9.33301 204.333 -40.333 267 -93s94 -127.667 94 -225z" />
    <glyph glyph-name="bnKA" unicode="&#x995;" horiz-adv-x="780" 
d="M746 267c0 -62.667 -16.833 -111.667 -50.5 -147s-80.167 -53 -139.5 -53c-9.33301 0 -16.333 0.333008 -21 1v126h10c44 0 66 24.333 66 73c0 32.667 -11.833 59.667 -35.5 81s-57.167 33.333 -100.5 36v-384h-135v1l-1 -1l-302 209v134c54.667 44 105 79.5 151 106.5
s96.667 45.833 152 56.5v53h-360v112h820v-112h-325v-53c71.333 -2 134.333 -24.5 189 -67.5s82 -100.167 82 -171.5zM340 146v234c-58 -19.333 -117.667 -54.333 -179 -105z" />
    <glyph glyph-name="bnKHA" unicode="&#x996;" horiz-adv-x="679" 
d="M614 0l-135 -0.00195312v1l-1 -1l-451 232v112h95c53.333 0 93.666 13.167 120.999 39.5s41 63.833 41 112.5v3c-26.667 -46 -68 -69 -124 -69c-51.333 0 -90.833 14.333 -118.5 43s-41.5 66.667 -41.5 114c0 33.333 5.33301 61.333 16 84h135
c-6.66699 -20 -10 -41.667 -10 -65c0 -19.333 4.83301 -34.833 14.5 -46.5s23.5 -17.5 41.5 -17.5c22.667 0 38.334 7.83301 47.001 23.5s13 38.5 13 68.5c0 16 -0.333008 28.333 -1 37h132c20.667 -63.333 31 -121.666 31 -174.999c0 -66 -16.833 -118.667 -50.5 -158
s-79.167 -65.666 -136.5 -78.999l247 -130v622h135v-80h85v-112h-85v-559z" />
    <glyph glyph-name="bnGA" unicode="&#x997;" horiz-adv-x="621" 
d="M556 0l-140 -0.000976562v409c0 50 -9.5 87.833 -28.5 113.5s-50.167 38.5 -93.5 38.5c-64.667 0 -102.334 -28.333 -113.001 -85c53.333 -2.66699 96.5 -18.167 129.5 -46.5s49.833 -69.166 50.5 -122.499c-0.666992 -60.667 -22.167 -106.5 -64.5 -137.5
s-99.166 -46.5 -170.499 -46.5c-28 0 -56.667 3 -86 9v115c24 -2.66699 52.667 -4 86 -4c63.333 0 95 21 95 63s-31.667 63 -95 63h-83v68c0 69.333 20.5 127.333 61.5 174s96.5 70 166.5 70c68 0 116.333 -21.667 145 -65v135h140v-80h85v-112h-85v-559z" />
    <glyph glyph-name="bnGHA" unicode="&#x998;" horiz-adv-x="610" 
d="M335 291l-123 -76l193 -81v425h-131c-30 0 -53.167 -7 -69.5 -21s-24.5 -33.333 -24.5 -58c0 -24 8.33301 -41.667 25 -53s37.667 -17 63 -17c22 0 44.333 2.66699 67 8v-127zM630 559l-85.001 -0.000976562v-559h-140l-348 142l1 1v122
c44.667 28.667 87.334 54.334 128.001 77.001c-100.667 14.667 -151 56 -151 124c0 39.333 18 70.333 54 93h-109v112h650v-112z" />
    <glyph glyph-name="bnNGA" unicode="&#x999;" horiz-adv-x="698" 
d="M410 475c46.667 0 70 17.333 70 52c0 13.333 -5.5 24.5 -16.5 33.5s-24.833 13.5 -41.5 13.5c-30.667 0 -46 -18.333 -46 -55v-42c14.667 -1.33301 26 -2 34 -2zM663 246c0 -76 -26.3369 -137.498 -79.0039 -184.498s-121.667 -70.5 -207 -70.5
c-97.333 0 -178.5 32 -243.5 96s-97.5 150.667 -97.5 260c0 19.333 1 35 3 47h137c-1.33301 -14.667 -2 -30.334 -2 -47.001c0 -79.333 19.833 -138.5 59.5 -177.5s87.834 -58.5 144.501 -58.5c48 0 85.833 11.5 113.5 34.5s42.5 51.5 44.5 85.5
c-36.667 -23.333 -77.667 -35 -123 -35c-51.333 0 -92.166 15 -122.499 45s-45.5 72 -45.5 126v45c-70.667 34.667 -121 83.667 -151 147h-114v112h195c12.667 -52 38.334 -96.333 77.001 -133c4 42 19.833 76.333 47.5 103s67.834 40 120.501 40
c53.333 0 96.5 -15.333 129.5 -46s49.5 -68.334 49.5 -113.001c0 -46.667 -17.333 -82.834 -52 -108.501s-80 -38.5 -136 -38.5c-7.33301 0 -19 0.666992 -35 2v-7c0 -36 17.667 -54 53 -54c52 0 117.667 27 197 81c24.667 -49.333 37 -99.666 37 -150.999z" />
    <glyph glyph-name="bnCA" unicode="&#x99a;" horiz-adv-x="535" 
d="M502 262c0 -68 -24.833 -130.334 -74.5 -187.001s-109.834 -85 -180.501 -85c-52.667 0 -96.167 15.5 -130.5 46.5s-51.5 73.167 -51.5 126.5v396h-85v112h575v-112h-350v-59l93 -27c72.667 -21.333 124.834 -47.166 156.501 -77.499s47.5 -74.833 47.5 -133.5z
M249 109.999c30 0 56.334 16.333 79.001 49s34 67 34 103c0 22 -6.33301 38.833 -19 50.5s-35.334 22.5 -68.001 32.5l-70 22v-204c0 -35.333 14.667 -53 44 -53z" />
    <glyph glyph-name="bnCHA" unicode="&#x99b;" horiz-adv-x="642" 
d="M562 -50l-194 0.00195312l-264 136v95c28 -1.33301 49.333 -2 64 -2c39.333 0 75.666 2.33301 108.999 7s64 12.167 92 22.5s50 25 66 44s24 41.5 24 67.5c0 18.667 -6.16699 33 -18.5 43s-31.166 18 -56.499 24c0.666992 -2.66699 1 -7 1 -13
c0 -38 -17 -72.5 -51 -103.5s-73.333 -46.5 -118 -46.5c-45.333 0 -80.5 11.5 -105.5 34.5s-37.5 55.833 -37.5 98.5v202h-93v112h682v-112h-470v-33l42 -8c1.33301 0 2.33301 -0.333008 3 -1l153 -29c66.667 -13.333 115.834 -33.333 147.501 -60
s47.5 -63.334 47.5 -110.001c0 -62.667 -26.333 -113.5 -79 -152.5s-121 -64.5 -205 -76.5c53.333 -22.667 88.666 -38.334 105.999 -47.001l155 -79v-13zM217 318.002c14.667 0 27.667 7 39 21s17 29 17 45c0 11.333 -3 19.333 -9 24s-16.667 8.66699 -32 12l-40 8v-81
c0 -19.333 8.33301 -29 25 -29z" />
    <glyph glyph-name="bnJA" unicode="&#x99c;" horiz-adv-x="887" 
d="M613 249c0 -73.333 -23.333 -134.835 -70 -184.502s-111 -74.5 -193 -74.5c-93.333 0 -168.333 32.167 -225 96.5s-85 152.5 -85 264.5c0 18.667 0.333008 33.334 1 44.001h138c-0.666992 -9.33301 -1 -22 -1 -38c0 -78.667 15.167 -139.5 45.5 -182.5
s72.5 -64.5 126.5 -64.5c39.333 0 70.5 10 93.5 30s36.167 48.667 39.5 86c-18 -4 -36.333 -6 -55 -6c-55.333 0 -100 16.167 -134 48.5s-51 75.5 -51 129.5c0 64 20.667 117.667 62 161h-325v112h927v-112h-319c43.333 -58.667 128.333 -105 255 -139
c-34 -83.333 -51 -174.333 -51 -273c0 -48.667 6.33301 -97.667 19 -147h-135c-12 48 -18 96.333 -18 145c0 78.667 11 147.334 33 206.001c-121.333 44 -200 106 -236 186c-44.667 -38 -67 -80.667 -67 -128c0 -50 29.333 -75 88 -75c40 0 79.667 9 119 27
c12 -34.667 18 -72 18 -112z" />
    <glyph glyph-name="bnJHA" unicode="&#x99d;" horiz-adv-x="815" 
d="M480 0l-140.001 -0.000976562v1l-1 -1l-302 209v134c96.667 78.667 197.667 132.334 303 161.001v55h-360v112h500v-342h18c50.667 0 86.334 -16 107.001 -48v480h140v-90h85v-112h-85v-469h-140c0 84.667 -40.667 127 -122 127h-3v-217zM339.999 145.999v224.999
c-68.667 -27.333 -127.667 -59.666 -177 -96.999z" />
    <glyph glyph-name="bnNYA" unicode="&#x99e;" horiz-adv-x="948" 
d="M122 428c0 68.667 24.668 127.832 74.001 177.499s113.333 74.5 192 74.5c47.333 0 86.166 -9.83301 116.499 -29.5s50.833 -47.834 61.5 -84.501c36.667 41.333 86 62 148 62c58 0 104 -16.5 138 -49.5s51 -71.167 51 -114.5c0 -32 -8.66699 -59 -26 -81
s-39 -38 -65 -48c26 -10 47.667 -26 65 -48s26 -49 26 -81c0 -43.333 -17 -81.5 -51 -114.5s-80 -49.5 -138 -49.5c-57.333 0 -103.666 17.667 -138.999 53v-95h-140c0 24 -12 36 -36 36c-14 0 -42.333 -6 -85 -18s-77.334 -18 -104.001 -18
c-50.667 0 -94.5 14.5 -131.5 43.5s-55.5 72.5 -55.5 130.5c0 24 2.66699 46.667 8 68l136 1c-2.66699 -14.667 -4 -31 -4 -49c0 -45.333 23 -68 69 -68c17.333 0 43.833 4.83301 79.5 14.5s60.5 14.5 74.5 14.5c20.667 0 37 -5.66699 49 -17v365
c0 20.667 -3.66699 35.334 -11 44.001s-19.333 13 -36 13c-32 0 -61 -13.5 -87 -40.5s-39 -57.5 -39 -91.5c0 -40.667 23.667 -61 71 -61c14.667 0 28.667 1.33301 42 4v-122c-20.667 -4.66699 -41.667 -7 -63 -7c-62 0 -109.167 15.833 -141.5 47.5
s-48.5 77.834 -48.5 138.501zM695.001 157.998c23.333 0 42.166 5 56.499 15s21.5 24.333 21.5 43c0 40 -25.667 60 -77 60h-39v118h39c51.333 0 77 20 77 60c0 18.667 -7.16699 33 -21.5 43s-33.166 15 -56.499 15c-36 0 -65 -12 -87 -36s-33 -56.333 -33 -97v-88
c0 -40.667 11 -73 33 -97s51 -36 87 -36z" />
    <glyph glyph-name="bnTTA" unicode="&#x99f;" horiz-adv-x="565" 
d="M532 262c0 -70.667 -24.834 -133.667 -74.501 -189s-114.834 -83 -195.501 -83c-54 0 -100.333 15.667 -139 47s-58 73.333 -58 126v396h-85v112h399c0 3.33301 0.166992 8.33301 0.5 15s0.5 10.667 0.5 12c0 20.667 -3.5 36 -10.5 46s-20.833 15 -41.5 15
c-14.667 0 -43.667 -3.16699 -87 -9.5s-75.666 -9.5 -96.999 -9.5c-44.667 0 -79.334 7.33301 -104.001 22v107c20.667 -11.333 51 -17 91 -17c20.667 0 54.5 4 101.5 12s84.167 12 111.5 12c52.667 0 93 -13.833 121 -41.5s42 -66.5 42 -116.5
c0 -16 -1.33301 -31.667 -4 -47h82v-112h-380v-396c0 -16.667 5.33301 -29.667 16 -39s24.334 -14 41.001 -14c39.333 0 70.833 15.833 94.5 47.5s35.5 66.5 35.5 104.5c0 54 -28.333 81 -85 81c-14.667 0 -28.667 -1.33301 -42 -4v122c20.667 4.66699 41.667 7 63 7
c64.667 0 114.834 -18.667 150.501 -56s53.5 -87.333 53.5 -150z" />
    <glyph glyph-name="bnTTHA" unicode="&#x9a0;" horiz-adv-x="609" 
d="M557 271c0 -77.333 -22.332 -140 -66.999 -188s-106.334 -72 -185.001 -72c-81.333 0 -144.5 25.833 -189.5 77.5s-67.5 122.167 -67.5 211.5c0 28.667 1.33301 56 4 82h96c70.667 0 106 34.333 106 103v74h-274v112h245c-12.667 27.333 -19 54.333 -19 81
c0 42.667 14.5 77.167 43.5 103.5s71.167 39.5 126.5 39.5c9.33301 0 26 -1.33301 50 -4v-121c-10.667 1.33301 -18 2 -22 2c-43.333 0 -65 -16.667 -65 -50c0 -14 5.66699 -31 17 -51h273v-112h-189l15 -19c68 -87.333 102 -177 102 -269zM305.001 131
c38.667 0 67.833 13.501 87.5 40.501s29.5 60.167 29.5 99.5c0 73.333 -18.667 142.666 -56 207.999v-26c0 -54 -16 -97.167 -48 -129.5s-75 -48.5 -129 -48.5h-4v-1c0 -43.333 10.5 -78 31.5 -104s50.5 -39 88.5 -39z" />
    <glyph glyph-name="bnDDA" unicode="&#x9a1;" horiz-adv-x="678" 
d="M648 292c0 -82.667 -25.668 -151.999 -77.001 -207.999s-122.666 -84 -213.999 -84c-96.667 0 -175.334 31.5 -236.001 94.5s-91 151.833 -91 266.5c0 32.667 1.33301 61 4 85h138c-2.66699 -24 -4 -50.333 -4 -79c0 -80.667 17.333 -142 52 -184s80.334 -63 137.001 -63
c52.667 0 92.667 15.167 120 45.5s41 70.833 41 121.5c-35.333 -16.667 -71 -25 -107 -25c-54 0 -95.167 14.667 -123.5 44s-42.5 71.666 -42.5 126.999v126h-265v112h718v-112h-313v-124c0 -35.333 18 -53 54 -53c37.333 0 97.333 20.667 180 62
c19.333 -47.333 29 -98 29 -152z" />
    <glyph glyph-name="bnDDHA" unicode="&#x9a2;" horiz-adv-x="565" 
d="M532 262c0 -70.667 -24.834 -133.667 -74.501 -189s-114.834 -83 -195.501 -83c-54 0 -100.333 15.667 -139 47s-58 73.333 -58 126v396h-85v112h605v-112h-380v-396c0 -16.667 5.33301 -29.667 16 -39s24.334 -14 41.001 -14c39.333 0 70.833 15.833 94.5 47.5
s35.5 66.5 35.5 104.5c0 54 -28.333 81 -85 81c-14.667 0 -28.667 -1.33301 -42 -4v122c20.667 4.66699 41.667 7 63 7c64.667 0 114.834 -18.667 150.501 -56s53.5 -87.333 53.5 -150z" />
    <glyph glyph-name="bnNNA" unicode="&#x9a3;" horiz-adv-x="608" 
d="M628 559l-85.001 0.00195312v-559h-140v409c0 45.333 -11.167 82 -33.5 110s-54.833 42 -97.5 42c-28.667 0 -51.167 -8 -67.5 -24s-24.5 -37 -24.5 -63c0 -26.667 7.83301 -46.5 23.5 -59.5s36.167 -19.5 61.5 -19.5c16.667 0 33 1.33301 49 4v-122
c-23.333 -4.66699 -45.333 -7 -66 -7c-64 0 -114.667 17.667 -152 53s-56 85.666 -56 150.999c0 61.333 18.833 111.166 56.5 149.499s85.834 57.5 144.501 57.5c74 0 128 -26.333 162 -79v149h140v-80h85v-112z" />
    <glyph glyph-name="bnTA" unicode="&#x9a4;" horiz-adv-x="665" 
d="M633 310c0 -85.333 -27.333 -153.832 -82 -205.499s-125.334 -77.5 -212.001 -77.5c-93.333 0 -169.166 28.833 -227.499 86.5s-87.5 145.167 -87.5 262.5c0 26.667 1.33301 51.667 4 75h133c-2 -22.667 -3 -47.334 -3 -74.001c0 -70 15.667 -125.833 47 -167.5
s76 -62.5 134 -62.5c49.333 0 87.333 15 114 45s40 69.333 40 118c0 29.333 -4.83301 52.833 -14.5 70.5s-23.834 26.5 -42.501 26.5c-16 0 -28.5 -6 -37.5 -18s-13.5 -28.333 -13.5 -49c0 -23.333 3.33301 -46 10 -68h-130c-10 23.333 -15 49.333 -15 78
c0 49.333 16.333 89.833 49 121.5s76.334 47.5 131.001 47.5c61.333 0 110.5 -20.167 147.5 -60.5s55.5 -89.833 55.5 -148.5zM685 559.001h-705v112h705v-112z" />
    <glyph glyph-name="bnTHA" unicode="&#x9a5;" horiz-adv-x="676" 
d="M611 0l-135 0.000976562v1l-1 -1l-431 232v112h95c45.333 0 80.333 12.333 105 37s37 61 37 109c0 23.333 -5 42.5 -15 57.5s-25 22.5 -45 22.5c-18 0 -31.833 -6 -41.5 -18s-14.5 -27.333 -14.5 -46c0 -19.333 4 -41 12 -65h-127c-10.667 22.667 -16 50.667 -16 84
c0 46.667 16.333 84.5 49 113.5s77 43.5 133 43.5c61.333 0 110 -18.833 146 -56.5s54 -82.834 54 -135.501c0 -64.667 -15.5 -116.167 -46.5 -154.5s-72.833 -63.833 -125.5 -76.5l232 -128v620h135v-80h85v-112h-85v-559z" />
    <glyph glyph-name="bnDA" unicode="&#x9a6;" horiz-adv-x="540" 
d="M182 128h-135v431h-67v112h580v-112h-378v-249c62 67.333 118 113.333 168 138h135v-448h-135v303c-68.667 -56 -124.667 -114.333 -168 -175z" />
    <glyph glyph-name="bnDHA" unicode="&#x9a7;" horiz-adv-x="597" 
d="M617 559l-85 0.000976562v-559h-140l-338 157l1 1v122c36 23.333 77 47 123 71c-40 8 -73 24.833 -99 50.5s-39 59.167 -39 100.5c0 53.333 18.333 96.5 55 129.5s86.667 49.5 150 49.5c22 0 41.333 -1.33301 58 -4v-112c-6.66699 0.666992 -18.667 1 -36 1
c-24 0 -43.667 -6.33301 -59 -19s-23 -30.334 -23 -53.001s7.66699 -40.167 23 -52.5s36 -18.5 62 -18.5c28.667 0 53.667 5 75 15l47 24v209h225v-112zM392 128.001v202l-194 -107z" />
    <glyph glyph-name="bnNA" unicode="&#x9a8;" horiz-adv-x="589" 
d="M533 0l-140.002 -0.000976562c-4 28 -9.66699 56.333 -17 85s-17.166 58.667 -29.499 90s-28.166 56.833 -47.499 76.5s-40.666 29.5 -63.999 29.5c-22.667 0 -39.667 -7.33301 -51 -22s-17 -34 -17 -58c0 -18.667 1.66699 -37 5 -55h-136c-6 24.667 -9 47.667 -9 69
c0 52.667 16.333 97.334 49 134.001s78 55 136 55c81.333 0 141.666 -39.667 180.999 -119v274h-413v112h629v-112h-76v-559z" />
    <glyph glyph-name="bnPA" unicode="&#x9aa;" horiz-adv-x="628" 
d="M67 270l79.001 44c-26.667 43.333 -60.334 71.333 -101.001 84v54c0 58.667 19.5 111.5 58.5 158.5s94.5 70.5 166.5 70.5c71.333 0 122.333 -25.333 153 -76v146h140v-80h85v-112h-85v-559h-140v332l-356 -206v144zM180.001 451c30.667 -14.667 56 -40 76 -76l160 90
c-16 64 -56.333 96 -121 96c-33.333 0 -60.833 -10.5 -82.5 -31.5s-32.5 -47.167 -32.5 -78.5z" />
    <glyph glyph-name="bnPHA" unicode="&#x9ab;" horiz-adv-x="828" 
d="M794 287c0 -62.667 -16.833 -111.667 -50.5 -147s-80.167 -53 -139.5 -53c-9.33301 0 -16.333 0.333008 -21 1v126h10c44 0 66 24.333 66 73c0 60.667 -45.333 91 -136 91v-378h-140l-348 142l1 1v132l144 97l-141 83v104h-59v112h868v-112h-730l195 -128v-119l-131 -91
l201 -87v365h140c74.667 0 138.5 -18.167 191.5 -54.5s79.5 -88.833 79.5 -157.5z" />
    <glyph glyph-name="bnBA" unicode="&#x9ac;" horiz-adv-x="540" 
d="M560 559l-85 -0.000976562v-559h-135v1l-1 -1l-302 209v134c96.667 78.667 197.667 132.334 303 161.001v55h-360v112h580v-112zM340 145.999v224.999c-68.667 -27.333 -127.667 -59.666 -177 -96.999z" />
    <glyph glyph-name="bnBHA" unicode="&#x9ad;" horiz-adv-x="688" 
d="M646 239c0 -74.667 -25.1689 -134.834 -75.502 -180.501s-117.166 -68.5 -200.499 -68.5c-96 0 -174.667 31.833 -236 95.5s-92 147.167 -92 250.5c0 24.667 0.666992 44.667 2 60h134c-1.33301 -14.667 -2 -33.667 -2 -57c0 -73.333 17.167 -130.333 51.5 -171
s81.833 -61 142.5 -61c86 0 135.667 33.333 149 100c-28 -8.66699 -58.333 -13 -91 -13c-51.333 0 -93.833 14.5 -127.5 43.5s-50.5 68.5 -50.5 118.5s16.667 89.833 50 119.5s78.333 44.5 135 44.5c26.667 0 57.334 -3.33301 92.001 -10v-111c-21.333 2.66699 -42 4 -62 4
c-50 0 -75 -15.667 -75 -47c0 -33.333 24.333 -50 73 -50c23.333 0 50.833 4.83301 82.5 14.5s59.5 21.834 83.5 36.501c11.333 -36.667 17 -76 17 -118zM707.998 559h-728v112h728v-112z" />
    <glyph glyph-name="bnMA" unicode="&#x9ae;" horiz-adv-x="640" 
d="M680 559l-115.001 0.000976562v-559h-140v85c0 48.667 -12.5 87.667 -37.5 117s-59.833 44 -104.5 44c-28 0 -49.833 -5.83301 -65.5 -17.5s-23.5 -27.834 -23.5 -48.501s7.16699 -36 21.5 -46s32.5 -15 54.5 -15c12 0 24.667 0.666992 38 2v-115
c-18.667 -4 -41 -6 -67 -6c-55.333 0 -100.833 15.667 -136.5 47s-53.5 76 -53.5 134c0 44 11.5 80.833 34.5 110.5s54.167 50.834 93.5 63.501c-7.33301 35.333 -22.166 60.666 -44.499 75.999s-53.5 23 -93.5 23v105h-61v112h700v-112zM424.999 289.001v270h-257
c40 -18 72.167 -44 96.5 -78s39.833 -73 46.5 -117c52 -8.66699 90 -33.667 114 -75z" />
    <glyph glyph-name="bnYA" unicode="&#x9af;" horiz-adv-x="588" 
d="M313 431v-119l-131 -91l201 -87v425h-265zM608 559h-85v-559h-140l-348 142l1 1v132l144 97l-141 83v104h-59v112h628v-112z" />
    <glyph glyph-name="bnRA" unicode="&#x9b0;" horiz-adv-x="540" 
d="M560 559l-85 -0.000976562v-559h-135v1l-1 -1l-302 209v134c96.667 78.667 197.667 132.334 303 161.001v55h-360v112h580v-112zM168 19.999c0 -21.333 -7.33301 -39.333 -22 -54s-32.667 -22 -54 -22s-39.333 7.33301 -54 22s-22 32.667 -22 54s7.33301 39.333 22 54
s32.667 22 54 22s39.333 -7.33301 54 -22s22 -32.667 22 -54zM340 145.999v224.999c-68.667 -27.333 -127.667 -59.666 -177 -96.999z" />
    <glyph glyph-name="bnLA" unicode="&#x9b2;" horiz-adv-x="760" 
d="M695 0l-140.001 0.000976562v289c0 49.333 -18.333 74 -55 74c-38 0 -57 -29 -57 -87v-24h-143v31c0 53.333 -20 80 -60 80c-20 0 -35.167 -7.16699 -45.5 -21.5s-15.5 -32.5 -15.5 -54.5c0 -52.667 25.333 -79 76 -79c11.333 0 24.666 1 39.999 3v-117
c-18 -2.66699 -36.667 -4 -56 -4c-61.333 0 -110 18 -146 54s-54 84.333 -54 145c0 56.667 16.5 102.667 49.5 138s79.167 53 138.5 53c40 0 72.5 -8.5 97.5 -25.5s40.5 -38.167 46.5 -63.5c6.66699 25.333 19.334 46.666 38.001 63.999s43.334 26 74.001 26
s54.667 -9.66699 72 -29v107h-575v112h800v-112h-85v-559z" />
    <glyph glyph-name="bnSHA" unicode="&#x9b6;" horiz-adv-x="677" 
d="M612 0h-140.002v445c0 77.333 -31.333 116 -94 116c-26 0 -46.333 -8.33301 -61 -25s-22 -38.667 -22 -66c0 -29.333 7.83301 -51 23.5 -65s36.167 -21 61.5 -21c15.333 0 26 0.333008 32 1v-122c-14 -2.66699 -30.333 -4 -49 -4c-63.333 0 -109.666 19 -138.999 57
c-31.333 -38 -75.666 -57 -132.999 -57c-20.667 0 -42.667 2.33301 -66 7v122c16 -2.66699 32.333 -4 49 -4c56.667 0 85 28.667 85 86c0 27.333 -8.16699 49 -24.5 65s-38.833 24 -67.5 24h-87v112h108c57.333 0 102.333 -20.333 135 -61c31.333 47.333 76.333 71 135 71
c50.667 0 88.667 -15.333 114 -46v116h140v-80h85v-112h-85v-559z" />
    <glyph glyph-name="bnSSA" unicode="&#x9b7;" horiz-adv-x="588" 
d="M313 441l70 -42v160h-270zM608 559h-85v-559h-140l-348 142l1 1v132l144 103l-141 77v104h-59v112h628v-112zM383 134v134l-83 45l-121 -91z" />
    <glyph glyph-name="bnSA" unicode="&#x9b8;" horiz-adv-x="615" 
d="M550 0l-140.001 -0.00195312v169c0 65.333 -20.333 98 -61 98c-13.333 0 -25.833 -5.66699 -37.5 -17s-22.667 -25.166 -33 -41.499s-22 -32.833 -35 -49.5s-30.833 -30.667 -53.5 -42s-49.334 -17 -80.001 -17c-27.333 0 -53.333 4 -78 12v115
c18 -5.33301 37.333 -8 58 -8c12.667 0 24.834 3.5 36.501 10.5s20.334 13.833 26.001 20.5s14.167 18.5 25.5 35.5s19 28.167 23 33.5c-8 44.667 -26.167 78.334 -54.5 101.001s-64.5 34 -108.5 34v105h-58v112h656v-112h-86v-559zM317.999 384.998
c42.667 0 73.333 -13 92 -39v213h-243c77.333 -33.333 126.333 -91.333 147 -174h4z" />
    <glyph glyph-name="bnHA" unicode="&#x9b9;" horiz-adv-x="460" 
d="M419 -9h-182.998l-183 125v110h100c45.333 0 79.666 9.83301 102.999 29.5s35 46.5 35 80.5c0 22 -5.83301 39.333 -17.5 52s-27.167 19 -46.5 19c-18.667 0 -33.667 -5.83301 -45 -17.5s-17 -26.5 -17 -44.5c0 -17.333 1.66699 -32 5 -44h-127
c-6 19.333 -9 39.666 -9 60.999c0 46.667 17.167 84.5 51.5 113.5s79.833 43.5 136.5 43.5c61.333 0 110.666 -17.667 147.999 -53s56 -78.666 56 -129.999c0 -56 -18.167 -100.833 -54.5 -134.5s-84.5 -55.167 -144.5 -64.5l192 -131v-15zM480.002 559h-500v112h500v-112z
" />
    <glyph glyph-name="bnNukta" unicode="&#x9bc;" 
d="M-209 -132c0 -21.333 -7.5 -39.333 -22.5 -54s-32.833 -22 -53.5 -22s-38.5 7.33301 -53.5 22s-22.5 32.667 -22.5 54s7.5 39.333 22.5 54s32.833 22 53.5 22s38.5 -7.33301 53.5 -22s22.5 -32.667 22.5 -54z" />
    <glyph glyph-name="bnAvagraha" unicode="&#x9bd;" horiz-adv-x="460" 
d="M419 -9l-183 -2l-183 127v110h100c45.333 0 79.666 9.83301 102.999 29.5s35 46.5 35 80.5c0 22 -5.83301 39.333 -17.5 52s-27.167 19 -46.5 19c-18.667 0 -33.667 -5.83301 -45 -17.5s-17 -26.5 -17 -44.5c0 -17.333 1.66699 -32 5 -44h-127
c-6 19.333 -9 39.666 -9 60.999c0 32.667 9 61.5 27 86.5s43 43.5 75 55.5c-24 36.667 -59 55 -105 55h-51v112h74c50.667 0 92.5 -12.667 125.5 -38s62.167 -64.666 87.5 -117.999c48.667 -8.66699 87.334 -29.5 116.001 -62.5s43 -71.833 43 -116.5
c0 -56 -18.167 -100.833 -54.5 -134.5s-84.5 -55.167 -144.5 -64.5l192 -131v-15z" />
    <glyph glyph-name="bnmAA" unicode="&#x9be;" horiz-adv-x="270" 
d="M290 559h-85v-559h-140v497c0 26 -3.5 42.833 -10.5 50.5s-21.167 11.5 -42.5 11.5h-32v112h50c22 0 38.667 -11.333 50 -34c-6.66699 36 -10 68 -10 96v18h135v-80h85v-112z" />
    <glyph glyph-name="bnmI" unicode="&#x9bf;" horiz-adv-x="270" 
d="M290 559l-85 -0.00195312v-559h-140v559h-85v112h85v42c0 70.667 22.833 123.334 68.5 158.001s108.167 52 187.5 52c47.333 0 96.5 -5.5 147.5 -16.5s90.167 -22.5 117.5 -34.5v-106c-29.333 10.667 -68.5 20.834 -117.5 30.501s-94.5 14.5 -136.5 14.5
c-84 0 -126 -32.333 -126 -97v-43h84v-112z" />
    <glyph glyph-name="bnmII" unicode="&#x9c0;" horiz-adv-x="270" 
d="M290 559l-85.001 -0.000976562v-559h-140v559h-84v112h84v27c0 57.333 -21.333 103.166 -64 137.499s-102.667 51.5 -180 51.5c-66.667 0 -100 -14.333 -100 -43c0 -16.667 10 -28 30 -34s49.667 -9 89 -9c32 0 63.667 2.33301 95 7v-87
c-28 -8.66699 -70.333 -13 -127 -13c-144.667 0 -217 45.333 -217 136c0 44.667 21.333 80.334 64 107.001s98 40 166 40c112.667 0 204.834 -29.167 276.501 -87.5s107.5 -127.166 107.5 -206.499v-26h85v-112z" />
    <glyph glyph-name="bnmU" unicode="&#x9c1;" 
d="M-153 -172c32.667 0 51.333 25.001 56 75.001c-21.333 6.66699 -39.333 10 -54 10c-15.333 0 -27.333 -3.83301 -36 -11.5s-13 -17.834 -13 -30.501c0 -13.333 4.33301 -23.833 13 -31.5s20 -11.5 34 -11.5zM111.999 -247.999
c-38.667 40.667 -78.998 75.666 -120.998 104.999c-18.667 -81.333 -67.334 -122 -146.001 -122c-46 0 -84 12.333 -114 37s-45 57.334 -45 98.001c0 42.667 14.5 77.167 43.5 103.5s68.167 39.5 117.5 39.5c50.667 0 99.167 -13 145.5 -39s86.166 -56.667 119.499 -92v-130
z" />
    <glyph glyph-name="bnmUU" unicode="&#x9c2;" 
d="M-303 -133c0 44 14.167 79.168 42.5 105.501s65.833 39.5 112.5 39.5c27.333 0 54.666 -3.66699 81.999 -11v-93c-24.667 7.33301 -45.667 11 -63 11c-46.667 0 -70 -17.333 -70 -52c0 -14.667 5.83301 -26.334 17.5 -35.001s27.5 -13 47.5 -13
c42.667 0 81.334 28 116.001 84l120 -72v-104l-104 61c-37.333 -37.333 -83 -56 -137 -56c-47.333 0 -86.5 12 -117.5 36s-46.5 57 -46.5 99z" />
    <glyph glyph-name="bnmvR" unicode="&#x9c3;" 
d="M3 -167v-113l-296 106v83l97 112l131 -21l-89 -109z" />
    <glyph glyph-name="bnmvRR" unicode="&#x9c4;" 
d="M-25 -359v-112l-256 94v83l75 89l-87 31v83l97 112l131 -21l-89 -109l157 -58v-113l-101 36l-54 -68z" />
    <glyph glyph-name="bnmE" unicode="&#x9c7;" horiz-adv-x="309" 
d="M294 -7c-10.667 -2 -23.3359 -2.99805 -38.0029 -2.99805c-36.667 0 -68.667 7.83301 -96 23.5s-49.166 37.167 -65.499 64.5s-28.5 57.666 -36.5 90.999s-12.333 69.333 -13 108c0 139.333 20 233.333 60 282h-125v112h349v-112h-33
c-24.667 0 -45.167 -7.33301 -61.5 -22s-28.166 -36.334 -35.499 -65.001s-12.333 -57.667 -15 -87s-4 -65.333 -4 -108c0 -109.333 30.333 -164 91 -164c10.667 0 18.334 0.333008 23.001 1v-121z" />
    <glyph glyph-name="bnmAI" unicode="&#x9c8;" horiz-adv-x="309" 
d="M294 -7c-10.667 -2 -23.335 -2.99707 -38.002 -2.99707c-36.667 0 -68.667 7.83301 -96 23.5s-49.166 37.167 -65.499 64.5s-28.5 57.666 -36.5 90.999s-12.333 69.333 -13 108c0 139.333 20 233.333 60 282h-125v112h201c0 4.66699 0.166992 11.667 0.5 21
s0.5 14.666 0.5 15.999c0 34 -17.333 51 -52 51c-8 0 -25.333 -3.16699 -52 -9.5s-47.334 -9.5 -62.001 -9.5c-26 0 -49.667 4.66699 -71 14v108c16 -6.66699 35.333 -10 58 -10c14 0 36.167 4 66.5 12s55.833 12 76.5 12c52.667 0 93 -13.833 121 -41.5s42 -66.5 42 -116.5
c0 -16 -1.33301 -31.667 -4 -47h24v-112h-33c-24.667 0 -45.167 -7.33301 -61.5 -22s-28.166 -36.334 -35.499 -65.001s-12.333 -57.667 -15 -87s-4 -65.333 -4 -108c0 -109.333 30.333 -164 91 -164c10.667 0 18.334 0.333008 23.001 1v-121z" />
    <glyph glyph-name="bnmO" unicode="&#x9cb;" horiz-adv-x="1200" 
d="M567 90c0 -13.333 -4.16699 -24.333 -12.5 -33s-18.833 -13 -31.5 -13s-23.334 4.33301 -32.001 13s-13 19.667 -13 33c0 12 4.33301 22.333 13 31s19.334 13 32.001 13s23.167 -4.33301 31.5 -13s12.5 -19 12.5 -31zM465 165c0 -12.667 -4.16699 -23.167 -12.5 -31.5
s-18.833 -12.5 -31.5 -12.5s-23.167 4.16699 -31.5 12.5s-12.5 18.833 -12.5 31.5s4.16699 23.167 12.5 31.5s18.833 12.5 31.5 12.5s23.167 -4.16699 31.5 -12.5s12.5 -18.833 12.5 -31.5zM413 281c0 -12.667 -4.16699 -23.002 -12.5 -31.002s-18.833 -12 -31.5 -12
s-23.167 4 -31.5 12s-12.5 18.333 -12.5 31s4.16699 23.334 12.5 32.001s18.833 13 31.5 13s23.167 -4.16699 31.5 -12.5s12.5 -19.166 12.5 -32.499zM694 73.998c0 -12.667 -4.16699 -23.167 -12.5 -31.5s-19.166 -12.5 -32.499 -12.5c-12.667 0 -23.167 4 -31.5 12
s-12.5 18.667 -12.5 32s4.16699 24 12.5 32s18.833 12 31.5 12c13.333 0 24.166 -4.16699 32.499 -12.5s12.5 -18.833 12.5 -31.5zM428 406.998c0 -12.667 -4.33301 -23.167 -13 -31.5s-19 -12.5 -31 -12.5c-13.333 0 -24.333 4.16699 -33 12.5s-13 18.833 -13 31.5
s4.33301 23.167 13 31.5s19.667 12.5 33 12.5c12 0 22.333 -4.16699 31 -12.5s13 -18.833 13 -31.5zM815 126.998c0 -12.667 -4.33301 -23.167 -13 -31.5s-19.334 -12.5 -32.001 -12.5s-23.167 4.16699 -31.5 12.5s-12.5 18.833 -12.5 31.5s4.16699 23.167 12.5 31.5
s18.833 12.5 31.5 12.5s23.334 -4.16699 32.001 -12.5s13 -18.833 13 -31.5zM508 516.998c0 -13.333 -4.16699 -24.166 -12.5 -32.499s-18.833 -12.5 -31.5 -12.5s-23.167 4.16699 -31.5 12.5s-12.5 19.166 -12.5 32.499c0 12.667 4.16699 23.167 12.5 31.5
s18.833 12.5 31.5 12.5s23.167 -4.16699 31.5 -12.5s12.5 -18.833 12.5 -31.5zM887 224.998c0 -12.667 -4.16504 -23.167 -12.498 -31.5s-18.5 -12.5 -30.5 -12.5c-12.667 0 -23.334 4.16699 -32.001 12.5s-13 18.833 -13 31.5s4.16699 23.334 12.5 32.001
s19.166 13 32.499 13c12 0 22.167 -4.33301 30.5 -13s12.5 -19.334 12.5 -32.001zM626.002 559.998c0 -13.333 -4 -24 -12 -32s-18.667 -12 -32 -12s-24 4 -32 12s-12 18.667 -12 32s4 24 12 32s18.667 12 32 12s24 -4 32 -12s12 -18.667 12 -32zM897.002 358.998
c0 -12.667 -4.16699 -23.167 -12.5 -31.5s-18.833 -12.5 -31.5 -12.5s-23.167 4.16699 -31.5 12.5s-12.5 18.833 -12.5 31.5s4.16699 23.167 12.5 31.5s18.833 12.5 31.5 12.5s23.167 -4.16699 31.5 -12.5s12.5 -18.833 12.5 -31.5zM752.002 544.998
c0 -12 -4.16699 -22.335 -12.5 -31.002s-18.5 -13 -30.5 -13c-12.667 0 -23.334 4.33301 -32.001 13s-13 19 -13 31c0 12.667 4.33301 23.334 13 32.001s19.334 13 32.001 13s23 -4.16699 31 -12.5s12 -19.166 12 -32.499zM847.002 476.996
c0 -12.667 -4.16699 -23.1689 -12.5 -31.502s-18.833 -12.5 -31.5 -12.5s-23.167 4.16699 -31.5 12.5s-12.5 18.833 -12.5 31.5s4.16699 23.334 12.5 32.001s18.833 13 31.5 13s23.167 -4.16699 31.5 -12.5s12.5 -19.166 12.5 -32.499zM294.002 -7.00586
c-10.667 -2 -23.3359 -2.99805 -38.0029 -2.99805c-36.667 0 -68.667 7.83301 -96 23.5s-49.166 37.167 -65.499 64.5s-28.5 57.666 -36.5 90.999s-12.333 69.333 -13 108c0 139.333 20 233.333 60 282h-125v112h349v-112h-33c-24.667 0 -45.167 -7.33301 -61.5 -22
s-28.166 -36.334 -35.499 -65.001s-12.333 -57.667 -15 -87s-4 -65.333 -4 -108c0 -109.333 30.333 -164 91 -164c10.667 0 18.334 0.333008 23.001 1v-121zM1220 558.996h-85v-559h-140v497c0 26 -3.5 42.833 -10.5 50.5s-21.167 11.5 -42.5 11.5h-32v112h50
c22 0 38.667 -11.333 50 -34c-6.66699 36 -10 68 -10 96v18h135v-80h85v-112z" />
    <glyph glyph-name="bnmAU" unicode="&#x9cc;" horiz-adv-x="1200" 
d="M567 90c0 -13.333 -4.16699 -24.333 -12.5 -33s-18.833 -13 -31.5 -13s-23.334 4.33301 -32.001 13s-13 19.667 -13 33c0 12 4.33301 22.333 13 31s19.334 13 32.001 13s23.167 -4.33301 31.5 -13s12.5 -19 12.5 -31zM465 165c0 -12.667 -4.16699 -23.167 -12.5 -31.5
s-18.833 -12.5 -31.5 -12.5s-23.167 4.16699 -31.5 12.5s-12.5 18.833 -12.5 31.5s4.16699 23.167 12.5 31.5s18.833 12.5 31.5 12.5s23.167 -4.16699 31.5 -12.5s12.5 -18.833 12.5 -31.5zM413 281c0 -12.667 -4.16699 -23.002 -12.5 -31.002s-18.833 -12 -31.5 -12
s-23.167 4 -31.5 12s-12.5 18.333 -12.5 31s4.16699 23.334 12.5 32.001s18.833 13 31.5 13s23.167 -4.16699 31.5 -12.5s12.5 -19.166 12.5 -32.499zM694 73.998c0 -12.667 -4.16699 -23.167 -12.5 -31.5s-19.166 -12.5 -32.499 -12.5c-12.667 0 -23.167 4 -31.5 12
s-12.5 18.667 -12.5 32s4.16699 24 12.5 32s18.833 12 31.5 12c13.333 0 24.166 -4.16699 32.499 -12.5s12.5 -18.833 12.5 -31.5zM428 406.998c0 -12.667 -4.33301 -23.167 -13 -31.5s-19 -12.5 -31 -12.5c-13.333 0 -24.333 4.16699 -33 12.5s-13 18.833 -13 31.5
s4.33301 23.167 13 31.5s19.667 12.5 33 12.5c12 0 22.333 -4.16699 31 -12.5s13 -18.833 13 -31.5zM815 126.998c0 -12.667 -4.33301 -23.167 -13 -31.5s-19.334 -12.5 -32.001 -12.5s-23.167 4.16699 -31.5 12.5s-12.5 18.833 -12.5 31.5s4.16699 23.167 12.5 31.5
s18.833 12.5 31.5 12.5s23.334 -4.16699 32.001 -12.5s13 -18.833 13 -31.5zM508 516.998c0 -13.333 -4.16699 -24.166 -12.5 -32.499s-18.833 -12.5 -31.5 -12.5s-23.167 4.16699 -31.5 12.5s-12.5 19.166 -12.5 32.499c0 12.667 4.16699 23.167 12.5 31.5
s18.833 12.5 31.5 12.5s23.167 -4.16699 31.5 -12.5s12.5 -18.833 12.5 -31.5zM887 224.998c0 -12.667 -4.16504 -23.167 -12.498 -31.5s-18.5 -12.5 -30.5 -12.5c-12.667 0 -23.334 4.16699 -32.001 12.5s-13 18.833 -13 31.5s4.16699 23.334 12.5 32.001
s19.166 13 32.499 13c12 0 22.167 -4.33301 30.5 -13s12.5 -19.334 12.5 -32.001zM626.002 559.998c0 -13.333 -4 -24 -12 -32s-18.667 -12 -32 -12s-24 4 -32 12s-12 18.667 -12 32s4 24 12 32s18.667 12 32 12s24 -4 32 -12s12 -18.667 12 -32zM897.002 358.998
c0 -12.667 -4.16699 -23.167 -12.5 -31.5s-18.833 -12.5 -31.5 -12.5s-23.167 4.16699 -31.5 12.5s-12.5 18.833 -12.5 31.5s4.16699 23.167 12.5 31.5s18.833 12.5 31.5 12.5s23.167 -4.16699 31.5 -12.5s12.5 -18.833 12.5 -31.5zM752.002 544.998
c0 -12 -4.16699 -22.335 -12.5 -31.002s-18.5 -13 -30.5 -13c-12.667 0 -23.334 4.33301 -32.001 13s-13 19 -13 31c0 12.667 4.33301 23.334 13 32.001s19.334 13 32.001 13s23 -4.16699 31 -12.5s12 -19.166 12 -32.499zM847.002 476.996
c0 -12.667 -4.16699 -23.1689 -12.5 -31.502s-18.833 -12.5 -31.5 -12.5s-23.167 4.16699 -31.5 12.5s-12.5 18.833 -12.5 31.5s4.16699 23.334 12.5 32.001s18.833 13 31.5 13s23.167 -4.16699 31.5 -12.5s12.5 -19.166 12.5 -32.499zM294.002 -7.00586
c-10.667 -2 -23.3359 -2.99805 -38.0029 -2.99805c-36.667 0 -68.667 7.83301 -96 23.5s-49.166 37.167 -65.499 64.5s-28.5 57.666 -36.5 90.999s-12.333 69.333 -13 108c0 139.333 20 233.333 60 282h-125v112h349v-112h-33c-24.667 0 -45.167 -7.33301 -61.5 -22
s-28.166 -36.334 -35.499 -65.001s-12.333 -57.667 -15 -87s-4 -65.333 -4 -108c0 -109.333 30.333 -164 91 -164c10.667 0 18.334 0.333008 23.001 1v-121zM910 670.996h100.999c0 3.33301 0.166992 8.33301 0.5 15s0.5 10.667 0.5 12c0 20.667 -3.5 36 -10.5 46
s-20.833 15 -41.5 15c-11.333 0 -32 -3.16699 -62 -9.5s-54 -9.5 -72 -9.5c-33.333 0 -62.333 7.33301 -87 22v107c20.667 -11.333 45.334 -17 74.001 -17c17.333 0 42.833 4 76.5 12s62.5 12 86.5 12c52.667 0 93 -13.833 121 -41.5s42 -66.5 42 -116.5
c0 -16 -1.33301 -31.667 -4 -47h85v-112h-85v-559h-140v559h-85v112z" />
    <glyph glyph-name="bnVirama" unicode="&#x9cd;" 
d="M-203 -51h138l151 -149v-4h-137l-152 149v4z" />
    <glyph glyph-name="bnTAkhanda" unicode="&#x9ce;" horiz-adv-x="600" 
d="M556 0l-150.001 -0.00195312v53c0 28 -6.5 52.5 -19.5 73.5s-29.833 38 -50.5 51s-43.5 25.167 -68.5 36.5s-50 23.833 -75 37.5s-47.833 29.5 -68.5 47.5s-37.5 41.833 -50.5 71.5s-19.5 64.5 -19.5 104.5c0 61.333 20.833 109.666 62.5 144.999s96.167 53 163.5 53
c71.333 0 126.333 -18.667 165 -56s58 -83.666 58 -138.999c0 -31.333 -4.33301 -57 -13 -77h-143c10.667 30.667 16 56.334 16 77.001c0 25.333 -6.5 45.5 -19.5 60.5s-32.5 22.5 -58.5 22.5c-27.333 0 -47.666 -7.83301 -60.999 -23.5s-20 -36.5 -20 -62.5
c0 -26.667 6.5 -50.167 19.5 -70.5s29.833 -37 50.5 -50s43.5 -25.5 68.5 -37.5s50 -25.167 75 -39.5s47.833 -30.5 68.5 -48.5s37.5 -42.167 50.5 -72.5s19.5 -65.166 19.5 -104.499v-52z" />
    <glyph glyph-name="bnAUlengthmark" unicode="&#x9d7;" horiz-adv-x="270" 
d="M-20 671h100.999c0 3.33301 0.166992 8.33301 0.5 15s0.5 10.667 0.5 12c0 20.667 -3.5 36 -10.5 46s-20.833 15 -41.5 15c-11.333 0 -32 -3.16699 -62 -9.5s-54 -9.5 -72 -9.5c-33.333 0 -62.333 7.33301 -87 22v107c20.667 -11.333 45.334 -17 74.001 -17
c17.333 0 42.833 4 76.5 12s62.5 12 86.5 12c52.667 0 93 -13.833 121 -41.5s42 -66.5 42 -116.5c0 -16 -1.33301 -31.667 -4 -47h85v-112h-85v-559h-140v559h-85v112z" />
    <glyph glyph-name="bnDDxA" unicode="&#x9dc;" horiz-adv-x="678" 
d="M648 292c0 -82.667 -25.668 -151.999 -77.001 -207.999s-122.666 -84 -213.999 -84c-96.667 0 -175.334 31.5 -236.001 94.5s-91 151.833 -91 266.5c0 32.667 1.33301 61 4 85h138c-2.66699 -24 -4 -50.333 -4 -79c0 -80.667 17.333 -142 52 -184s80.334 -63 137.001 -63
c52.667 0 92.667 15.167 120 45.5s41 70.833 41 121.5c-35.333 -16.667 -71 -25 -107 -25c-54 0 -95.167 14.667 -123.5 44s-42.5 71.666 -42.5 126.999v126h-265v112h718v-112h-313v-124c0 -35.333 18 -53 54 -53c37.333 0 97.333 20.667 180 62
c19.333 -47.333 29 -98 29 -152zM417.999 -121.999c0 -21.333 -7.33301 -39.333 -22 -54s-32.667 -22 -54 -22s-39.333 7.33301 -54 22s-22 32.667 -22 54s7.33301 39.333 22 54s32.667 22 54 22s39.333 -7.33301 54 -22s22 -32.667 22 -54z" />
    <glyph glyph-name="bnDDHxA" unicode="&#x9dd;" horiz-adv-x="565" 
d="M532 262c0 -70.667 -24.834 -133.667 -74.501 -189s-114.834 -83 -195.501 -83c-54 0 -100.333 15.667 -139 47s-58 73.333 -58 126v396h-85v112h605v-112h-380v-396c0 -16.667 5.33301 -29.667 16 -39s24.334 -14 41.001 -14c39.333 0 70.833 15.833 94.5 47.5
s35.5 66.5 35.5 104.5c0 54 -28.333 81 -85 81c-14.667 0 -28.667 -1.33301 -42 -4v122c20.667 4.66699 41.667 7 63 7c64.667 0 114.834 -18.667 150.501 -56s53.5 -87.333 53.5 -150zM355.999 -132c0 -21.333 -7.33301 -39.333 -22 -54s-32.667 -22 -54 -22
s-39.333 7.33301 -54 22s-22 32.667 -22 54s7.33301 39.333 22 54s32.667 22 54 22s39.333 -7.33301 54 -22s22 -32.667 22 -54z" />
    <glyph glyph-name="bnYxA" unicode="&#x9df;" horiz-adv-x="588" 
d="M313 431v-119l-131 -91l201 -87v425h-265zM608 559h-85v-559h-140l-348 142l1 1v132l144 97l-141 83v104h-59v112h628v-112zM225 -61c0 -20.667 -7.5 -38.5 -22.5 -53.5s-32.833 -22.5 -53.5 -22.5s-38.5 7.5 -53.5 22.5s-22.5 32.833 -22.5 53.5s7.5 38.5 22.5 53.5
s32.833 22.5 53.5 22.5s38.5 -7.5 53.5 -22.5s22.5 -32.833 22.5 -53.5z" />
    <glyph glyph-name="bnvRR" unicode="&#x9e0;" horiz-adv-x="878" 
d="M418 -73v-123l-318 114v93l89 89l-134 62l1 1v132l243 124l-33 67c-26.667 -36 -63.667 -54 -111 -54c-48 0 -85 14 -111 42s-39 65.667 -39 113c0 33.333 5.33301 61.333 16 84h115c-6.66699 -20 -10 -41.667 -10 -65c0 -18.667 4.33301 -34 13 -46s19.667 -18 33 -18
c22 0 35.833 7.16699 41.5 21.5s8.5 37.833 8.5 70.5c0 16 -0.333008 28.333 -1 37h100l78 -201l9 4v197h135v-342h18c50 0 85.667 -16 107 -48v470h140v-80h85v-112h-85v-469h-140c0 84.667 -40.667 127 -122 127h-3v-217h-140l-109 51l-55 -58zM403 136v197l-197 -101z
" />
    <glyph glyph-name="bnvLL" unicode="&#x9e1;" horiz-adv-x="705" 
d="M705 -127c0 -53.333 -20.3281 -95.334 -60.9951 -126.001s-91.667 -46 -153 -46c-6.66699 0 -17.334 0.666992 -32.001 2l1 74c13.333 5.33301 24.5 15 33.5 29s13.5 30.333 13.5 49c0 12 -3.16699 21.667 -9.5 29s-14.833 11 -25.5 11c-21.333 0 -32 -13.333 -32 -40
c0 -16 2.66699 -32.667 8 -50h-72c-7.33301 23.333 -11 44 -11 62c0 28 9.16699 51.5 27.5 70.5s43.5 28.5 75.5 28.5c32.667 0 58.667 -10 78 -30s29 -46 29 -78c0 -24.667 -7.33301 -49.334 -22 -74.001c39.333 14 59 43.667 59 89c0 26.667 -8.5 48.834 -25.5 66.501
s-41 34.834 -72 51.501s-52.167 30 -63.5 40c-54 -28 -118.333 -42 -193 -42c-18.667 0 -38 1 -58 3l1 116c24 8.66699 44 25.667 60 51s24 54.666 24 87.999c0 21.333 -5.5 38.666 -16.5 51.999s-26.167 20 -45.5 20c-38.667 0 -58 -23.667 -58 -71c0 -24.667 5 -55 15 -91
h-125c-13.333 38 -20 75.333 -20 112c0 48.667 16.833 88.334 50.5 119.001s77.167 46 130.5 46c59.333 0 106.166 -16.667 140.499 -50s51.5 -78 51.5 -134c0 -45.333 -13.667 -88.333 -41 -129c71.333 27.333 107 83 107 167c0 33.333 -6.66699 62.5 -20 87.5
s-30.5 45.167 -51.5 60.5s-44.167 29.5 -69.5 42.5l-76.5 38.5c-25.667 12.667 -49 26.667 -70 42s-38.167 35.333 -51.5 60s-20 53.334 -20 86.001c0 17.333 1.66699 32.666 5 45.999h128c-0.666992 -2.66699 -1 -7.66699 -1 -15c0 -22.667 6.5 -42.5 19.5 -59.5
s30.167 -31.667 51.5 -44s44.666 -24.5 69.999 -36.5s50.666 -26.333 75.999 -43s48.666 -35.667 69.999 -57s38.5 -49.833 51.5 -85.5s19.5 -76.5 19.5 -122.5c0 -81.333 -25.333 -148.333 -76 -201c8.66699 -8.66699 24.667 -20.5 48 -35.5s43.5 -28.667 60.5 -41
s32.5 -30.666 46.5 -54.999s21 -51.833 21 -82.5z" />
    <glyph glyph-name="bnmvL" unicode="&#x9e2;" 
d="M167 -157c0 -46 -16.668 -84.499 -50.001 -115.499s-78.666 -46.5 -135.999 -46.5c-12.667 0 -21.667 0.333008 -27 1v75c11.333 3.33301 20.833 11.333 28.5 24s11.5 27 11.5 43c0 10 -2.66699 18.167 -8 24.5s-12.666 9.5 -21.999 9.5c-18 0 -27 -11.333 -27 -34
c0 -10.667 2.33301 -25.334 7 -44.001h-69c-6.66699 19.333 -10 37 -10 53c0 24.667 8.5 45.667 25.5 63s39.833 26 68.5 26c27.333 0 49.666 -9.33301 66.999 -28s26 -41.667 26 -69c0 -20.667 -5.33301 -40.667 -16 -60c32 12.667 48 38.667 48 78
c0 21.333 -5.83301 39.333 -17.5 54s-26 26.167 -43 34.5l-50.5 24.5c-16.667 8 -30.834 19 -42.501 33s-17.5 31.667 -17.5 53c0 10 1 17 3 21h81c-0.666992 -0.666992 -1 -2.66699 -1 -6c0 -14.667 5.83301 -27.167 17.5 -37.5s26 -19.333 43 -27s33.833 -16.667 50.5 -27
s30.834 -25.833 42.501 -46.5s17.5 -46 17.5 -76z" />
    <glyph glyph-name="bnmvLL" unicode="&#x9e3;" 
d="M167 -157c0 -34 -9.33203 -64.3311 -27.999 -90.998l21.5 -11c11.667 -6 19.667 -10.5 24 -13.5s11 -8.33301 20 -16s15.5 -15 19.5 -22s7.83301 -16.333 11.5 -28s5.5 -24.5 5.5 -38.5c0 -36 -12.167 -64.333 -36.5 -85s-56.833 -31 -97.5 -31
c-10.667 0 -18 0.333008 -22 1v45c9.33301 2.66699 17.166 9 23.499 19s9.5 22 9.5 36c0 7.33301 -2.33301 13.666 -7 18.999s-10.667 8 -18 8c-6.66699 0 -12.167 -2.5 -16.5 -7.5s-6.5 -11.5 -6.5 -19.5c0 -7.33301 2 -19 6 -35h-48c-4.66699 14.667 -7 28.334 -7 41.001
c0 19.333 6.5 35 19.5 47s29.833 18 50.5 18c22.667 0 40.667 -6.33301 54 -19s20 -29.667 20 -51c0 -18 -5.66699 -35 -17 -51c28.667 9.33301 43 31 43 65c0 10.667 -1.5 20.167 -4.5 28.5s-8.5 15.833 -16.5 22.5s-14.333 11.5 -19 14.5s-13.5 7.66699 -26.5 14
s-21.167 10.166 -24.5 11.499c-31.333 -22 -71 -33 -119 -33c-12.667 0 -21.667 0.333008 -27 1v75c11.333 3.33301 20.833 11.333 28.5 24s11.5 27 11.5 43c0 10 -2.66699 18.167 -8 24.5s-12.666 9.5 -21.999 9.5c-18 0 -27 -11.333 -27 -34
c0 -10.667 2.33301 -25.334 7 -44.001h-69c-6.66699 19.333 -10 37 -10 53c0 24.667 8.5 45.667 25.5 63s39.833 26 68.5 26c27.333 0 49.666 -9.33301 66.999 -28s26 -41.667 26 -69c0 -20.667 -5.33301 -40.667 -16 -60c32 12.667 48 38.667 48 78
c0 21.333 -5.83301 39.333 -17.5 54s-26 26.167 -43 34.5l-50.5 24.5c-16.667 8 -30.834 19 -42.501 33s-17.5 31.667 -17.5 53c0 10 1 17 3 21h81c-0.666992 -0.666992 -1 -2.66699 -1 -6c0 -14.667 5.83301 -27.167 17.5 -37.5s26 -19.333 43 -27s33.833 -16.667 50.5 -27
s30.834 -25.833 42.501 -46.5s17.5 -46 17.5 -76z" />
    <glyph glyph-name="bnZero" unicode="&#x9e6;" horiz-adv-x="604" 
d="M302 92c-76 0 -137.833 22.167 -185.5 66.5s-71.5 104.166 -71.5 179.499s23.833 135.166 71.5 179.499s109.5 66.5 185.5 66.5s137.833 -22.167 185.5 -66.5s71.5 -104.166 71.5 -179.499s-23.833 -135.166 -71.5 -179.499s-109.5 -66.5 -185.5 -66.5zM302 464
c-38 0 -67.833 -11.333 -89.5 -34s-32.5 -53.334 -32.5 -92.001s10.833 -69.334 32.5 -92.001s51.5 -34 89.5 -34s67.833 11.333 89.5 34s32.5 53.334 32.5 92.001s-10.833 69.334 -32.5 92.001s-51.5 34 -89.5 34z" />
    <glyph glyph-name="bnOne" unicode="&#x9e7;" horiz-adv-x="527" 
d="M222 229l0.000976562 111.001c-57.333 0 -103.666 -14.833 -138.999 -44.5s-53 -70.834 -53 -123.501c0 -56 19 -100.333 57 -133s91.667 -49 161 -49c74.667 0 133.167 20 175.5 60s63.5 93.333 63.5 160c0 38.667 -8.33301 76 -25 112s-36.667 67.167 -60 93.5
s-46.833 51.166 -70.5 74.499s-43.834 46.833 -60.501 70.5s-25 45.834 -25 66.501c0 14.667 2.33301 29.334 7 44.001h-134c-5.33301 -20.667 -8 -41 -8 -61c0 -30 8.16699 -58.833 24.5 -86.5s36.166 -52.834 59.499 -75.501l70 -68
c23.333 -22.667 43.166 -48.5 59.499 -77.5s24.5 -59.5 24.5 -91.5s-9.16699 -57.167 -27.5 -75.5s-43.166 -27.5 -74.499 -27.5c-24 0 -43.667 5.66699 -59 17s-23 27.333 -23 48c0 18 5 31.833 15 41.5s24 14.5 42 14.5z" />
    <glyph glyph-name="bnTwo" unicode="&#x9e8;" horiz-adv-x="474" 
d="M434 -75l-394.996 264.998v155c55.333 -50 114.666 -75 177.999 -75c26 0 46 7 60 21s21 33 21 57c0 18.667 -7.33301 36 -22 52s-32.334 30.5 -53.001 43.5s-41.334 26.833 -62.001 41.5s-38.334 33.334 -53.001 56.001s-22 48.334 -22 77.001c0 19.333 4 37 12 53h127
c-6.66699 -13.333 -10 -27 -10 -41c0 -15.333 7.5 -30.666 22.5 -45.999s33.167 -30.333 54.5 -45s42.666 -30.5 63.999 -47.5s39.5 -38.833 54.5 -65.5s22.5 -56.334 22.5 -89.001c0 -44 -14.667 -81.333 -44 -112s-68.666 -48 -117.999 -52
c38 -18.667 72.667 -38.667 104 -60l59 -40v-148z" />
    <glyph glyph-name="bnThree" unicode="&#x9e9;" horiz-adv-x="707" 
d="M667 351c0 -102 -28 -182.665 -84 -241.998s-129 -89 -219 -89c-101.333 0 -180.666 32 -237.999 96s-86 158.333 -86 283c0 50.667 7.66699 106 23 166h137c-14.667 -57.333 -22 -112.333 -22 -165c0 -171.333 62 -257 186 -257c51.333 0 90.666 18.5 117.999 55.5
s41 87.833 41 152.5c0 36 -5 65 -15 87s-24.667 33 -44 33c-17.333 0 -30.5 -7.5 -39.5 -22.5s-13.5 -35.167 -13.5 -60.5c0 -27.333 4.66699 -57.333 14 -90h-134c-12 29.333 -18 60.666 -18 93.999c0 58 15.833 105.667 47.5 143s77.5 56 137.5 56
c67.333 0 119 -22.333 155 -67s54 -102.334 54 -173.001z" />
    <glyph glyph-name="bnFour" unicode="&#x9ea;" horiz-adv-x="535" 
d="M484 512c0 -62 -31.665 -114.999 -94.998 -158.999c70.667 -46.667 106 -104.334 106 -173.001c0 -59.333 -20.833 -105.833 -62.5 -139.5s-95.5 -50.5 -161.5 -50.5c-66.667 0 -121.834 16.167 -165.501 48.5s-65.5 77.833 -65.5 136.5c0 68.667 33.333 124.667 100 168
c-57.333 37.333 -86 90.333 -86 159c0 56 20.667 99.833 62 131.5s93.666 47.5 156.999 47.5s114.333 -16.167 153 -48.5s58 -72.5 58 -120.5zM191.002 495.001c0 -38 19 -70.001 57 -96.001c33.333 16 58.5 31.667 75.5 47s25.5 34.333 25.5 57c0 20 -7 35.167 -21 45.5
s-33 15.5 -57 15.5c-26.667 0 -46.667 -6.16699 -60 -18.5s-20 -29.166 -20 -50.499zM268.002 107c25.333 0 46.5 7.00098 63.5 21.001s25.5 34 25.5 60c0 35.333 -25.667 69.666 -77 102.999c-34 -18.667 -59.667 -36.167 -77 -52.5s-26 -35.833 -26 -58.5
c0 -24 8.5 -42.167 25.5 -54.5s38.833 -18.5 65.5 -18.5z" />
    <glyph glyph-name="bnFive" unicode="&#x9eb;" horiz-adv-x="589" 
d="M171 322c0 -120.667 68.333 -189.666 205 -206.999c-34 29.333 -51 72.666 -51 129.999c0 32 7.66699 61.5 23 88.5s38.333 47.167 69 60.5c-32.667 10 -59.667 27.167 -81 51.5s-33.333 51.5 -36 81.5c-86 -40 -129 -108.333 -129 -205zM559 452.001v-113
c-37.333 0 -64.166 -12.333 -80.499 -37s-24.5 -53.334 -24.5 -86.001c0 -36.667 8.83301 -65.667 26.5 -87s43.5 -32 77.5 -32v-98c-34.667 -4.66699 -73.667 -7 -117 -7c-132.667 0 -233.5 31 -302.5 93s-103.5 141.333 -103.5 238c0 97.333 33.167 178.333 99.5 243
s152.166 103 257.499 115l39 -80c-3.33301 -7.33301 -5 -17.666 -5 -30.999c0 -33.333 13 -60.5 39 -81.5s57.333 -33.167 94 -36.5z" />
    <glyph glyph-name="bnSix" unicode="&#x9ec;" horiz-adv-x="678" 
d="M227 681c50 0 90.501 -15.832 121.501 -47.499s46.5 -76.5 46.5 -134.5v-70c0 -31.333 15.667 -47 47 -47c35.333 0 94.333 20.667 177 62c19.333 -47.333 29 -98 29 -152c0 -82.667 -25.667 -152 -77 -208s-122.666 -84 -213.999 -84
c-96.667 0 -175.334 31.5 -236.001 94.5s-91 151.833 -91 266.5c0 32.667 1.33301 61 4 85h138c-2.66699 -24 -4 -50.333 -4 -79c0 -80.667 17.333 -142 52 -184s80.334 -63 137.001 -63c51.333 0 90.666 14.667 117.999 44s41.666 69.666 42.999 120.999
c-32.667 -15.333 -66.667 -23 -102 -23c-106.667 0 -160 57 -160 171v40c0 52 -22 78 -66 78c-18.667 0 -31 -0.333008 -37 -1v124c27.333 4.66699 52 7 74 7z" />
    <glyph glyph-name="bnSeven" unicode="&#x9ed;" horiz-adv-x="600" 
d="M472 508l-0.000976562 -310c0 -52 22 -78 66 -78c18.667 0 31 0.333008 37 1v-124c-27.333 -4.66699 -52 -7 -74 -7c-50 0 -90.667 15.833 -122 47.5s-47 76.5 -47 134.5v45c-28 -6 -55.667 -9 -83 -9c-69.333 0 -122.333 19.333 -159 58s-55 89.667 -55 153
c0 68.667 23.833 129.5 71.5 182.5s108.834 79.5 183.501 79.5c52.667 0 96.167 -15.5 130.5 -46.5s51.5 -73.167 51.5 -126.5zM261.999 336c8 0 31.333 1.66699 70 5v167c0 35.333 -14.667 53 -44 53c-31.333 0 -58 -13.833 -80 -41.5s-33 -61.167 -33 -100.5
c0 -55.333 29 -83 87 -83z" />
    <glyph glyph-name="bnEight" unicode="&#x9ee;" horiz-adv-x="744" 
d="M128 163v310.001c0 52 -22 78 -66 78c-18.667 0 -31 -0.333008 -37 -1v124c27.333 4.66699 52 7 74 7c50 0 90.667 -15.833 122 -47.5s47 -76.5 47 -134.5v-45c28 6 55.667 9 83 9c44 0 82 -8.33301 114 -25c20 16.667 46.667 25 80 25c36.667 0 55 22.333 55 67
c0 11.333 -0.333008 20.333 -1 27h128c4.66699 -20 7 -40 7 -60c0 -52.667 -14.5 -92.334 -43.5 -119.001s-66.833 -40 -113.5 -40c-7.33301 0 -15.666 -0.666992 -24.999 -2c8.66699 -25.333 13 -53.333 13 -84c0 -68.667 -23.833 -129.5 -71.5 -182.5
s-108.834 -79.5 -183.501 -79.5c-52.667 0 -96.167 15.5 -130.5 46.5s-51.5 73.167 -51.5 126.5zM312 110.001c31.333 0 58 13.833 80 41.5s33 61.167 33 100.5c0 55.333 -29 83 -87 83c-8 0 -31.333 -1.66699 -70 -5v-167c0 -35.333 14.667 -53 44 -53z" />
    <glyph glyph-name="bnNine" unicode="&#x9ef;" horiz-adv-x="649" 
d="M214 351c62 0 110.166 -16.6689 144.499 -50.002s51.5 -75 51.5 -125c0 -22.667 -4.33301 -44.667 -13 -66c28 5.33301 48.833 19 62.5 41s20.5 48.667 20.5 80s-7.66699 58.833 -23 82.5s-35.166 43.167 -59.499 58.5s-51.166 29.5 -80.499 42.5l-88 40
c-29.333 13.667 -56.166 28.667 -80.499 45s-44.166 37.333 -59.499 63s-23 55.167 -23 88.5c0 8.66699 0.333008 15.334 1 20.001h136c-0.666992 -2 -1 -5.66699 -1 -11c0 -18 7.5 -34.667 22.5 -50s34.667 -29.333 59 -42s51.166 -25.667 80.499 -39
s58.666 -29 87.999 -47s56.166 -37.833 80.499 -59.5s44 -49 59 -82s22.5 -69.5 22.5 -109.5c0 -72 -21.167 -128.5 -63.5 -169.5s-103.833 -61.5 -184.5 -61.5h-103v96c16 20 24 43.333 24 70c0 19.333 -6.5 35.5 -19.5 48.5s-30.833 19.5 -53.5 19.5
c-20.667 0 -37.167 -6.33301 -49.5 -19s-18.5 -29.334 -18.5 -50.001c0 -15.333 4.33301 -28.666 13 -39.999s20.667 -18.333 36 -21v-105c-54 0 -97.5 14.167 -130.5 42.5s-49.5 69.5 -49.5 123.5c0 54.667 17.5 99.334 52.5 134.001s83.833 52 146.5 52z" />
    <glyph glyph-name="asRA" unicode="&#x9f0;" horiz-adv-x="540" 
d="M27 209v134c92.667 75.333 198.667 129 318 161v55h-365v112h580v-112h-85v-559h-130zM345 274v110c-38 -14 -70 -27.333 -96 -40zM345 135v63l-160 111c-21.333 -13.333 -37 -24 -47 -32z" />
    <glyph glyph-name="asWA" unicode="&#x9f1;" horiz-adv-x="540" 
d="M237 10v-103l-162 104v110zM560 559l-85 -0.000976562v-559h-135v1l-1 -1l-302 209v134c96.667 78.667 197.667 132.334 303 161.001v55h-360v112h580v-112zM340 145.999v224.999c-68.667 -27.333 -127.667 -59.666 -177 -96.999z" />
    <glyph glyph-name="bnBangladeshitaka" unicode="&#x9f3;" horiz-adv-x="613" 
d="M84 681c50 0 90.498 -15.832 121.498 -47.499s46.5 -76.5 46.5 -134.5v-37h35v-120h-35l1 -169c0 -20.667 6.83301 -36.334 20.5 -47.001s31.167 -16 52.5 -16c40 0 70.667 14.167 92 42.5s32 63.5 32 105.5c0 56.667 -25 85 -75 85c-14.667 0 -28.667 -1.33301 -42 -4
v122c20.667 4.66699 41.667 7 63 7c64 0 112.333 -19.167 145 -57.5s49 -89.166 49 -152.499c0 -74.667 -23.667 -138 -71 -190s-111.666 -78 -192.999 -78c-59.333 0 -109.666 16.167 -150.999 48.5s-62 77.166 -62 134.499v169h-79v120h79v11c0 52 -22 78 -66 78
c-18.667 0 -31 -0.333008 -37 -1v124c27.333 4.66699 52 7 74 7z" />
    <glyph glyph-name="bnNumeratorone" unicode="&#x9f4;" horiz-adv-x="539" 
d="M479 559c0 -152 -37.832 -270.5 -113.499 -355.5s-190.834 -127.5 -345.501 -127.5v120c214 0 321 121 321 363h138z" />
    <glyph glyph-name="bnNumeratortwo" unicode="&#x9f5;" horiz-adv-x="716" 
d="M544 558l139.003 0.00195312c-6.66699 -69.333 -21.334 -135.333 -44.001 -198s-52.834 -119.167 -90.501 -169.5s-85.167 -90.333 -142.5 -120s-120.333 -44.5 -189 -44.5v120c16 5.33301 29.833 18 41.5 38s17.5 43.667 17.5 71c0 41.333 -19 62 -57 62
c-35.333 0 -53 -21.333 -53 -64c0 -16 3 -33 9 -51h-128c-8 22.667 -12 46 -12 70c0 45.333 15.167 83.333 45.5 114s74.166 46 131.499 46c54 0 98.167 -14.5 132.5 -43.5s51.5 -69.167 51.5 -120.5c0 -22.667 -6 -45.334 -18 -68.001c47.333 35.333 85 85.166 113 149.499
s45.667 133.833 53 208.5z" />
    <glyph glyph-name="bnNumeratorthree" unicode="&#x9f6;" horiz-adv-x="689" 
d="M176 318l-130.995 -0.00195312c-3.33301 13.333 -5 26.333 -5 39c0 40 13.833 74.5 41.5 103.5s70.167 43.5 127.5 43.5c52.667 0 93.667 -14.167 123 -42.5s44 -63.833 44 -106.5c0 -25.333 -6.16699 -47.666 -18.5 -66.999s-27.333 -34.666 -45 -45.999
s-35.334 -21.5 -53.001 -30.5s-32.667 -18.167 -45 -27.5s-18.5 -19 -18.5 -29c0 -14.667 6.5 -25.667 19.5 -33s28.167 -11 45.5 -11c47.333 0 89.166 16 125.499 48s65.166 75 86.499 129s37.166 113.333 47.499 178s15.5 133 15.5 205h136
c0 -40.667 -1.33301 -80.667 -4 -120s-8 -82.166 -16 -128.499s-18.333 -89.333 -31 -129s-29.667 -78.667 -51 -117s-45.833 -70.833 -73.5 -97.5s-61.334 -48.167 -101.001 -64.5s-83.5 -24.5 -131.5 -24.5c-60.667 0 -110.5 15.5 -149.5 46.5s-58.5 70.833 -58.5 119.5
c0 29.333 10 54.666 30 75.999s42 37 66 47s46 21.667 66 35s30 27.333 30 42c0 26.667 -12.333 40 -37 40c-26.667 0 -40 -16.333 -40 -49c0 -8 1.66699 -17.667 5 -29z" />
    <glyph glyph-name="bnNumeratorfour" unicode="&#x9f7;" horiz-adv-x="295" 
d="M215 0h-135v671h135v-671z" />
    <glyph glyph-name="bnNumeratoroneless" unicode="&#x9f8;" horiz-adv-x="540" 
d="M485 0h-135v353c-68.667 -56 -124.667 -114.333 -168 -175h-135v336c0 60.667 -10 113 -30 157h135c20 -44 30 -96.333 30 -157v-154c62 67.333 118 113.333 168 138h135v-498z" />
    <glyph glyph-name="bnDenominatorsixteen" unicode="&#x9f9;" horiz-adv-x="537" 
d="M35 338c0 64 21.833 115.833 65.5 155.5s99.834 59.5 168.501 59.5s124.667 -19.833 168 -59.5s65 -91.5 65 -155.5s-21.667 -116 -65 -156s-99.333 -60 -168 -60s-124.834 20 -168.501 60s-65.5 92 -65.5 156zM364 338c0 28 -8.83301 51.166 -26.5 69.499
s-40.5 27.5 -68.5 27.5s-51 -9.16699 -69 -27.5s-27 -41.5 -27 -69.5c0 -27.333 9 -50.166 27 -68.499s41 -27.5 69 -27.5s50.833 9 68.5 27s26.5 41 26.5 69z" />
    <glyph glyph-name="bnIsshar" unicode="&#x9fa;" horiz-adv-x="596" 
d="M561 447c0 -100.667 -27.167 -185.5 -81.5 -254.5s-129.5 -103.5 -225.5 -103.5c-69.333 0 -125.666 19 -168.999 57s-65 86.333 -65 145h137c0 -24 8 -44.5 24 -61.5s41.333 -25.5 76 -25.5c32 0 59.5 7.33301 82.5 22s40.667 34.167 53 58.5s21.166 50 26.499 77
s8 55.5 8 85.5h134zM337 324c0 -20.667 -6.83301 -37.5 -20.5 -50.5s-31.167 -19.5 -52.5 -19.5c-20 0 -36.833 6.66699 -50.5 20s-20.5 30 -20.5 50s6.83301 37 20.5 51s30.5 21 50.5 21c21.333 0.666992 39 -6 53 -20s20.667 -31.333 20 -52z" />
    <glyph glyph-name="bnGanda" unicode="&#x9fb;" horiz-adv-x="521" 
d="M521 23l-0.00390625 -137.004l-273 158c-28 16 -48.667 28.167 -62 36.5s-30.166 20.333 -50.499 36s-35.166 30.167 -44.499 43.5s-17.666 29.833 -24.999 49.5s-11 41.167 -11 64.5c0 55.333 15.167 96.666 45.5 123.999s72.5 41 126.5 41
c15.333 0 33.666 -1.66699 54.999 -5v-123c-12 2 -24.333 3 -37 3c-34.667 0 -52 -14.667 -52 -44c0 -5.33301 0.333008 -10.5 1 -15.5s2.33398 -9.66699 5.00098 -14s4.83398 -8.16602 6.50098 -11.499s4.83398 -7.16602 9.50098 -11.499s8 -7.66602 10 -9.99902
s6.16699 -5.66602 12.5 -9.99902s10.666 -7.16602 12.999 -8.49902l15 -9c7.66699 -4.66699 12.5 -7.66699 14.5 -9z" />
    <glyph glyph-name="uni200C" unicode="&#x200c;" 
d="M24 -230h-47v1041h47v-1041z" />
    <glyph glyph-name="uni200D" unicode="&#x200d;" 
d="M24 -230h-47v865l-69 -73l-33 33l93 93l-95 95l33 33l95 -95l96 95l32 -32l-96 -96l96 -95l-33 -33l-72 75v-865z" />
    <glyph glyph-name="endash" unicode="&#x2013;" horiz-adv-x="555" 
d="M510 215h-465v107h465v-107z" />
    <glyph glyph-name="emdash" unicode="&#x2014;" horiz-adv-x="836" 
d="M791 218h-746v107h746v-107z" />
    <glyph glyph-name="quoteleft" unicode="&#x2018;" horiz-adv-x="267" 
d="M188 433h-161l136 261h126z" />
    <glyph glyph-name="quoteright" unicode="&#x2019;" horiz-adv-x="267" 
d="M154 433h-126l101 261h161z" />
    <glyph glyph-name="quotesinglbase" unicode="&#x201a;" horiz-adv-x="267" 
d="M119 -127h-126l101 261h161z" />
    <glyph glyph-name="quotedblleft" unicode="&#x201c;" horiz-adv-x="452" 
d="M185 433h-158l141 261h121zM378 433h-146l121 261h121z" />
    <glyph glyph-name="quotedblright" unicode="&#x201d;" horiz-adv-x="452" 
d="M149 433h-121l96 261h146zM334 433h-121l104 261h158z" />
    <glyph glyph-name="quotedblbase" unicode="&#x201e;" horiz-adv-x="452" 
d="M119 -127h-121l96 261h146zM304 -127h-121l104 261h158z" />
    <glyph glyph-name="dagger" unicode="&#x2020;" horiz-adv-x="559" 
d="M529 405h-185v-405h-130v405h-184v118h184v151h130v-151h185v-118z" />
    <glyph glyph-name="daggerdbl" unicode="&#x2021;" horiz-adv-x="589" 
d="M544 151h-185v-151h-130v151h-184v118h184v136h-184v118h184v151h130v-151h185v-118h-185v-136h185v-118z" />
    <glyph glyph-name="bullet" unicode="&#x2022;" horiz-adv-x="425" 
d="M345 356c0 -37.333 -12.668 -68.833 -38.001 -94.5s-56.666 -38.5 -93.999 -38.5c-38 0 -69.667 12.667 -95 38s-38 57 -38 95s12.5 69.667 37.5 95s56.5 38 94.5 38c37.333 0 68.833 -12.833 94.5 -38.5s38.5 -57.167 38.5 -94.5z" />
    <glyph glyph-name="ellipsis" unicode="&#x2026;" horiz-adv-x="938" 
d="M238 81c0 -24.667 -8.66699 -45.667 -26 -63s-38.333 -26 -63 -26s-45.667 8.66699 -63 26s-26 38.333 -26 63s8.66699 45.667 26 63s38.333 26 63 26s45.667 -8.66699 63 -26s26 -38.333 26 -63zM558 81c0 -24.667 -8.66699 -45.667 -26 -63s-38.333 -26 -63 -26
s-45.667 8.66699 -63 26s-26 38.333 -26 63s8.66699 45.667 26 63s38.333 26 63 26s45.667 -8.66699 63 -26s26 -38.333 26 -63zM878 81c0 -24.667 -8.66699 -45.667 -26 -63s-38.333 -26 -63 -26s-45.667 8.66699 -63 26s-26 38.333 -26 63s8.66699 45.667 26 63
s38.333 26 63 26s45.667 -8.66699 63 -26s26 -38.333 26 -63z" />
    <glyph glyph-name="perthousand" unicode="&#x2030;" horiz-adv-x="1412" 
d="M358 -1h-131l379 708h132zM425 532c0 -52.667 -18.5 -97.5 -55.5 -134.5s-81.833 -55.5 -134.5 -55.5s-97.5 18.5 -134.5 55.5s-55.5 81.833 -55.5 134.5s18.5 97.5 55.5 134.5s81.833 55.5 134.5 55.5s97.5 -18.5 134.5 -55.5s55.5 -81.833 55.5 -134.5zM162 532
c0 -20 7.16699 -37.167 21.5 -51.5s31.5 -21.5 51.5 -21.5s37.167 7.16699 51.5 21.5s21.5 31.5 21.5 51.5s-7.16699 37.167 -21.5 51.5s-31.5 21.5 -51.5 21.5s-37.167 -7.16699 -51.5 -21.5s-21.5 -31.5 -21.5 -51.5zM928 182c0 -52.667 -18.5 -97.5 -55.5 -134.5
s-81.833 -55.5 -134.5 -55.5s-97.5 18.5 -134.5 55.5s-55.5 81.833 -55.5 134.5s18.5 97.5 55.5 134.5s81.833 55.5 134.5 55.5s97.5 -18.5 134.5 -55.5s55.5 -81.833 55.5 -134.5zM665 182c0 -20 7.16699 -37.167 21.5 -51.5s31.5 -21.5 51.5 -21.5
s37.167 7.16699 51.5 21.5s21.5 31.5 21.5 51.5s-7.16699 37.167 -21.5 51.5s-31.5 21.5 -51.5 21.5s-37.167 -7.16699 -51.5 -21.5s-21.5 -31.5 -21.5 -51.5zM1368 182c0 -52.667 -18.5 -97.5 -55.5 -134.5s-81.833 -55.5 -134.5 -55.5s-97.5 18.5 -134.5 55.5
s-55.5 81.833 -55.5 134.5s18.5 97.5 55.5 134.5s81.833 55.5 134.5 55.5s97.5 -18.5 134.5 -55.5s55.5 -81.833 55.5 -134.5zM1105 182c0 -20 7.16699 -37.167 21.5 -51.5s31.5 -21.5 51.5 -21.5s37.167 7.16699 51.5 21.5s21.5 31.5 21.5 51.5s-7.16699 37.167 -21.5 51.5
s-31.5 21.5 -51.5 21.5s-37.167 -7.16699 -51.5 -21.5s-21.5 -31.5 -21.5 -51.5z" />
    <glyph glyph-name="guilsinglleft" unicode="&#x2039;" horiz-adv-x="371" 
d="M184 253l146 -162h-152l-152 162l152 162h152z" />
    <glyph glyph-name="guilsinglright" unicode="&#x203a;" horiz-adv-x="371" 
d="M345 253l-152 -162h-152l146 162l-146 162h152z" />
    <glyph glyph-name="fraction" unicode="&#x2044;" horiz-adv-x="264" 
d="M-68 0h-109l429 711h108z" />
    <glyph glyph-name="Euro" unicode="&#x20ac;" horiz-adv-x="622" 
d="M582 27c-42.667 -23.333 -94.668 -35.001 -156.001 -35.001c-71.333 0 -132.833 18.833 -184.5 56.5s-87.834 88.5 -108.501 152.5h-93v90h76c-0.666992 6.66699 -1 16.334 -1 29.001c0 16 0.333008 27.667 1 35h-76v90h92c20.667 69.333 57.334 123 110.001 161
s112.334 57 179.001 57c65.333 0 119 -12.667 161 -38v-147c-39.333 32 -85 48 -137 48c-65.333 0 -114 -27 -146 -81h178v-90h-206c-1.33301 -14.667 -2 -26.667 -2 -36c0 -12.667 0.333008 -22 1 -28h207v-90h-179c30 -50 77.333 -75 142 -75c54.667 0 102 16.333 142 49
v-148z" />
    <glyph glyph-name="indianrupee" unicode="&#x20b9;" horiz-adv-x="559" 
d="M518 395l-108.001 -0.000976562c-7.33301 -47.333 -26.166 -85.666 -56.499 -114.999s-71.5 -48.333 -123.5 -57l191 -223h-184l-177 219v115h87c62 0 99.667 20.333 113 61h-200v109h194c-20 40.667 -56.667 61 -110 61h-84v109h458v-109h-155
c16.667 -18.667 29 -39 37 -61h118v-109z" />
    <glyph glyph-name="uni20BA" unicode="&#x20ba;" horiz-adv-x="588" 
d="M224 0l-98.998 0.000976562v208l-71 -36v111l71 36v89l-71 -36v111l71 36v136h146v-63l89 45v-111l-89 -45v-89l89 45v-111l-89 -45v-154c51.333 15.333 92.166 45 122.499 89s45.5 93 45.5 147h142c0 -45.333 -7.83301 -89.333 -23.5 -132
s-37.834 -81.334 -66.501 -116.001s-66.167 -62.5 -112.5 -83.5s-97.833 -31.5 -154.5 -31.5z" />
    <glyph glyph-name="uni20BD" unicode="&#x20bd;" horiz-adv-x="545" 
d="M267 537h-48v-197h39c81.333 0 122 34.667 122 104c0 62 -37.667 93 -113 93zM416 77h-197v-77h-154v77h-77v102h77v59h-77v102h77v315h220c80 0 140.167 -19.333 180.5 -58s60.5 -88.334 60.5 -149.001c0 -67.333 -21.833 -119.166 -65.5 -155.499
s-102.167 -54.5 -175.5 -54.5h-66v-59h197v-102z" />
    <glyph glyph-name="uni2113" unicode="&#x2113;" horiz-adv-x="519" 
d="M280 459v-108c54 38 81 86.667 81 146c0 34.667 -12.667 52 -38 52c-28.667 0 -43 -30 -43 -90zM476 27c-37.333 -21.333 -84.334 -32 -141.001 -32c-61.333 0 -109.333 16.333 -144 49s-53 79.667 -55 141c-8 -0.666992 -20.667 -1 -38 -1c-27.333 0 -50 2.33301 -68 7
v118c21.333 -5.33301 44 -8 68 -8c9.33301 0 22 0.666992 38 2v162c0 64.667 13.5 116.5 40.5 155.5s70.833 58.5 131.5 58.5c57.333 0 100.5 -15.5 129.5 -46.5s43.5 -72.167 43.5 -123.5c0 -60.667 -17.5 -117.5 -52.5 -170.5s-84.5 -93.167 -148.5 -120.5v-11
c0 -32 8.16699 -55.833 24.5 -71.5s38.833 -23.5 67.5 -23.5c36.667 0 71.334 11 104.001 33v-118z" />
    <glyph glyph-name="trademark" unicode="&#x2122;" horiz-adv-x="753" 
d="M396 331l-90.999 0.00292969l29 343h99l36 -93c12 -31.333 21.833 -58.5 29.5 -81.5s12.167 -38.167 13.5 -45.5l3 -12c6 22 22.333 68.333 49 139l36 93h99l35 -343h-91l-10 112c-2 21.333 -3 42.5 -3 63.5s0.666992 36.833 2 47.5l1 16
c-6.66699 -37.333 -19.334 -80 -38.001 -128l-40 -107h-78l-39 107c-7.33301 19.333 -14 39.666 -20 60.999s-10 37.666 -12 48.999l-4 18c0.666992 -4.66699 1.33398 -10.667 2.00098 -18s1.66699 -22.833 3 -46.5s0.666016 -44.834 -2.00098 -63.501zM188.001 331.003h-94
v261h-84v82h261v-82h-83v-261z" />
    <glyph glyph-name="uni2126" unicode="&#x2126;" horiz-adv-x="790" 
d="M350 0l-305 0.00195312v124h129c-63.333 52.667 -95 126 -95 220c0 104 28.167 186.833 84.5 248.5s134.166 92.5 233.499 92.5s177.166 -30.667 233.499 -92s84.5 -144.333 84.5 -249c0 -94 -32.333 -167.333 -97 -220h127v-124h-305v124
c36.667 10 64.167 34.833 82.5 74.5s27.5 88.167 27.5 145.5c0 63.333 -13.167 112.666 -39.5 147.999s-64.166 53 -113.499 53s-87.166 -17.667 -113.499 -53s-39.5 -84.666 -39.5 -147.999c0 -56.667 8.66699 -104.834 26 -144.501s44 -64.834 80 -75.501v-124z" />
    <glyph glyph-name="partialdiff" unicode="&#x2202;" horiz-adv-x="552" 
d="M502 284c0 -93.333 -20.6689 -165.669 -62.002 -217.002s-98.666 -77 -171.999 -77c-74.667 0 -132.167 21.333 -172.5 64s-60.5 98 -60.5 166c0 62.667 19.833 113.834 59.5 153.501s87.834 59.5 144.501 59.5c42 0 78.333 -10.333 109 -31
c-38 102.667 -120.333 193.334 -247 272.001h201c60.667 -46.667 109.167 -106.667 145.5 -180s54.5 -143.333 54.5 -210zM266.998 119.997c64.667 0 98.666 51.335 101.999 154.002c-25.333 23.333 -58 35 -98 35c-25.333 0 -46.166 -8.83301 -62.499 -26.5
s-24.5 -40.834 -24.5 -69.501s7.16699 -51.334 21.5 -68.001s34.833 -25 61.5 -25z" />
    <glyph glyph-name="uni2206" unicode="&#x2206;" horiz-adv-x="681" 
d="M35 0v101l210 573h194l207 -573v-101h-611zM245 268l-47 -144h284l-47 144l-95 294z" />
    <glyph glyph-name="product" unicode="&#x220f;" horiz-adv-x="647" 
d="M240 43c0 -152.667 -60.667 -229 -182 -229c-24 0 -48.333 4.33301 -73 13v133c16 -8.66699 31.667 -13 47 -13c20 0 34 7.5 42 22.5s12 39.167 12 72.5v632h496v-854h-155v723h-187v-500z" />
    <glyph glyph-name="summation" unicode="&#x2211;" horiz-adv-x="484" 
d="M191 -76h303v-124h-464v124l146 320l-146 306v124h464v-124h-302l142 -306z" />
    <glyph glyph-name="minus" unicode="&#x2212;" horiz-adv-x="589" 
d="M544 275h-499v129h499v-129z" />
    <glyph glyph-name="uni2215" unicode="&#x2215;" horiz-adv-x="488" 
d="M88 0h-109l429 711h108z" />
    <glyph glyph-name="uni2219" unicode="&#x2219;" horiz-adv-x="316" 
d="M247 337c0 -24.667 -8.66699 -45.667 -26 -63s-38.333 -26 -63 -26s-45.667 8.66699 -63 26s-26 38.333 -26 63s8.66699 45.667 26 63s38.333 26 63 26s45.667 -8.66699 63 -26s26 -38.333 26 -63z" />
    <glyph glyph-name="radical" unicode="&#x221a;" horiz-adv-x="825" 
d="M522 -190l-170.002 -0.000976562l-194 538h-131l30 113h226l82 -246c34.667 -103.333 59.334 -191.666 74.001 -264.999c20.667 104 42.334 192.333 65.001 265l213 692h154z" />
    <glyph glyph-name="infinity" unicode="&#x221e;" horiz-adv-x="830" 
d="M415 259c-16.667 -18.667 -30.832 -33.167 -42.499 -43.5s-30.5 -21.333 -56.5 -33s-54.333 -17.5 -85 -17.5c-60 0 -106 14.833 -138 44.5s-48 72.167 -48 127.5c0 54 17.333 97.167 52 129.5s80.667 48.5 138 48.5c65.333 0 125 -30 179 -90c54 62 116 93 186 93
c58.667 0 104.167 -15.167 136.5 -45.5s48.5 -72.5 48.5 -126.5c0 -53.333 -17.333 -96.333 -52 -129s-80.334 -49 -137.001 -49c-68.667 0 -129 30.333 -181 91zM172.002 339c0 -20 6 -35.5 18 -46.5s28.667 -16.5 50 -16.5c34.667 0 67.667 22.667 99 68
c-39.333 39.333 -72.333 59 -99 59c-21.333 0 -38 -5.66699 -50 -17s-18 -27 -18 -47zM491.002 339l31.001 -28.999c7.33301 -6.66699 17.5 -13.334 30.5 -20.001s25.5 -10 37.5 -10c44.667 0 67 21.333 67 64c0 18 -5.66699 33 -17 45s-27 18 -47 18
c-16.667 0 -32.334 -4.5 -47.001 -13.5s-25 -17 -31 -24s-14 -17.167 -24 -30.5z" />
    <glyph glyph-name="integral" unicode="&#x222b;" horiz-adv-x="326" 
d="M241 -4c0 -61.333 -17.167 -109 -51.5 -143s-81.833 -51 -142.5 -51c-31.333 0 -56.666 3.33301 -75.999 10v118c18.667 -7.33301 36 -11 52 -11c24.667 0 43 5.66699 55 17s18 31.333 18 60v517c0 61.333 17.167 109 51.5 143s81.833 51 142.5 51
c31.333 0 56.666 -3.33301 75.999 -10v-118c-18.667 7.33301 -36 11 -52 11c-24.667 0 -43 -5.66699 -55 -17s-18 -31.333 -18 -60v-517z" />
    <glyph glyph-name="approxequal" unicode="&#x2248;" horiz-adv-x="589" 
d="M207 405c-20 0 -36.833 -4.33398 -50.5 -13.001s-28.167 -22 -43.5 -40l-92 73c47.333 66 99.666 99 156.999 99c40 0 79.833 -7.5 119.5 -22.5s66.834 -22.5 81.501 -22.5c20 0 36.667 4.33301 50 13s28 22.334 44 41.001l92 -74c-46 -66 -98.667 -99 -158 -99
c-34.667 0 -71.5 7.5 -110.5 22.5s-68.833 22.5 -89.5 22.5zM207 200.999c-20 0 -36.833 -4.33398 -50.5 -13.001s-28.167 -22 -43.5 -40l-92 73c47.333 66 99.666 99 156.999 99c40 0 79.833 -7.5 119.5 -22.5s66.834 -22.5 81.501 -22.5c20 0 36.667 4.33301 50 13
s28 22.334 44 41.001l92 -74c-46 -66 -98.667 -99 -158 -99c-34.667 0 -71.5 7.5 -110.5 22.5s-68.833 22.5 -89.5 22.5z" />
    <glyph glyph-name="notequal" unicode="&#x2260;" horiz-adv-x="589" 
d="M544 166h-294l-37 -80h-75l37 80h-130v116h185l54 116h-239v116h294l37 80h75l-37 -80h130v-116h-185l-54 -116h239v-116z" />
    <glyph glyph-name="lessequal" unicode="&#x2264;" horiz-adv-x="584" 
d="M539 469l-396 -50l396 -50v-126l-499 86v180l499 86v-126zM539 83h-499v116h499v-116z" />
    <glyph glyph-name="greaterequal" unicode="&#x2265;" horiz-adv-x="584" 
d="M544 509v-180l-499 -86v126l396 50l-396 50v126zM544 83h-499v116h499v-116z" />
    <glyph glyph-name="lozenge" unicode="&#x25ca;" horiz-adv-x="604" 
d="M177 337l25 -42l57 -99.5c16.667 -30.333 28 -51.5 34 -63.5l9 -19c18 40.667 52 101.334 102 182.001l26 42l-26 42l-58.5 99.5c-17 30.333 -28.5 51.5 -34.5 63.5l-9 19c-18.667 -40.667 -52 -101.334 -100 -182.001zM376 0h-150l-197 337l197 337h150l199 -337z" />
    <glyph glyph-name="uni25CC" unicode="&#x25cc;" horiz-adv-x="660" 
d="M286 90c0 -13.333 -4.16699 -24.333 -12.5 -33s-18.833 -13 -31.5 -13s-23.334 4.33301 -32.001 13s-13 19.667 -13 33c0 12 4.33301 22.333 13 31s19.334 13 32.001 13s23.167 -4.33301 31.5 -13s12.5 -19 12.5 -31zM184 165c0 -12.667 -4.16699 -23.167 -12.5 -31.5
s-18.833 -12.5 -31.5 -12.5c-13.333 0 -24 4.16699 -32 12.5s-12 18.833 -12 31.5s4.16699 23.167 12.5 31.5s18.833 12.5 31.5 12.5s23.167 -4.16699 31.5 -12.5s12.5 -18.833 12.5 -31.5zM132 281c0 -12.667 -4.16699 -23.002 -12.5 -31.002s-18.833 -12 -31.5 -12
s-23.167 4 -31.5 12s-12.5 18.333 -12.5 31s4.16699 23.334 12.5 32.001s18.833 13 31.5 13s23.167 -4.16699 31.5 -12.5s12.5 -19.166 12.5 -32.499zM413 73.998c0 -12.667 -4.16699 -23.167 -12.5 -31.5s-19.166 -12.5 -32.499 -12.5s-24 4 -32 12s-12 18.667 -12 32
s4 24 12 32s18.667 12 32 12s24.166 -4.16699 32.499 -12.5s12.5 -18.833 12.5 -31.5zM147 406.998c0 -12.667 -4.33301 -23.167 -13 -31.5s-19 -12.5 -31 -12.5c-13.333 0 -24.333 4.16699 -33 12.5s-13 18.833 -13 31.5s4.33301 23.167 13 31.5s19.667 12.5 33 12.5
c12 0 22.333 -4.16699 31 -12.5s13 -18.833 13 -31.5zM534 126.998c0 -12.667 -4.33301 -23.167 -13 -31.5s-19.334 -12.5 -32.001 -12.5s-23.167 4.16699 -31.5 12.5s-12.5 18.833 -12.5 31.5s4.16699 23.167 12.5 31.5s18.833 12.5 31.5 12.5
s23.334 -4.16699 32.001 -12.5s13 -18.833 13 -31.5zM227 516.998c0 -13.333 -4.16699 -24.166 -12.5 -32.499s-18.833 -12.5 -31.5 -12.5s-23.167 4.16699 -31.5 12.5s-12.5 19.166 -12.5 32.499c0 12.667 4.16699 23.167 12.5 31.5s18.833 12.5 31.5 12.5
s23.167 -4.16699 31.5 -12.5s12.5 -18.833 12.5 -31.5zM606 224.998c0 -12.667 -4.16699 -23.167 -12.5 -31.5s-18.5 -12.5 -30.5 -12.5c-12.667 0 -23.334 4.16699 -32.001 12.5s-13 18.833 -13 31.5s4.33301 23.334 13 32.001s19.334 13 32.001 13
c12 0 22.167 -4.33301 30.5 -13s12.5 -19.334 12.5 -32.001zM345 559.998c0 -13.333 -4.16699 -24 -12.5 -32s-18.833 -12 -31.5 -12s-23.167 4 -31.5 12s-12.5 18.667 -12.5 32s4.16699 24 12.5 32s18.833 12 31.5 12s23.167 -4 31.5 -12s12.5 -18.667 12.5 -32z
M616 358.998c0 -12.667 -4.16699 -23.167 -12.5 -31.5s-18.833 -12.5 -31.5 -12.5c-13.333 0 -24 4.16699 -32 12.5s-12 18.833 -12 31.5s4 23.167 12 31.5s18.667 12.5 32 12.5c12.667 0 23.167 -4.16699 31.5 -12.5s12.5 -18.833 12.5 -31.5zM471 544.998
c0 -12 -4.16504 -22.335 -12.498 -31.002s-18.5 -13 -30.5 -13c-12.667 0 -23.334 4.33301 -32.001 13s-13 19 -13 31c0 12.667 4.16699 23.334 12.5 32.001s19.166 13 32.499 13c12.667 0 23 -4.16699 31 -12.5s12 -19.166 12 -32.499zM566.002 476.996
c0 -12.667 -4.16699 -23.1689 -12.5 -31.502s-18.833 -12.5 -31.5 -12.5s-23.167 4.16699 -31.5 12.5s-12.5 18.833 -12.5 31.5s4.16699 23.334 12.5 32.001s18.833 13 31.5 13s23.167 -4.16699 31.5 -12.5s12.5 -19.166 12.5 -32.499z" />
    <glyph glyph-name="fi" unicode="&#xfb01;" horiz-adv-x="575" 
d="M241 0h-145v400h-66v107h66v19c0 61.333 17.167 109 51.5 143s81.833 51 142.5 51c65.333 0 128.333 -14 189 -42v-118c-63.333 28.667 -118.333 43 -165 43c-24.667 0 -43 -5.66699 -55 -17s-18 -31.333 -18 -60v-19h291v-507h-146v400h-145v-400z" />
    <glyph glyph-name="fl" unicode="&#xfb02;" horiz-adv-x="593" 
d="M336 400h-94.998v-400h-145v400h-66v107h66v19c0 61.333 17.167 109 51.5 143s81.833 51 142.5 51c73.333 0 154.333 -21 243 -63v-657h-146v593c-26.667 6.66699 -49.334 10 -68.001 10c-26.667 0 -46.334 -5.33301 -59.001 -16s-19 -31 -19 -61v-19h95v-107z" />
    <glyph glyph-name=".null" 
 />
    <glyph glyph-name="nonmarkingreturn" horiz-adv-x="333" 
 />
    </font>
</defs>
</svg>
